<svg xmlns="http://www.w3.org/2000/svg" width="20" height="20" viewBox="0 0 20 20">
    <g fill="none" fill-rule="evenodd">
        <g>
            <g>
                <g>
                    <path d="M0 0L19.2 0 19.2 19.2 0 19.2z" transform="translate(-26 -2330) translate(16 2247) translate(10 83)"/>
                    <path fill="#00E2AE" fill-rule="nonzero" d="M13.48 5.48l1.152 1.152-3.904 3.904-2.632-2.632c-.312-.312-.816-.312-1.128 0l-4.8 4.808c-.312.312-.312.816 0 1.128.312.312.816.312 1.128 0L7.528 9.6l2.632 2.632c.312.312.816.312 1.128 0l4.472-4.464 1.152 1.152c.248.248.68.072.68-.28V5.2c.008-.224-.168-.4-.392-.4h-3.432c-.36 0-.536.432-.288.68z" transform="translate(-26 -2330) translate(16 2247) translate(10 83)"/>
                </g>
            </g>
        </g>
    </g>
</svg>
