<svg width="80" height="24" viewBox="0 0 80 24" fill="none" xmlns="http://www.w3.org/2000/svg">
<rect y="0.000244141" width="80" height="24" rx="4" fill="url(#paint0_linear_119_20382)"/>
<g clip-path="url(#clip0_119_20382)">
<path d="M14.5 11.0002L18 11.0002L13.5 17.5002L13.5 13.0002L10 13.0002L14.5 6.50024L14.5 11.0002Z" fill="white"/>
</g>
<path d="M24.216 16.0002H30.024V14.6562H27.132L28.512 13.1562C29.136 12.4842 29.964 11.5962 29.964 10.3602C29.964 9.08824 29.004 7.81624 27.144 7.81624C25.56 7.81624 24.408 8.86024 24.336 10.4922H25.944C25.968 9.80824 26.4 9.16024 27.216 9.16024C27.888 9.16024 28.404 9.65224 28.404 10.3722C28.404 10.8402 28.152 11.3322 27.936 11.6562C27.648 12.0882 26.712 13.1562 26.568 13.3242L24.216 16.0002ZM30.8443 16.0002H32.7163L34.2283 14.1882L35.7163 16.0002H37.5883L35.1283 13.1682L37.1563 10.8042H35.3083L34.2283 12.1482L33.1723 10.8042H31.3243L33.3163 13.1682L30.8443 16.0002ZM45.578 7.99624H41.33V16.0002H42.89V12.4722H45.41V11.1282H42.89V9.34024L45.578 9.34024V7.99624ZM50.2894 11.4762C49.7974 10.7082 49.0174 10.6362 48.6214 10.6362C47.0854 10.6362 46.0414 11.8602 46.0414 13.3962C46.0414 14.9202 47.0974 16.1682 48.6934 16.1682C49.0654 16.1682 49.7614 16.0842 50.2894 15.3282V16.0002H51.7534V10.8042H50.2894V11.4762ZM48.9934 11.9322C49.8334 11.9322 50.4334 12.5682 50.4334 13.3962C50.4334 14.2242 49.8334 14.8722 48.9934 14.8722C48.1534 14.8722 47.5534 14.2242 47.5534 13.3962C47.5534 12.5682 48.1534 11.9322 48.9934 11.9322ZM56.7011 11.1882C56.0411 10.6842 55.4291 10.6362 55.0451 10.6362C54.6251 10.6362 54.0971 10.6842 53.6891 11.0082C53.3891 11.2602 53.1491 11.6802 53.1491 12.1842C53.1491 12.6042 53.3051 12.9282 53.5451 13.1802C53.8571 13.5042 54.2891 13.6722 54.6611 13.8042L54.9971 13.9242C55.1891 13.9962 55.4531 14.1282 55.4531 14.4522C55.4531 14.8122 55.1411 15.0162 54.7331 15.0162C54.3011 15.0162 53.8691 14.7522 53.5811 14.4162L52.8131 15.3042C53.1371 15.6522 53.7491 16.1682 54.8291 16.1682C55.4651 16.1682 55.9691 16.0002 56.3891 15.6162C56.8091 15.2322 56.9651 14.7642 56.9651 14.2962C56.9651 13.9602 56.8571 13.6482 56.7011 13.4322C56.4011 13.0242 55.7891 12.8202 55.3811 12.6882L55.0331 12.5802C54.6251 12.4482 54.5651 12.2442 54.5651 12.1122C54.5651 11.8602 54.7811 11.6922 55.1291 11.6922C55.2851 11.6922 55.6331 11.7162 55.9811 12.0402L56.7011 11.1882ZM60.4727 12.0522V10.8042H59.4647V9.02824H58.0007V10.8042H57.4247V12.0522H58.0007V16.0002H59.4647V12.0522H60.4727ZM64.9911 14.3322C64.7511 14.7522 64.3311 15.0162 63.7791 15.0162C63.2151 15.0162 62.8911 14.7402 62.7351 14.5242C62.5671 14.2962 62.4831 13.9602 62.4831 13.6482L66.3711 13.6482V13.5282C66.3711 12.9642 66.2991 12.1482 65.7471 11.4882C65.3871 11.0562 64.7751 10.6362 63.7191 10.6362C63.0951 10.6362 62.3751 10.7682 61.7631 11.3682C61.3911 11.7402 60.9711 12.3762 60.9711 13.4082C60.9711 14.2242 61.2111 14.8962 61.7871 15.4362C62.3031 15.9282 62.9391 16.1682 63.7791 16.1682C65.5911 16.1682 66.1791 14.9322 66.3351 14.5482L64.9911 14.3322ZM62.5311 12.7122C62.6511 12.0162 63.2151 11.6682 63.7551 11.6682C64.2951 11.6682 64.8711 12.0042 64.9911 12.7122L62.5311 12.7122ZM67.5046 16.0002H68.9686V13.5042C68.9686 13.1442 68.9806 12.7002 69.2566 12.3522C69.5446 11.9922 69.9526 11.9322 70.2286 11.9322C70.5286 11.9322 70.7206 11.9922 70.9126 12.1242L71.1046 10.7562C70.9366 10.6962 70.7326 10.6362 70.4806 10.6362C70.1326 10.6362 69.8446 10.7202 69.6166 10.8642C69.5086 10.9242 69.1966 11.1402 68.9686 11.5842V10.8042H67.5046V16.0002Z" fill="white"/>
<defs>
<linearGradient id="paint0_linear_119_20382" x1="-4.66472" y1="12.0002" x2="91.7784" y2="12.0002" gradientUnits="userSpaceOnUse">
<stop stop-color="#ED264F"/>
<stop offset="1" stop-color="#6300A3"/>
</linearGradient>
<clipPath id="clip0_119_20382">
<rect width="12" height="12" fill="white" transform="translate(8 6.00024)"/>
</clipPath>
</defs>
</svg>
