<svg width="41" height="41" viewBox="0 0 41 41" fill="none" xmlns="http://www.w3.org/2000/svg">
<path d="M27.7575 4.89586C27.3921 4.41708 26.8154 4.10815 26.1666 4.10815H12.1666C11.0621 4.10815 10.1666 5.00358 10.1666 6.10815V32.1082C10.1666 33.2127 11.0621 34.1082 12.1666 34.1082H26.1666C27.2712 34.1082 28.1666 33.2127 28.1666 32.1082V6.10815C28.1666 5.65238 28.0142 5.23221 27.7575 4.89586ZM27.7575 4.89586L29.7429 6.97922C30.0953 7.349 30.2928 7.83961 30.295 8.35041L30.3991 32.591C30.4086 34.8068 28.615 36.6082 26.3992 36.6082H14.9598C14.1342 36.6082 13.3452 36.268 12.7784 35.6677L10.6666 33.4311" stroke="#01B088"/>
<path d="M20.5395 28.3389L17.1406 25.5311C16.8857 25.3206 17.0346 24.9065 17.3653 24.9065H18.2814C19.5285 24.9065 20.5395 23.8955 20.5395 22.6484V22.6484M22.3461 20.3902H16.3845H18.2814C19.5285 20.3902 20.5395 21.4012 20.5395 22.6484V22.6484M20.5395 22.6484H16.3845M20.5395 22.6484H22.3461" stroke="#01B088"/>
<circle cx="19.1666" cy="12.8389" r="4.37179" stroke="#01B088"/>
<path d="M17.1794 13.2364L17.8635 13.9205C18.3236 14.3805 19.0934 14.2857 19.4281 13.7278L21.1538 10.8517" stroke="#01B088"/>
<path d="M20.359 5.69788H17.9744" stroke="#01B088" stroke-linecap="round"/>
</svg>
