<svg width="41" height="41" viewBox="0 0 41 41" fill="none" xmlns="http://www.w3.org/2000/svg">
<path d="M5.77778 32.2669V28.755H8.77679M5.77778 32.2669H35.7758M5.77778 32.2669H2.5V36.0129H39.0536V32.2669H35.7758M35.7758 32.2669V28.755H32.2639M16.8115 28.755V5.10815M16.8115 28.755H28.2838M16.8115 28.755H12.7768M16.8115 5.10815H32.2639V28.755M16.8115 5.10815L28.2838 9.79069V28.755M32.2639 28.755H28.2838M8.77679 28.755L7.77679 23.1082H11.7768M8.77679 28.755H12.7768M12.7768 28.755L13.7768 23.1082H11.7768M11.7768 23.1082V20.1082V19.6082C11.7768 17.9513 13.1199 16.6082 14.7768 16.6082V16.6082M7.77679 19.6082V19.6082C8.88136 19.6082 9.77679 20.5036 9.77679 21.6082V23.1082" stroke="#01B088"/>
<circle cx="26.1766" cy="20.3264" r="0.936508" stroke="#01B088"/>
</svg>
