<svg width="400" height="400" fill="none" xmlns="http://www.w3.org/2000/svg">
<mask id="mask0_1961_252" style="mask-type:luminance" maskUnits="userSpaceOnUse" x="65" y="82" width="82" height="126">
<path d="M146.25 87.4V202.71C146.25 205.47 144.01 207.7 141.26 207.7H76.6899C78.8699 194.19 70.35 182.69 65.01 180.06V87.4C65.01 84.64 67.25 82.4099 70 82.4099H141.26C144.02 82.4099 146.25 84.65 146.25 87.4Z" fill="white"/>
</mask>
<g mask="url(#mask0_1961_252)">
<path d="M100.18 147.72C95.2399 151.02 88.52 151.39 85.78 151.16L46.01 149.38L43.27 127.07H54.24C59.27 126.84 71.5199 128.17 80.2899 135.33C89.0699 142.49 97.1999 146.58 100.17 147.72H100.18Z" fill="white"/>
<path d="M134.46 167.68V156.66C137.66 157.81 144.06 162.44 144.06 171.81C135.83 171.81 134.23 169.06 134.46 167.68Z" fill="white"/>
<path d="M46.01 149.37L47.38 159.41V184.2H90.11C89.96 183.31 89.89 182.39 89.89 181.44C89.89 174.9 93.6699 169.25 99.1599 166.57C101.34 165.51 103.78 164.92 106.35 164.92C115.43 164.92 122.81 172.32 122.81 181.44C122.81 182.62 122.69 183.77 122.45 184.88H140.64C141.78 184.42 144.07 181.17 144.07 171.8C135.84 171.8 134.24 169.04 134.46 167.67V156.65L100.18 147.71C99.7699 147.98 99.3399 148.24 98.9099 148.47C94.1399 151.07 88.2999 151.36 85.7899 151.15L46.02 149.36L46.01 149.37Z" fill="white"/>
<path fill-rule="evenodd" clip-rule="evenodd" d="M122.45 184.89C122.68 183.78 122.81 182.63 122.81 181.45C122.81 172.32 115.44 164.93 106.35 164.93C97.2601 164.93 89.8901 172.33 89.8901 181.45C89.8901 182.39 89.9701 183.31 90.1201 184.2C91.4301 192.01 98.1901 197.97 106.35 197.97C114.51 197.97 120.87 192.36 122.45 184.89ZM106.35 189.71C110.89 189.71 114.58 186.01 114.58 181.45C114.58 176.89 110.9 173.19 106.35 173.19C101.8 173.19 98.1201 176.89 98.1201 181.45C98.1201 186.01 101.8 189.71 106.35 189.71Z" fill="white"/>
<path d="M106.35 173.19C101.81 173.19 98.1201 176.89 98.1201 181.45C98.1201 186.01 101.8 189.71 106.35 189.71C110.9 189.71 114.58 186.01 114.58 181.45C114.58 176.89 110.9 173.19 106.35 173.19Z" fill="white"/>
<path d="M39.8401 162.86H29.5601M72.0701 162.86H61.79M47.3901 184.21V181.02V159.43L46.0201 149.39L43.2802 127.08H27.8301C18.5801 127.08 9.46007 129.11 1.07007 132.99C-0.669932 133.8 -2.40991 134.6 -4.02991 135.35L2.18005 141.25C6.57005 145.44 12.3401 147.89 18.4001 148.17L46.0201 149.4M16.9901 184.22H47.3901H49.0601M48.79 184.22H90.1301M90.1301 184.22C90.6801 187.48 92.1701 190.42 94.3201 192.73C97.3101 195.96 101.6 197.99 106.36 197.99C114.27 197.99 120.88 192.39 122.45 184.91M90.1301 184.22C89.9801 183.33 89.91 182.41 89.91 181.46C89.91 174.92 93.6901 169.27 99.1801 166.59C101.36 165.53 103.8 164.94 106.37 164.94C115.45 164.94 122.83 172.34 122.83 181.46C122.83 182.64 122.71 183.79 122.47 184.9H140.66C141.8 184.44 144.09 181.19 144.09 171.82M144.09 171.82C135.86 171.82 134.26 169.06 134.48 167.69V156.67M144.09 171.82C144.09 162.45 137.68 157.82 134.48 156.67M134.48 156.67L100.2 147.73C99.7901 148 99.3701 148.26 98.9301 148.49C94.1701 151.09 88.3201 151.38 85.8101 151.17L46.04 149.38M43.3 127.07H46.8301H53.92H54.2601C55.1401 127.03 56.2301 127.04 57.4901 127.11C62.5401 127.42 70.2001 128.86 76.8301 132.88C78.0401 133.61 79.2101 134.43 80.3301 135.34C87.9901 141.59 95.1701 145.5 98.8501 147.15C99.3901 147.39 99.8401 147.59 100.22 147.73M-38.96 153.23V149.79C-38.73 147.95 -36.7699 144.29 -30.7399 144.29C-23.1899 144.29 -17.7099 141.53 -11.5399 138.78C-9.85992 138.03 -7.11987 136.78 -3.98987 135.34M-38.96 153.23V168.38M-38.96 153.23H-32.0999C-30.5899 153.23 -29.3599 154.46 -29.3599 155.99V165.63C-29.3599 167.15 -30.5799 168.39 -32.0999 168.39H-38.96M-38.96 168.39V153.24M-38.96 168.39C-38.96 175.51 -36.01 179.7 -32.84 181.97C-30.86 183.38 -28.7899 184.05 -27.3099 184.23H-15.4299C-14.1299 192.05 -7.35995 198 0.800049 198C8.95005 198 15.7101 192.05 17.0201 184.23M17.0302 184.23C17.1802 183.34 17.2501 182.42 17.2501 181.47C17.2501 174.19 12.5701 168.02 6.06006 165.82C4.41006 165.26 2.63005 164.95 0.800049 164.95C-1.23995 164.95 -3.19988 165.32 -4.99988 166.01C-6.82988 166.7 -8.50996 167.71 -9.95996 168.97C-11.47 170.27 -12.7299 171.85 -13.6799 173.62C-14.9499 175.95 -15.6599 178.63 -15.6599 181.47C-15.6599 182.41 -15.5899 183.33 -15.4399 184.23M98.1201 181.45C98.1201 186.02 101.8 189.72 106.35 189.72C110.9 189.72 114.57 186.02 114.57 181.45C114.57 176.88 110.89 173.19 106.35 173.19C101.8 173.19 98.1201 176.89 98.1201 181.45Z" stroke="#341E54"/>
</g>
<mask id="mask1_1961_252" style="mask-type:luminance" maskUnits="userSpaceOnUse" x="65" y="82" width="82" height="126">
<path d="M146.25 87.4V202.71C146.25 205.47 144.01 207.7 141.26 207.7H76.6899C78.8699 194.19 70.35 182.69 65.01 180.06V87.4C65.01 84.64 67.25 82.4099 70 82.4099H141.26C144.02 82.4099 146.25 84.65 146.25 87.4Z" fill="white"/>
</mask>
<g mask="url(#mask1_1961_252)">
<path d="M100.18 147.72C95.2399 151.02 88.52 151.39 85.78 151.16L46.01 149.38L43.27 127.07H54.24C59.27 126.84 71.5199 128.17 80.2899 135.33C89.0699 142.49 97.1999 146.58 100.17 147.72H100.18Z" fill="white"/>
<path d="M134.46 167.68V156.66C137.66 157.81 144.06 162.44 144.06 171.81C135.83 171.81 134.23 169.06 134.46 167.68Z" fill="white"/>
<path d="M46.01 149.37L47.38 159.41V184.2H90.11C89.96 183.31 89.89 182.39 89.89 181.44C89.89 174.9 93.6699 169.25 99.1599 166.57C101.34 165.51 103.78 164.92 106.35 164.92C115.43 164.92 122.81 172.32 122.81 181.44C122.81 182.62 122.69 183.77 122.45 184.88H140.64C141.78 184.42 144.07 181.17 144.07 171.8C135.84 171.8 134.24 169.04 134.46 167.67V156.65L100.18 147.71C99.7699 147.98 99.3399 148.24 98.9099 148.47C94.1399 151.07 88.2999 151.36 85.7899 151.15L46.02 149.36L46.01 149.37Z" fill="#B5B9DD" stroke="#341E54" stroke-miterlimit="10"/>
<path fill-rule="evenodd" clip-rule="evenodd" d="M122.45 184.89C122.68 183.78 122.81 182.63 122.81 181.45C122.81 172.32 115.44 164.93 106.35 164.93C97.2601 164.93 89.8901 172.33 89.8901 181.45C89.8901 182.39 89.9701 183.31 90.1201 184.2C91.4301 192.01 98.1901 197.97 106.35 197.97C114.51 197.97 120.87 192.36 122.45 184.89ZM106.35 189.71C110.89 189.71 114.58 186.01 114.58 181.45C114.58 176.89 110.9 173.19 106.35 173.19C101.8 173.19 98.1201 176.89 98.1201 181.45C98.1201 186.01 101.8 189.71 106.35 189.71Z" fill="#8C8DC5" stroke="#231F20" stroke-miterlimit="10"/>
<path d="M106.35 173.19C101.81 173.19 98.1201 176.89 98.1201 181.45C98.1201 186.01 101.8 189.71 106.35 189.71C110.9 189.71 114.58 186.01 114.58 181.45C114.58 176.89 110.9 173.19 106.35 173.19Z" fill="white"/>
<path d="M39.8401 162.86H29.5601M72.0701 162.86H61.79M47.3901 184.21V181.02V159.43L46.0201 149.39L43.2802 127.08H27.8301C18.5801 127.08 9.46007 129.11 1.07007 132.99C-0.669932 133.8 -2.40991 134.6 -4.02991 135.35L2.18005 141.25C6.57005 145.44 12.3401 147.89 18.4001 148.17L46.0201 149.4M16.9901 184.22H47.3901H49.0601M48.79 184.22H90.1301M90.1301 184.22C90.6801 187.48 92.1701 190.42 94.3201 192.73C97.3101 195.96 101.6 197.99 106.36 197.99C114.27 197.99 120.88 192.39 122.45 184.91M90.1301 184.22C89.9801 183.33 89.91 182.41 89.91 181.46C89.91 174.92 93.6901 169.27 99.1801 166.59C101.36 165.53 103.8 164.94 106.37 164.94C115.45 164.94 122.83 172.34 122.83 181.46C122.83 182.64 122.71 183.79 122.47 184.9H140.66C141.8 184.44 144.09 181.19 144.09 171.82M144.09 171.82C135.86 171.82 134.26 169.06 134.48 167.69V156.67M144.09 171.82C144.09 162.45 137.68 157.82 134.48 156.67M134.48 156.67L100.2 147.73C99.7901 148 99.3701 148.26 98.9301 148.49C94.1701 151.09 88.3201 151.38 85.8101 151.17L46.04 149.38M43.3 127.07H46.8301H53.92H54.2601C55.1401 127.03 56.2301 127.04 57.4901 127.11C62.5401 127.42 70.2001 128.86 76.8301 132.88C78.0401 133.61 79.2101 134.43 80.3301 135.34C87.9901 141.59 95.1701 145.5 98.8501 147.15C99.3901 147.39 99.8401 147.59 100.22 147.73M-38.96 153.23V149.79C-38.73 147.95 -36.7699 144.29 -30.7399 144.29C-23.1899 144.29 -17.7099 141.53 -11.5399 138.78C-9.85992 138.03 -7.11987 136.78 -3.98987 135.34M-38.96 153.23V168.38M-38.96 153.23H-32.0999C-30.5899 153.23 -29.3599 154.46 -29.3599 155.99V165.63C-29.3599 167.15 -30.5799 168.39 -32.0999 168.39H-38.96M-38.96 168.39V153.24M-38.96 168.39C-38.96 175.51 -36.01 179.7 -32.84 181.97C-30.86 183.38 -28.7899 184.05 -27.3099 184.23H-15.4299C-14.1299 192.05 -7.35995 198 0.800049 198C8.95005 198 15.7101 192.05 17.0201 184.23M17.0302 184.23C17.1802 183.34 17.2501 182.42 17.2501 181.47C17.2501 174.19 12.5701 168.02 6.06006 165.82C4.41006 165.26 2.63005 164.95 0.800049 164.95C-1.23995 164.95 -3.19988 165.32 -4.99988 166.01C-6.82988 166.7 -8.50996 167.71 -9.95996 168.97C-11.47 170.27 -12.7299 171.85 -13.6799 173.62C-14.9499 175.95 -15.6599 178.63 -15.6599 181.47C-15.6599 182.41 -15.5899 183.33 -15.4399 184.23M98.1201 181.45C98.1201 186.02 101.8 189.72 106.35 189.72C110.9 189.72 114.57 186.02 114.57 181.45C114.57 176.88 110.89 173.19 106.35 173.19C101.8 173.19 98.1201 176.89 98.1201 181.45Z" stroke="#341E54"/>
</g>
<path d="M146.25 202.04V87.3999C146.25 84.6399 144.01 82.3999 141.25 82.3999H69.99C67.23 82.3999 65 84.6299 65 87.3899V202.71C65 205.47 67.23 207.7 69.99 207.7H140.59C143.72 207.7 146.25 205.17 146.25 202.04Z" stroke="#231F20" stroke-miterlimit="10"/>
<path d="M93.46 90.9697H124.38" stroke="#231F20" stroke-miterlimit="10"/>
<path d="M88.2301 92.3199C88.9757 92.3199 89.5801 91.7154 89.5801 90.9698C89.5801 90.2243 88.9757 89.6199 88.2301 89.6199C87.4845 89.6199 86.8801 90.2243 86.8801 90.9698C86.8801 91.7154 87.4845 92.3199 88.2301 92.3199Z" fill="white" stroke="#231F20" stroke-miterlimit="10"/>
<path d="M140.3 88.0798V202.02H80.8101C80.2901 201.32 79.6501 200.7 78.8701 200.19C77.3201 199.16 75.6301 198.75 74.1301 198.39C73.6801 198.28 73.0701 198.13 72.6401 198C70.7601 192.43 70.41 187.37 70.41 179.65V88.0798H140.3ZM140.98 83.0798H69.7201C67.3401 83.0798 65.4001 85.0198 65.4001 87.3998V179.65C65.4001 187.74 65.7501 193.64 68.1801 200.4C69.6401 204.46 77.8501 202.08 77.1901 207.03H140.98C143.36 207.03 145.3 205.09 145.3 202.71V87.3998C145.3 85.0198 143.36 83.0798 140.98 83.0798Z" fill="white"/>
<path d="M105.63 138.39C112.081 138.39 117.31 133.16 117.31 126.71C117.31 120.259 112.081 115.03 105.63 115.03C99.1793 115.03 93.95 120.259 93.95 126.71C93.95 133.16 99.1793 138.39 105.63 138.39Z" fill="#58C0A0"/>
<path d="M100.29 127.1L103.24 130.62C103.61 131.06 104.28 131.04 104.63 130.59L110.87 122.41" stroke="white" stroke-width="3" stroke-miterlimit="10"/>
<path d="M74.3699 104.36V105.66H73.3499V101.74H74.9698C75.3098 101.74 75.6598 101.8 75.9598 102.09C76.2698 102.38 76.3198 102.71 76.3198 103.04C76.3198 103.35 76.2798 103.72 75.9698 104.02C75.6598 104.32 75.2999 104.36 74.9999 104.36H74.3599H74.3699ZM74.3699 103.54H74.7098C74.8198 103.54 75.0199 103.53 75.1399 103.42C75.2599 103.31 75.2699 103.16 75.2699 103.06C75.2699 102.95 75.2599 102.81 75.1499 102.71C75.0299 102.59 74.8398 102.57 74.7198 102.57H74.3699V103.54Z" fill="#6B3293"/>
<path d="M79.7899 105H78.37L78.11 105.66H77.03L78.53 101.74H79.64L81.11 105.66H80.02L79.78 105H79.7899ZM79.52 104.22L79.08 102.95L78.65 104.22H79.52Z" fill="#6B3293"/>
<path d="M82.9199 103.78L81.5 101.74H82.72L83.46 102.81L84.1699 101.74H85.4L83.9399 103.78V105.66H82.9199V103.78Z" fill="#6B3293"/>
<path d="M86.1501 105.66L86.8101 101.74H87.8101L88.6001 103.83L89.4401 101.74H90.4601L91.05 105.66H90.0302L89.7401 103.4L88.79 105.66H88.3801L87.4701 103.4L87.1401 105.66H86.1301H86.1501Z" fill="#6B3293"/>
<path d="M94.71 102.6H93.5V103.25H94.65V104.11H93.5V104.79H94.71V105.65H92.48V101.73H94.71V102.59V102.6Z" fill="#6B3293"/>
<path d="M96.21 105.66V101.74H97.23L99.1 104.14V101.74H100.12V105.66H99.1L97.23 103.26V105.66H96.21Z" fill="#6B3293"/>
<path d="M103.17 102.6V105.65H102.15V102.6H101.32V101.74H104V102.6H103.17Z" fill="#6B3293"/>
<path d="M108.59 101.74C108.88 101.74 109.26 101.79 109.55 102.09C109.77 102.32 109.88 102.66 109.88 102.97C109.88 103.3 109.76 103.6 109.57 103.79C109.42 103.94 109.21 104.03 109.03 104.06L110.26 105.66H109L108.03 104.16V105.66H107.01V101.74H108.6H108.59ZM108.02 103.5H108.21C108.36 103.5 108.58 103.46 108.7 103.34C108.78 103.26 108.83 103.13 108.83 103.01C108.83 102.89 108.78 102.76 108.7 102.68C108.61 102.59 108.44 102.53 108.21 102.53H108.02V103.5Z" fill="#6B3293"/>
<path d="M113.67 102.6H112.46V103.25H113.61V104.11H112.46V104.79H113.67V105.65H111.44V101.73H113.67V102.59V102.6Z" fill="#6B3293"/>
<path d="M117.92 105.55C117.51 105.7 117.29 105.74 117.04 105.74C116.36 105.74 115.85 105.47 115.52 105.15C115.14 104.77 114.93 104.23 114.93 103.72C114.93 103.16 115.17 102.63 115.52 102.27C115.87 101.92 116.39 101.66 117 101.66C117.19 101.66 117.49 101.69 117.92 101.86V103.08C117.59 102.67 117.2 102.65 117.03 102.65C116.74 102.65 116.51 102.74 116.32 102.91C116.08 103.13 115.98 103.44 115.98 103.71C115.98 103.98 116.09 104.28 116.3 104.47C116.47 104.63 116.74 104.74 117.03 104.74C117.18 104.74 117.56 104.72 117.92 104.33V105.53V105.55Z" fill="#6B3293"/>
<path d="M121.65 102.6H120.44V103.25H121.59V104.11H120.44V104.79H121.65V105.65H119.42V101.73H121.65V102.59V102.6Z" fill="#6B3293"/>
<path d="M124.17 101.74V105.66H123.15V101.74H124.17Z" fill="#6B3293"/>
<path d="M126.45 101.74L127.39 104.12L128.34 101.74H129.44L127.77 105.66H126.98L125.34 101.74H126.45Z" fill="#6B3293"/>
<path d="M132.84 102.6H131.63V103.25H132.78V104.11H131.63V104.79H132.84V105.65H130.61V101.73H132.84V102.59V102.6Z" fill="#6B3293"/>
<path d="M134.35 105.66V101.74H135.68C136.07 101.74 136.73 101.79 137.24 102.28C137.7 102.72 137.79 103.28 137.79 103.71C137.79 104.23 137.66 104.68 137.28 105.07C136.97 105.38 136.45 105.66 135.78 105.66H134.36H134.35ZM135.37 104.8H135.58C135.83 104.8 136.17 104.78 136.44 104.52C136.57 104.4 136.74 104.15 136.74 103.72C136.74 103.36 136.63 103.04 136.44 102.86C136.2 102.64 135.88 102.61 135.63 102.61H135.38V104.8H135.37Z" fill="#6B3293"/>
<path d="M272.41 179.66C263.42 186.3 254.98 191.41 248.04 195.17C240.48 195.15 232.91 194.52 226.01 193.63C222.71 182.95 228.68 171.89 232.85 165.87L233.57 166.19H233.59C233.78 166.3 233.98 166.39 234.17 166.48C234.27 166.52 234.37 166.56 234.47 166.59L234.51 166.61C239.25 168.31 245.07 164.82 247.64 158.63C249.08 155.19 249.2 151.62 248.25 148.75C252.02 141.46 250.75 133.25 251.69 128.78C251.79 128.32 253.38 129.51 255.15 129.86C256.62 130.23 258.05 130.87 259.37 131.8C261.11 133.02 262.44 134.6 263.34 136.37C265.42 140.44 265.23 145.49 262.42 149.48C262.2 149.79 261.97 150.08 261.73 150.37C266.06 153.95 267.46 159.92 265.35 164.98C265 165.83 264.55 166.65 263.99 167.43C263.52 168.1 263 168.71 262.43 169.25C264.09 169.59 265.72 170.27 267.19 171.32C270.09 173.37 271.88 176.41 272.4 179.66H272.41Z" fill="#795CA7" stroke="#231F20" stroke-miterlimit="10"/>
<path d="M226.01 193.64C209.73 191.56 197.17 188.1 197.17 188.1C197.17 188.1 194.75 187.92 191.24 186.71C197.59 181.27 198.21 175.45 197.87 172.03C193.82 170.9 189.62 168.68 186.6 164.43C186.16 163.82 185.75 163.18 185.37 162.48C183.54 159.15 183.09 155.29 183.97 151.67C184.12 151.05 184.31 150.44 184.54 149.85C184.71 149.39 184.91 148.94 185.12 148.5C186.71 145.27 188.36 141.49 189.75 137.4C190.48 135.25 191.15 133 191.69 130.71C192.02 129.34 192.42 128.06 192.9 126.89C193 126.66 193.09 126.43 193.19 126.2C193.29 125.97 193.39 125.75 193.49 125.53C193.59 125.31 193.7 125.09 193.81 124.88C193.91 124.69 194 124.51 194.1 124.33C194.2 124.15 194.3 123.97 194.4 123.8C194.5 123.62 194.6 123.45 194.71 123.28C194.81 123.11 194.92 122.94 195.03 122.78C195.45 122.13 195.9 121.51 196.37 120.95C199.27 117.39 202.74 115.46 205.33 114.44C210.88 122.55 219.6 127.79 229.41 127.79C230.27 127.79 231.11 127.75 231.95 127.67C229.49 129.46 227.9 132.37 227.9 135.65C227.9 137.03 228.18 138.34 228.69 139.53C228.89 140.02 229.14 140.49 229.43 140.94C230.07 142.41 230.32 143.97 230.22 145.48C229.04 146.75 228.03 148.32 227.29 150.1C224.77 156.16 226.27 162.61 230.62 164.9H230.64L231.56 165.32L232.85 165.89C228.68 171.91 222.71 182.97 226.01 193.65V193.64Z" fill="#F8991D" stroke="#240F32" stroke-miterlimit="10"/>
<path d="M268.76 231.05C255.58 239.88 245.75 252.96 241.23 268.16C241.2 268.27 241.17 268.38 241.14 268.48C236.6 284.01 236.28 299.5 230.63 313.07C231.09 311.6 224.88 305.45 220.56 301.68C188.48 273.68 146.15 272.51 124.19 274.21C131.44 263.84 143.57 246.84 150.52 229.47C147.11 221.04 147.89 214.85 150.18 210.4C141.95 198.35 127.88 171.45 131.67 132.36C132.53 123.45 137.65 115.76 145 111.55H145.01C158.25 103.55 171 103.55 171 103.55C171.96 105.84 172.81 108.17 173.56 110.5C178.71 126.59 179.06 143.02 178.98 149.16C175.37 147.51 170.82 145.78 165.35 144.32C166.18 160.65 171.25 170.9 177.11 177.33C177.49 177.74 177.88 178.15 178.26 178.54C182.77 183.03 187.59 185.43 191.24 186.7C194.75 187.91 197.17 188.09 197.17 188.09C197.17 188.09 209.73 191.55 226.01 193.63C232.91 194.52 240.48 195.15 248.04 195.17C254.98 191.41 263.42 186.3 272.41 179.66C279.24 174.62 286.39 168.69 293.41 161.81C288.47 161.91 281.59 162.3 273.96 163.43C276.09 156.15 281.06 142.93 291.35 131.03C292.91 129.23 294.59 127.46 296.4 125.75C296.4 125.75 315.36 133.7 318.85 136.4C362.77 162.12 298.68 211.03 268.76 231.05Z" fill="white" stroke="#231F20" stroke-miterlimit="10"/>
<path d="M197.87 172.02C204.57 173.88 210.88 172.73 210.88 172.73" stroke="#231F20" stroke-miterlimit="10"/>
<path d="M247.22 121.57C246.97 125.02 245.62 131.53 240.32 142.16L239.76 141.91C236.54 141.08 232.92 142.52 230.21 145.46C230.31 143.95 230.06 142.39 229.42 140.92C229.32 140.68 229.21 140.44 229.08 140.2C228.95 139.97 228.82 139.73 228.67 139.51C228.16 138.32 227.88 137.01 227.88 135.63C227.88 132.35 229.48 129.45 231.93 127.65C231.09 127.73 230.24 127.77 229.39 127.77C219.58 127.77 210.86 122.54 205.31 114.42C203.77 112.16 202.47 109.69 201.47 107.05C200.27 103.9 199.47 100.49 199.18 96.9298C201.5 95.1498 205.82 92.5798 211.99 91.7598C227.24 89.7298 241.76 100.14 246.34 116.26C246.18 116.15 246.53 117.17 246.75 117.81C246.91 118.5 247.06 119.2 247.19 119.91C247.24 120.46 247.25 121 247.21 121.54L247.22 121.57Z" fill="#795CA7" stroke="#231F20" stroke-miterlimit="10"/>
<path d="M230.63 164.89L231.55 165.3C231.44 165.26 231.32 165.21 231.21 165.17C231.01 165.09 230.82 165 230.63 164.89Z" stroke="#231F20" stroke-miterlimit="10"/>
<path d="M242.75 143.22L241.94 142.87" stroke="#231F20" stroke-miterlimit="10"/>
<path d="M247.65 158.64C245.08 164.82 239.27 168.31 234.52 166.62L234.48 166.6L233.59 166.21H233.57C233.34 166.08 233.13 165.95 232.91 165.8C232.81 165.74 232.72 165.67 232.62 165.6C229.01 162.93 227.9 156.99 230.23 151.4C232.19 146.68 236.04 143.53 239.86 143.06C240.58 142.96 241.3 142.97 242.01 143.09C242.11 143.1 242.19 143.12 242.29 143.13C242.44 143.16 242.59 143.19 242.74 143.23L244.89 144.18C246.46 145.21 247.6 146.83 248.24 148.77C249.2 151.63 249.07 155.21 247.63 158.65L247.65 158.64Z" fill="#ED1C53" stroke="#231F20" stroke-miterlimit="10"/>
<path d="M234.48 166.59C234.38 166.56 234.28 166.52 234.18 166.48C233.98 166.4 233.79 166.31 233.6 166.21L234.49 166.6L234.48 166.59Z" stroke="#231F20" stroke-miterlimit="10"/>
<path d="M244.91 144.17L242.76 143.22C243.09 143.3 243.41 143.41 243.72 143.54C244.14 143.72 244.54 143.93 244.91 144.17Z" stroke="#231F20" stroke-miterlimit="10"/>
<path d="M242.3 143.12C242.2 143.1 242.12 143.09 242.02 143.08C241.51 143 240.99 142.97 240.48 143C240.37 143 240.27 143 240.16 143.02C240.06 143.02 239.96 143.03 239.87 143.05H239.86C239.76 143.06 239.66 143.08 239.57 143.09C239.22 143.14 238.88 143.22 238.54 143.32C238.41 143.36 238.28 143.4 238.15 143.44C237.66 143.6 237.17 143.81 236.69 144.06C236.58 144.12 236.46 144.17 236.35 144.24C236.24 144.3 236.14 144.35 236.04 144.42C235.74 144.6 235.44 144.8 235.14 145.02C235.03 145.1 234.92 145.18 234.82 145.27C234.41 145.59 234.02 145.93 233.64 146.3C233.48 146.46 233.31 146.63 233.15 146.81C233.15 146.81 233.15 146.81 233.14 146.82C232.96 147.02 232.77 147.23 232.6 147.45C232.45 147.63 232.3 147.82 232.17 148.02C232.09 148.11 232.03 148.2 231.97 148.29C231.97 148.29 231.96 148.3 231.96 148.31C231.83 148.49 231.71 148.68 231.59 148.87C231.56 148.9 231.55 148.93 231.53 148.95C231.38 149.2 231.23 149.44 231.09 149.7C230.95 149.95 230.82 150.19 230.69 150.45C230.68 150.47 230.67 150.49 230.66 150.52C230.52 150.8 230.39 151.09 230.27 151.39C227.94 156.98 229.05 162.92 232.66 165.59C232.3 165.52 231.94 165.43 231.6 165.3L230.68 164.89H230.66C226.31 162.59 224.81 156.14 227.33 150.08C228.07 148.3 229.08 146.74 230.26 145.46C232.98 142.51 236.59 141.08 239.81 141.91L240.37 142.16L241.97 142.86H241.99C241.99 142.86 242.09 142.94 242.13 142.97C242.21 143.02 242.28 143.07 242.35 143.13L242.3 143.12Z" fill="#CB1682" stroke="#231F20" stroke-miterlimit="10"/>
<path d="M252.84 138.46C251.7 141.47 250.24 144.91 248.25 148.75C247.5 150.21 246.67 151.73 245.77 153.32C245.17 154.37 244.54 155.44 243.88 156.54C243.25 157.57 242.6 158.63 241.91 159.72C239.55 162.7 236.42 161.3 236.42 161.3C234.63 159.51 234.52 157.94 235.01 156.15C235.12 155.76 235.25 155.38 235.41 155.01C235.66 154.39 235.97 153.79 236.32 153.22C236.65 152.69 236.97 152.17 237.28 151.65C237.93 150.57 238.53 149.53 239.11 148.51C240.19 146.6 241.16 144.79 242.02 143.07C242.04 143.03 242.06 142.99 242.08 142.96C242.08 142.96 242.08 142.94 242.09 142.93C242.19 142.73 242.29 142.54 242.38 142.34C242.48 142.14 242.57 141.95 242.67 141.76C242.86 141.37 243.04 140.99 243.21 140.61C243.34 140.32 243.48 140.03 243.61 139.75C243.8 139.33 243.98 138.92 244.16 138.51C244.25 138.31 244.34 138.12 244.41 137.93C244.51 137.7 244.6 137.48 244.7 137.26C244.8 137.03 244.9 136.8 244.99 136.58C245.1 136.31 245.21 136.04 245.31 135.78C245.51 135.29 245.69 134.81 245.86 134.34C246.03 133.87 246.2 133.41 246.35 132.96C246.43 132.73 246.51 132.51 246.58 132.29C246.66 132.07 246.73 131.85 246.79 131.64C246.86 131.42 246.93 131.21 246.99 131C247.06 130.78 247.12 130.58 247.18 130.37C247.24 130.16 247.3 129.96 247.36 129.76C247.45 129.44 247.54 129.13 247.61 128.82C247.63 128.74 247.65 128.67 247.67 128.59C247.7 128.48 247.73 128.36 247.76 128.25C247.82 128.03 247.87 127.81 247.92 127.58C248 127.24 248.07 126.9 248.14 126.57C248.17 126.4 248.2 126.24 248.24 126.09C248.27 125.92 248.3 125.75 248.34 125.58C248.43 125.08 248.5 124.59 248.57 124.12C248.6 123.97 248.61 123.82 248.63 123.67C248.64 123.59 248.65 123.51 248.66 123.44C248.69 123.21 248.71 122.99 248.73 122.77C248.73 122.74 248.73 122.72 248.73 122.69C248.74 122.57 248.75 122.46 248.76 122.34C248.78 122.09 248.79 121.83 248.76 121.58C248.76 121.49 248.75 121.4 248.74 121.3C248.74 121.26 248.74 121.21 248.73 121.17C248.73 121.09 248.72 121.02 248.7 120.94C248.69 120.84 248.67 120.73 248.66 120.62C248.65 120.55 248.63 120.48 248.62 120.41C248.58 120.23 248.54 120.04 248.5 119.87C248.5 119.83 248.48 119.79 248.47 119.76C248.43 119.58 248.37 119.39 248.32 119.22C248.32 119.2 248.31 119.18 248.3 119.16C248.24 118.96 248.18 118.77 248.11 118.58C248.04 118.38 247.96 118.18 247.88 117.98C247.82 117.83 247.76 117.68 247.69 117.54C247.63 117.39 247.56 117.25 247.49 117.12C247.7 117.28 250.03 121.17 252.06 124.62C254.22 128.27 254.77 132.68 253.46 136.72C253.27 137.31 253.06 137.91 252.84 138.5V138.46Z" fill="#EC2154" stroke="#251132" stroke-miterlimit="10"/>
<path d="M248.76 121.56C248.76 121.81 248.76 122.07 248.76 122.32C248.76 122.44 248.75 122.55 248.73 122.67C248.73 122.7 248.73 122.72 248.73 122.75C248.71 122.97 248.69 123.19 248.66 123.42C248.63 123.64 248.6 123.88 248.57 124.1C248.51 124.57 248.43 125.06 248.34 125.56C248.28 125.88 248.22 126.21 248.15 126.54C248.08 126.88 248.01 127.22 247.93 127.56C247.85 127.89 247.77 128.23 247.68 128.57C247.66 128.65 247.64 128.72 247.62 128.8C247.54 129.11 247.46 129.42 247.37 129.74C247.31 129.94 247.26 130.15 247.19 130.35C247.13 130.56 247.07 130.77 247 130.98C246.94 131.19 246.87 131.4 246.8 131.62C246.74 131.84 246.67 132.05 246.59 132.27C246.52 132.49 246.44 132.71 246.36 132.94C246.2 133.39 246.04 133.85 245.87 134.32C245.69 134.79 245.51 135.27 245.32 135.76C245.21 136.03 245.11 136.3 245 136.56C244.91 136.79 244.82 137.01 244.71 137.24C244.62 137.46 244.52 137.68 244.42 137.91C244.34 138.1 244.26 138.3 244.17 138.49C243.99 138.9 243.81 139.31 243.62 139.73C243.49 140.02 243.35 140.3 243.22 140.59C243.05 140.97 242.87 141.35 242.68 141.74C242.58 141.93 242.5 142.13 242.39 142.32C242.29 142.52 242.2 142.71 242.1 142.91C242.1 142.91 242.1 142.93 242.09 142.94C242.07 142.98 242.05 143.02 242.03 143.05C241.17 144.77 240.2 146.58 239.12 148.49C238.54 149.51 237.94 150.56 237.29 151.63C236.98 152.15 236.66 152.67 236.33 153.2C235.98 153.77 235.66 154.37 235.42 154.98C235.26 155.36 235.13 155.74 235.02 156.13C234.53 157.92 234.64 159.49 236.43 161.28L236.03 161.11H236.02C235.84 161.01 235.67 160.9 235.5 160.77C234.51 160.04 233.87 158.85 233.63 157.46C233.41 156.19 233.54 154.76 234.06 153.35C234.68 152.36 235.27 151.39 235.83 150.45C237.38 147.78 238.72 145.31 239.88 143.02C240.03 142.72 240.18 142.42 240.33 142.13C245.63 131.51 246.98 124.99 247.23 121.54C247.27 121 247.26 120.46 247.21 119.92C247.15 119.19 246.51 116.76 246.36 116.25C246.54 116.38 246.74 116.51 246.94 116.65C247.12 116.78 247.31 116.92 247.5 117.06C247.57 117.2 247.64 117.34 247.7 117.48C247.77 117.63 247.83 117.77 247.89 117.92C247.97 118.12 248.05 118.31 248.12 118.52C248.19 118.71 248.25 118.9 248.31 119.1C248.31 119.12 248.32 119.14 248.33 119.16C248.38 119.34 248.43 119.52 248.48 119.7C248.48 119.74 248.5 119.78 248.51 119.81C248.55 119.99 248.59 120.17 248.63 120.35C248.64 120.42 248.66 120.49 248.67 120.56C248.69 120.67 248.7 120.78 248.71 120.88C248.72 120.96 248.73 121.04 248.74 121.11C248.74 121.15 248.75 121.2 248.75 121.24C248.75 121.34 248.76 121.43 248.77 121.52L248.76 121.56Z" fill="#CB1682" stroke="#231F20" stroke-miterlimit="10"/>
<path d="M248.31 119.13C248.25 118.93 248.19 118.74 248.12 118.55" stroke="#231F20" stroke-miterlimit="10"/>
<path d="M248.62 120.39C248.58 120.21 248.54 120.02 248.5 119.85" stroke="#231F20" stroke-miterlimit="10"/>
<path d="M247 130.99C246.94 131.2 246.87 131.41 246.8 131.63" stroke="#231F20" stroke-miterlimit="10"/>
<path d="M245.86 134.33C245.69 134.8 245.51 135.28 245.31 135.77" stroke="#231F20" stroke-miterlimit="10"/>
<path d="M243.61 139.75C243.48 140.04 243.35 140.32 243.21 140.61" stroke="#231F20" stroke-miterlimit="10"/>
<path d="M242.67 141.77C242.57 141.96 242.48 142.16 242.38 142.35" stroke="#231F20" stroke-miterlimit="10"/>
<path d="M235.68 154.28C235.58 154.53 235.49 154.78 235.42 155.01" stroke="#231F20" stroke-miterlimit="10"/>
<path d="M236.42 161.31C235.26 159.97 234.18 158.71 235.41 155.02" stroke="#231F20" stroke-miterlimit="10"/>
<path d="M205.33 114.43C202.75 115.45 199.27 117.38 196.37 120.94C195.91 121.5 195.46 122.12 195.03 122.77C194.92 122.93 194.81 123.1 194.71 123.27C194.6 123.44 194.5 123.61 194.4 123.79C194.29 123.96 194.2 124.14 194.1 124.32C194 124.5 193.9 124.68 193.81 124.87C193.7 125.08 193.59 125.29 193.49 125.52C193.38 125.74 193.28 125.96 193.19 126.19C193.09 126.42 192.99 126.65 192.9 126.88C192.42 128.05 192.02 129.33 191.69 130.7C191.15 132.99 190.48 135.24 189.75 137.39C188.36 141.48 186.71 145.26 185.12 148.49C184.9 148.93 184.71 149.38 184.54 149.84C183.13 142.29 184.17 137.8 185.74 135.16C184.82 133.84 184.2 132.27 184.02 130.56C183.52 125.8 186.48 121.48 190.89 120.09C190.62 119.3 190.44 118.46 190.38 117.59C190.35 117.35 190.35 117.11 190.35 116.86C190.35 111.4 194.77 106.98 200.23 106.98C200.66 106.98 201.09 107.01 201.5 107.06C202.5 109.7 203.8 112.17 205.34 114.43H205.33Z" fill="#6B3293" stroke="#231F20" stroke-miterlimit="10"/>
<path d="M192.07 122.44C191.58 121.72 191.18 120.93 190.89 120.09" stroke="#231F20" stroke-miterlimit="10"/>
<path d="M261.74 150.37C261.31 150.89 260.84 151.36 260.34 151.79" stroke="#231F20" stroke-miterlimit="10"/>
<path d="M262.44 169.26C261.79 169.89 261.09 170.43 260.34 170.9" stroke="#231F20" stroke-miterlimit="10"/>
<path d="M229.61 141.21C229.55 141.11 229.48 141.02 229.43 140.92" stroke="#231F20" stroke-miterlimit="10"/>
<path d="M187.27 133.2C186.75 133.7 186.22 134.34 185.74 135.15" stroke="#231F20" stroke-miterlimit="10"/>
<path d="M191.24 186.7C187.59 185.43 182.77 183.03 178.26 178.54C177.88 178.15 177.49 177.74 177.11 177.33C177.97 176.04 179.09 174.94 180.4 174.11C183.73 171.97 186.01 168.44 186.59 164.52V164.42C189.62 168.67 193.82 170.89 197.87 172.02C198.21 175.44 197.59 181.26 191.24 186.7Z" fill="#6B3293" stroke="#231F20" stroke-miterlimit="10"/>
<path d="M184.02 130.55C184.2 132.26 184.81 133.83 185.74 135.15C184.18 137.8 183.14 142.28 184.54 149.83C184.31 150.43 184.12 151.03 183.97 151.65C182.58 150.88 180.91 150.03 178.98 149.15C179.06 143.01 178.71 126.59 173.56 110.5C178.56 112.01 184.15 114.31 190.39 117.59C190.45 118.46 190.62 119.29 190.9 120.09C186.5 121.47 183.53 125.8 184.03 130.56L184.02 130.55Z" fill="#F8991D" stroke="#240F32" stroke-miterlimit="10"/>
<path d="M145 111.55C144.76 111.69 144.52 111.84 144.28 111.99" stroke="#231F20" stroke-miterlimit="10"/>
<path d="M303.01 151.67C299.86 155.26 296.64 158.64 293.41 161.81" stroke="#231F20" stroke-miterlimit="10"/>
<path d="M248.04 195.17C237.35 200.96 230.24 203.54 230.24 203.54" stroke="#231F20" stroke-miterlimit="10"/>
<path d="M291.35 131.03C281.06 142.93 276.09 156.15 273.95 163.43C271.16 163.84 268.28 164.35 265.35 164.98C267.46 159.92 266.07 153.94 261.73 150.37C261.97 150.08 262.21 149.79 262.42 149.48C265.23 145.49 265.42 140.43 263.34 136.37C274.25 132.74 283.6 131.29 291.34 131.04L291.35 131.03Z" fill="#F8991D" stroke="#240F32" stroke-miterlimit="10"/>
<path d="M124.19 274.21C122.64 276.38 121.04 278.56 119.39 280.73" stroke="#231F20" stroke-miterlimit="10"/>
<path d="M220.55 301.69C224.19 304.87 229.34 309.7 230.66 312.02C230.96 312.54 230.71 313.2 230.15 313.41C226.46 314.83 221.79 314.99 217.04 314.8L220.55 301.69Z" fill="#795CA7" stroke="#231F20" stroke-miterlimit="10"/>
<path d="M217.04 314.8L215.01 322.4" stroke="#231F20" stroke-miterlimit="10"/>
<path d="M208.58 135.92L210.88 132.05C210.88 132.05 221.76 133.27 222.38 138.65L221.14 141.69C221.14 141.69 219.14 137.84 214.58 136.87C210.02 135.9 208.59 135.93 208.59 135.93L208.58 135.92Z" fill="#231F20"/>
<path d="M192.45 128.48C192.82 128.63 193.16 128.87 193.56 129.01C196.36 130 198.7 132.23 198.7 132.23L199.52 127.8C199.52 127.8 198.02 126.15 193.83 124.88L192.46 128.48H192.45Z" fill="#231F20"/>
<path d="M199.67 138.64C199.67 138.64 199.6 141.96 195.98 145.53C193.67 147.8 198.05 149.99 198.05 149.99" stroke="#231F20" stroke-miterlimit="10"/>
<path d="M190.96 149.71C190.96 149.71 194.01 157.96 207.95 155.74" stroke="#231F20" stroke-miterlimit="10"/>
<path d="M207.06 143.7C207.06 143.7 210.96 147.36 215.47 146.37" stroke="#231F20" stroke-miterlimit="10"/>
<path d="M194.95 140.18C194.95 140.18 190.54 139.45 189.75 137.39" stroke="#231F20" stroke-miterlimit="10"/>
<path d="M215.01 154.03C216.247 154.03 217.25 153.027 217.25 151.79C217.25 150.553 216.247 149.55 215.01 149.55C213.773 149.55 212.77 150.553 212.77 151.79C212.77 153.027 213.773 154.03 215.01 154.03Z" fill="#E15E26"/>
<path d="M187.53 144.31C187.89 144.55 187.99 144.66 188.45 144.66C189.69 144.66 190.42 143.63 190.69 142.42C190.96 141.21 190.36 140.33 189.24 140.33L187.53 144.31Z" fill="#E15E26"/>
<path d="M165.35 144.32L152.4 123.29" stroke="#231F20" stroke-miterlimit="10"/>
<path d="M164.59 195.63C163.743 197.343 162.92 198.937 162.12 200.41C162.12 200.41 153.17 203.01 150.19 210.39" fill="white"/>
<path d="M164.59 195.63C163.743 197.343 162.92 198.937 162.12 200.41C162.12 200.41 153.17 203.01 150.19 210.39" stroke="#231F20" stroke-miterlimit="10"/>
<mask id="mask2_1961_252" style="mask-type:luminance" maskUnits="userSpaceOnUse" x="124" y="103" width="210" height="211">
<path d="M268.76 231.05C255.58 239.88 245.75 252.96 241.23 268.16C241.2 268.27 241.17 268.38 241.14 268.48C236.6 284.01 236.28 299.5 230.63 313.07C231.09 311.6 224.88 305.45 220.56 301.68C188.48 273.68 146.15 272.51 124.19 274.21C131.44 263.84 143.57 246.84 150.52 229.47C147.11 221.04 147.89 214.85 150.18 210.4C141.95 198.35 127.88 171.45 131.67 132.36C132.53 123.45 137.65 115.76 145 111.55H145.01C158.25 103.55 171 103.55 171 103.55C171.96 105.84 172.81 108.17 173.56 110.5C178.71 126.59 179.06 143.02 178.98 149.16C175.37 147.51 170.82 145.78 165.35 144.32C166.18 160.65 171.25 170.9 177.11 177.33C177.49 177.74 177.88 178.15 178.26 178.54C182.77 183.03 187.59 185.43 191.24 186.7C194.75 187.91 197.17 188.09 197.17 188.09C197.17 188.09 209.73 191.55 226.01 193.63C232.91 194.52 240.48 195.15 248.04 195.17C254.98 191.41 263.42 186.3 272.41 179.66C279.24 174.62 286.39 168.69 293.41 161.81C288.47 161.91 281.59 162.3 273.96 163.43C276.09 156.15 281.06 142.93 291.35 131.03C292.91 129.23 294.59 127.46 296.4 125.75C296.4 125.75 315.36 133.7 318.85 136.4C362.77 162.12 298.68 211.03 268.76 231.05Z" fill="white"/>
</mask>
<g mask="url(#mask2_1961_252)">
<path d="M164.997 168.906L176.651 170.938C178.104 171.191 179.487 170.219 179.74 168.766L181.772 157.112C182.025 155.659 181.053 154.276 179.6 154.023L167.946 151.991C166.494 151.738 165.111 152.71 164.857 154.163L162.825 165.817C162.572 167.27 163.545 168.652 164.997 168.906Z" stroke="#ED1C53" stroke-miterlimit="10"/>
<path d="M226.189 260.053L233.726 280.178C234.545 282.366 236.983 283.475 239.171 282.656L259.296 275.119C261.484 274.3 262.593 271.862 261.774 269.674L254.237 249.549C253.418 247.361 250.98 246.252 248.793 247.071L228.667 254.608C226.48 255.427 225.37 257.865 226.189 260.053Z" stroke="#ED1C53" stroke-miterlimit="10"/>
<path d="M294.141 139.52L297.766 141.138C298.931 141.658 300.297 141.135 300.817 139.97L302.435 136.344C302.955 135.179 302.432 133.813 301.267 133.293L297.642 131.675C296.477 131.156 295.111 131.678 294.591 132.843L292.973 136.469C292.453 137.634 292.976 139 294.141 139.52Z" stroke="#ED1C53" stroke-miterlimit="10"/>
<path d="M164.032 240.297L165.664 245.894C165.764 246.238 166.125 246.436 166.47 246.336L172.067 244.703C172.411 244.603 172.609 244.242 172.509 243.897L170.876 238.3C170.776 237.956 170.415 237.758 170.07 237.859L164.474 239.491C164.129 239.591 163.931 239.952 164.032 240.297Z" stroke="#ED1C53" stroke-miterlimit="10"/>
<path d="M245.3 179.585L246.137 182.456C246.238 182.8 246.599 182.998 246.943 182.898L249.814 182.061C250.158 181.96 250.356 181.599 250.256 181.255L249.419 178.384C249.318 178.04 248.957 177.842 248.613 177.942L245.742 178.779C245.398 178.88 245.2 179.241 245.3 179.585Z" stroke="#ED1C53" stroke-miterlimit="10"/>
<path d="M122.984 125.164L127.596 136.426C128.08 137.606 129.429 138.172 130.609 137.688L141.872 133.076C143.052 132.592 143.617 131.244 143.134 130.063L138.522 118.801C138.038 117.62 136.689 117.055 135.509 117.538L124.246 122.151C123.066 122.634 122.501 123.983 122.984 125.164Z" stroke="#ED1C53" stroke-miterlimit="10"/>
<path d="M284.893 178.416L279.933 189.529C279.413 190.694 279.936 192.06 281.101 192.58L292.214 197.54C293.379 198.06 294.745 197.537 295.265 196.372L300.225 185.258C300.745 184.093 300.222 182.727 299.057 182.207L287.943 177.248C286.778 176.728 285.412 177.251 284.893 178.416Z" stroke="#ED1C53" stroke-miterlimit="10"/>
<path d="M206.801 213.89L209.205 217.05C209.978 218.065 211.427 218.262 212.442 217.489L215.602 215.085C216.617 214.312 216.813 212.863 216.041 211.848L213.637 208.689C212.864 207.673 211.415 207.477 210.4 208.249L207.24 210.653C206.225 211.426 206.028 212.875 206.801 213.89Z" stroke="#ED1C53" stroke-miterlimit="10"/>
</g>
<path d="M280.48 96.5799L284.09 96.0299L280.48 95.4799C278.03 95.1099 276.11 93.1899 275.74 90.7399L274.78 84.3999L273.82 90.7399C273.45 93.1899 271.53 95.1099 269.08 95.4799L265.47 96.0299L269.08 96.5799C271.53 96.9499 273.45 98.8699 273.82 101.32L274.78 107.66L275.74 101.32C276.11 98.8699 278.03 96.9499 280.48 96.5799Z" fill="#FFCE06" stroke="#231F20" stroke-linecap="round" stroke-linejoin="round"/>
<path d="M114 237.57L111.67 240.61C106.53 247.34 93.49 246.01 82.54 237.64C71.59 229.27 66.8801 217.04 72.0201 210.31L75.2401 206.09C74.6901 206.81 74.25 207.58 73.93 208.42C72.98 210.8 72.9301 213.62 73.6501 216.59C75.0501 222.27 79.3201 228.51 85.7501 233.42C92.1701 238.32 99.3101 240.81 105.15 240.67C108.2 240.6 110.9 239.82 112.96 238.29C113.28 238.05 113.6 237.79 113.89 237.51L113.99 237.57H114Z" fill="#F8991D" stroke="#231F20" stroke-miterlimit="10"/>
<path d="M79.1699 207.17C79.6299 206.75 80.1399 206.39 80.6799 206.08C85.9899 203.05 95.15 204.81 103.03 210.83C103.42 211.13 103.8 211.43 104.17 211.74C103.8 211.43 103.42 211.12 103.04 210.82C95.2099 204.76 86.1999 202.85 81.0499 205.73C80.3499 206.12 79.7099 206.6 79.1699 207.17ZM108.99 216.67C112.86 221.6 114.57 227 113.48 231.17C113.2 232.28 112.72 233.29 112.03 234.19C111.84 234.45 111.63 234.69 111.4 234.91C111.73 234.62 112.04 234.28 112.31 233.92C112.97 233.05 113.41 232.06 113.67 230.98C114.66 226.91 112.88 221.58 108.99 216.66V216.67Z" fill="#FFCE06" stroke="#231F20" stroke-miterlimit="10"/>
<path d="M73.67 216.59C75.07 222.27 79.3401 228.51 85.7701 233.42C92.1901 238.32 99.33 240.82 105.17 240.68C108.23 240.61 110.92 239.83 112.98 238.29C113.3 238.06 113.62 237.79 113.9 237.51C114.26 237.16 114.59 236.8 114.9 236.39C115.93 235.05 116.57 233.48 116.83 231.76C117.9 224.92 113.13 215.75 104.39 209.07C93.4301 200.7 80.4 199.37 75.26 206.09C75.2 206.18 75.13 206.28 75.06 206.36C74.6 207 74.24 207.69 73.96 208.42C73 210.81 72.95 213.62 73.68 216.59H73.67ZM111.4 234.91C111.2 235.1 110.99 235.27 110.77 235.43C105.83 239.14 96.18 237.39 87.85 230.95C79.51 224.5 75.32 215.54 77.55 209.74C77.81 209.06 78.15 208.42 78.6 207.83C78.77 207.61 78.94 207.4 79.13 207.2C79.13 207.18 79.15 207.17 79.18 207.15C79.73 206.58 80.36 206.1 81.06 205.71C86.21 202.83 95.22 204.74 103.05 210.8C103.44 211.1 103.81 211.4 104.18 211.72C104.92 212.34 105.62 212.97 106.28 213.63L106.59 213.94C107.11 214.46 107.6 214.99 108.06 215.53C108.2 215.68 108.33 215.83 108.45 215.98C108.64 216.2 108.82 216.42 108.99 216.65C112.88 221.56 114.66 226.9 113.67 230.97C113.41 232.06 112.97 233.05 112.31 233.91C112.04 234.27 111.73 234.61 111.4 234.9V234.91Z" fill="#FFCE06" stroke="#231F20" stroke-miterlimit="10"/>
<path d="M87.85 230.96C96.18 237.4 105.84 239.15 110.77 235.44C110.99 235.28 111.2 235.11 111.4 234.92C111.73 234.63 112.04 234.29 112.31 233.93C112.97 233.06 113.41 232.07 113.67 230.99C114.66 226.92 112.88 221.59 108.99 216.67C108.82 216.44 108.64 216.22 108.45 216C108.32 215.85 108.2 215.7 108.06 215.55C107.6 215.01 107.11 214.48 106.59 213.96L106.28 213.65C105.62 213 104.92 212.36 104.18 211.74C103.81 211.43 103.43 211.12 103.05 210.82C95.22 204.76 86.21 202.85 81.06 205.73C80.36 206.12 79.72 206.6 79.18 207.17C79.16 207.19 79.14 207.2 79.13 207.22C78.94 207.42 78.77 207.63 78.6 207.85C78.16 208.44 77.81 209.08 77.55 209.76C75.32 215.56 79.51 224.52 87.85 230.97V230.96Z" fill="#FFCE06" stroke="#231F20" stroke-miterlimit="10"/>
<path d="M89.79 215.69L96.9401 214.93C97.7001 214.85 98.5201 215.39 98.7601 216.14L101.08 223.17C101.33 223.92 100.91 224.59 100.15 224.67L93.0001 225.43C92.2401 225.51 91.4201 224.97 91.1801 224.22L88.8601 217.19C88.6101 216.44 89.03 215.77 89.79 215.69Z" fill="white"/>
<path d="M286.44 289.23L289.69 292.04C296.87 298.25 310.89 293.82 321 282.13C331.11 270.44 333.49 255.93 326.31 249.71L321.8 245.81C322.57 246.47 323.22 247.23 323.77 248.07C325.36 250.47 326.06 253.55 325.94 256.98C325.7 263.54 322.43 271.37 316.5 278.23C310.57 285.08 303.29 289.45 296.85 290.62C293.48 291.24 290.34 291 287.73 289.78C287.32 289.59 286.92 289.37 286.53 289.13L286.44 289.22V289.23Z" fill="#F8991D" stroke="#231F20" stroke-miterlimit="10"/>
<path d="M315.35 246.74C309.04 244.75 299.58 248.9 292.36 257.35C292 257.77 291.66 258.19 291.32 258.62C291.66 258.2 292 257.78 292.37 257.36C299.65 248.95 309.31 244.93 315.84 247.04C316.51 247.25 317.15 247.53 317.75 247.89C317.02 247.39 316.21 247 315.35 246.74ZM285.29 281.93C285.82 283.06 286.53 284.05 287.46 284.85C287.84 285.19 288.26 285.49 288.68 285.73C288.38 285.53 288.1 285.32 287.83 285.08C286.86 284.25 286.11 283.24 285.55 282.09C283.4 277.75 284.04 271.44 287.17 265.14C284.02 271.43 283.28 277.69 285.3 281.93H285.29Z" fill="#FFCE06" stroke="#231F20" stroke-miterlimit="10"/>
<path d="M323.77 248.07C323.29 247.33 322.74 246.66 322.09 246.06C321.99 245.98 321.9 245.89 321.81 245.81C314.63 239.6 300.61 244.04 290.49 255.73C282.41 265.07 279.27 276.23 282 283.49C282.68 285.32 283.74 286.9 285.18 288.14C285.61 288.52 286.05 288.84 286.53 289.14C286.91 289.38 287.32 289.6 287.72 289.79C290.33 291.01 293.47 291.25 296.84 290.63C303.29 289.46 310.56 285.08 316.49 278.23C322.43 271.37 325.69 263.54 325.93 256.99C326.05 253.56 325.35 250.48 323.75 248.08L323.77 248.07ZM287.46 284.84C286.54 284.04 285.83 283.05 285.29 281.92C283.27 277.68 284.01 271.41 287.16 265.13C287.29 264.84 287.44 264.56 287.6 264.27C287.7 264.07 287.81 263.89 287.92 263.69C288.3 262.99 288.72 262.3 289.17 261.6L289.44 261.18C290.02 260.31 290.64 259.46 291.31 258.61C291.64 258.18 291.99 257.76 292.35 257.34C299.57 248.89 309.03 244.74 315.34 246.73C316.2 246.99 317 247.38 317.74 247.88C317.77 247.89 317.79 247.91 317.8 247.92C318.06 248.1 318.29 248.29 318.53 248.49C319.15 249.03 319.68 249.66 320.11 250.34C323.88 256.2 321.32 267 313.64 275.99C305.96 284.97 295.76 289.09 289.49 286.15C289.21 286.02 288.95 285.89 288.68 285.72C288.25 285.48 287.84 285.18 287.46 284.84Z" fill="#FFCE06" stroke="#231F20" stroke-miterlimit="10"/>
<path d="M313.65 276C305.97 284.98 295.77 289.1 289.5 286.16C289.22 286.03 288.96 285.9 288.69 285.73C288.26 285.49 287.85 285.19 287.47 284.85C286.55 284.05 285.84 283.06 285.3 281.93C283.28 277.69 284.02 271.42 287.17 265.14C287.3 264.85 287.45 264.57 287.61 264.28C287.72 264.08 287.82 263.9 287.93 263.7C288.31 263 288.73 262.31 289.18 261.61L289.45 261.19C290.03 260.32 290.65 259.47 291.32 258.62C291.65 258.19 292 257.77 292.36 257.35C299.58 248.9 309.04 244.75 315.35 246.74C316.21 247 317.01 247.39 317.75 247.89C317.78 247.9 317.8 247.92 317.81 247.93C318.07 248.11 318.3 248.3 318.54 248.5C319.16 249.04 319.69 249.67 320.12 250.35C323.89 256.21 321.33 267.01 313.65 276Z" fill="#FFCE06" stroke="#231F20" stroke-miterlimit="10"/>
<path d="M308.03 259.68L300 260.48C299.15 260.56 298.37 261.34 298.27 262.22L297.33 270.47C297.23 271.35 297.84 271.99 298.69 271.91L306.72 271.11C307.57 271.03 308.35 270.25 308.45 269.37L309.39 261.12C309.49 260.24 308.88 259.6 308.03 259.68Z" fill="white"/>
</svg>
