<svg width="132" height="146" fill="none" xmlns="http://www.w3.org/2000/svg">
<mask id="mask0_3720_7630" style="mask-type:luminance" maskUnits="userSpaceOnUse" x="11" y="17" width="111" height="119">
<path d="M13.4205 42.01L64.4908 17.5647C65.6565 17.0129 67.0002 17.0129 68.166 17.5647L119.236 42.01C120.713 42.713 121.657 44.208 121.657 45.8454V58.4196C121.657 89.5569 103.788 117.918 75.7032 131.364L68.166 134.968C67.0002 135.52 65.6565 135.52 64.4908 134.968L56.9535 131.364C28.8688 117.927 11 89.5569 11 58.4196V45.8454C11 44.208 11.9433 42.713 13.4205 42.01Z" fill="white"/>
</mask>
<g mask="url(#mask0_3720_7630)">
<path d="M37.9269 76.271H-1.20117" stroke="#30CE95" stroke-width="0.445915" stroke-miterlimit="10"/>
<path d="M133.048 76.2711H94.9883" stroke="#30CE95" stroke-width="0.445915" stroke-miterlimit="10"/>
<path d="M43.6674 54.0146L18.457 28.813" stroke="#30CE95" stroke-width="0.445915" stroke-miterlimit="10"/>
<path d="M113.389 123.738L105.042 115.399" stroke="#B994F8" stroke-width="0.445915" stroke-miterlimit="10"/>
<path d="M92.3262 49.8678L113.389 28.813" stroke="#30CE95" stroke-width="0.445915" stroke-miterlimit="10"/>
<path d="M18.457 123.738L29.1534 113.042" stroke="#B994F8" stroke-width="0.445915" stroke-miterlimit="10"/>
<path d="M65.9229 22.6996V9.14648" stroke="#30CE95" stroke-width="0.445915" stroke-miterlimit="10"/>
<path d="M65.9229 143.395V122.038" stroke="#30CE95" stroke-width="0.445915" stroke-miterlimit="10"/>
<path d="M92.6817 87.635C91.3115 86.7629 89.2288 86.5227 87.129 87.1367C85.4917 87.6172 84.1481 88.516 83.3114 89.5927C82.4926 90.6426 82.1456 91.844 82.4748 92.965C82.4748 92.965 82.0743 92.494 80.4459 87.5638C80.3747 87.3503 80.3034 87.1278 80.2234 86.9053C80.4815 86.754 80.7306 86.6027 80.962 86.4514C81.2112 86.3002 81.3713 86.0777 81.4514 85.8374C81.5315 85.6149 81.5405 85.3747 81.4781 85.1522C81.4425 85.0098 81.3891 84.8852 81.3002 84.7695C81.1756 84.5916 81.0065 84.4492 80.7751 84.3602H80.7573C80.259 84.1555 79.7429 83.9686 79.2267 83.7907C79.2178 83.7462 79.2089 83.7907 79.2089 83.7907C75.0354 82.3668 70.3724 81.7973 66.3056 81.6283C65.665 81.646 65.0332 81.6905 64.8196 81.7084C64.7661 81.7084 64.7394 81.7084 64.7394 81.7084C61.0732 81.9575 53.3846 83.7551 53.3757 83.7996C52.8595 83.9776 52.3434 84.1644 51.8451 84.3691H51.8273C51.5959 84.4581 51.4179 84.6094 51.3022 84.7962C51.2222 84.9119 51.1687 85.0365 51.1332 85.17C51.0798 85.4013 51.0798 85.6327 51.1598 85.8552C51.24 86.0955 51.4001 86.318 51.6493 86.4692C51.8895 86.6206 52.1387 86.7718 52.3968 86.9231C52.3167 87.1545 52.2455 87.377 52.1744 87.5905C50.5458 92.5206 50.1454 92.9924 50.1454 92.9924C50.4747 91.8706 50.1276 90.6691 49.3089 89.6195C48.4724 88.5516 47.1287 87.6439 45.4914 87.1634C43.3823 86.5493 41.3089 86.7896 39.9385 87.6617C41.389 84.7073 42.5369 81.824 43.3734 79.4836C44.2366 77.4191 45.4201 69.0719 46.8262 65.2365C47.3868 63.7147 48.2233 62.3354 49.2911 61.1696C50.5904 59.7369 52.2366 58.6157 54.0965 57.9305C56.3834 57.094 58.0653 56.2397 59.3022 55.4387C59.8629 55.9994 60.5837 56.6223 61.438 57.1206C62.3991 57.6813 63.5292 58.0817 64.7661 58.0728C65.8073 58.0728 66.9285 57.7703 68.0943 57.0406C68.9219 56.5244 69.7851 55.7858 70.6572 54.7803C71.7695 55.2964 74.6972 55.8926 77.18 56.3465C80.5348 56.9516 83.4356 59.0606 84.9839 62.1041C85.0018 62.1307 85.0113 62.1574 85.0284 62.1842C86.7993 65.6814 87.2267 75.3456 89.2734 79.4836C90.11 81.833 91.2575 84.7073 92.7176 87.6706L92.6817 87.635Z" fill="white" stroke="#2E054E" stroke-width="0.445915" stroke-miterlimit="10"/>
<path d="M74.3069 42.464C74.3069 44.7687 72.5272 44.9557 72.5272 44.9557L71.833 44.8043C71.833 44.8043 71.2101 47.8745 68.7719 49.7788C68.7006 50.0458 68.6384 50.3484 68.5672 50.6865C68.2379 52.3417 69.0655 54.0236 70.5961 54.7355L70.6317 54.7533C69.7596 55.7589 68.8965 56.4975 68.0688 57.0136C66.8942 57.7433 65.7729 58.0459 64.7407 58.0459C63.4948 58.0459 62.3736 57.6455 61.4125 57.0937C60.5582 56.5954 59.8285 55.9725 59.2769 55.4119C59.3569 55.3584 59.4281 55.3139 59.4993 55.2606C60.6917 54.4508 61.3057 53.0269 61.0833 51.6031C61.0121 51.1759 60.9409 50.7844 60.8697 50.4462C57.8441 48.7822 57.2034 45.1692 57.2034 45.1692H56.7852C56.7852 45.1692 55.308 44.6975 55.1745 42.5974C55.1745 42.5974 55.1745 42.5796 55.1745 42.5707C55.1033 41.3071 55.6283 40.871 56.1088 40.7375C56.5093 40.6307 56.9364 40.8087 57.1856 41.1469L57.9509 42.2148C57.9509 42.2148 59.0277 41.8588 58.2534 39.5629C58.2268 39.4739 58.2001 39.3849 58.1734 39.3048C57.8975 38.1569 58.565 37.0356 59.6506 36.555C60.3981 36.2258 60.9498 35.5317 61.0744 34.6952C62.3292 35.7453 63.9665 36.3771 65.773 36.3771C67.2412 36.3771 68.6027 35.9588 69.733 35.238C69.6706 35.416 69.6351 35.6118 69.6351 35.8164C69.6351 36.297 69.8309 36.733 70.1423 37.0445C70.2757 37.2225 70.4716 37.4094 70.7563 37.6051C71.833 38.3348 71.219 40.1235 70.8986 40.8621C70.7741 41.1558 70.7207 41.4851 70.783 41.8054C70.8453 42.1347 70.9966 42.4906 71.3703 42.6152L72.2068 41.3071C72.4648 40.9066 72.9454 40.6753 73.4081 40.7998C73.862 40.9244 74.3158 41.3337 74.3158 42.4817L74.3069 42.464Z" fill="#F7981D" stroke="#240E32" stroke-width="0.445915" stroke-miterlimit="10"/>
<path d="M102.524 115.533C99.401 118.309 93.5717 120.721 82.7243 119.235C74.751 118.14 69.6964 117.954 66.84 118.185C66.84 118.185 66.837 118.179 66.8311 118.167C67.9078 115.826 68.6553 113.575 69.1536 111.466C69.3138 110.799 69.4473 110.149 69.5541 109.508C70.4172 104.533 69.9456 100.476 69.4028 97.9754C73.8344 99.0253 79.7076 100.316 83.4984 100.805C86.8622 98.9277 89.8791 97.6012 90.7064 97.2458C90.8579 97.1747 90.9376 97.1473 90.9376 97.1473C98.155 97.7614 102.035 101.063 104.108 104.551C106.244 108.129 105.657 112.766 102.542 115.533H102.524Z" fill="#6B3192" stroke="#2E054E" stroke-width="0.445915" stroke-miterlimit="10"/>
<path d="M62.0156 107.186L60.8409 114.634L60.0756 119.484C58.3314 119.226 55.1901 119.066 50.367 119.875C48.0978 120.258 34.4114 124.013 28.7251 116.904C26.3491 113.94 26.1444 109.82 27.9065 106.448C29.882 102.665 33.7796 98.9989 41.2636 97.3256C41.8241 97.192 42.4026 97.2014 42.9632 97.3256C44.7429 97.7084 48.9343 98.8208 52.9032 101.41C53.4638 101.775 54.1401 102.221 54.9143 102.71C56.8453 103.956 59.3548 105.548 62.0067 107.186H62.0156Z" fill="#6B3192" stroke="#2E054E" stroke-width="0.445915" stroke-miterlimit="10"/>
<path d="M37.2959 108.209C37.2959 108.209 39.227 104.614 47.2092 103.902C49.9589 103.653 52.6285 103.27 54.9244 102.701" stroke="#2E054E" stroke-width="0.445915" stroke-miterlimit="10"/>
<path d="M69.5448 109.518C69.438 110.149 69.3046 110.807 69.1444 111.475C68.6728 111.208 68.2011 110.923 67.7117 110.639C67.6761 110.612 67.6405 110.594 67.6049 110.576C65.7806 109.5 63.8585 108.334 62.0164 107.194C59.3735 105.557 56.8552 103.964 54.9241 102.719C54.1499 102.221 53.4736 101.784 52.9129 101.419C50.6794 99.9597 48.3835 98.9724 46.4702 98.3138C46.1498 98.2068 45.8473 98.1091 45.5537 98.0106C45.1799 97.895 44.8329 97.7974 44.5125 97.7084C43.8985 97.5397 43.3735 97.4146 42.973 97.3256C42.9018 97.3076 42.8395 97.299 42.7683 97.281C42.2699 97.2014 41.7716 97.21 41.2822 97.3256C41.7805 94.0602 44.6193 95.0031 44.6193 95.0031C44.815 94.6383 45.1532 94.3976 45.5893 94.2375C45.9541 94.1048 46.3901 94.0328 46.8617 94.0157C46.9952 94.0157 47.1377 94.0157 47.2889 94.0157C48.1432 94.0157 49.0865 94.1579 49.9764 94.336C50.5815 94.4602 51.1955 94.5407 51.8095 94.5758C53.4825 94.6828 55.1733 94.4867 56.7839 93.9712C57.3268 93.7931 57.9408 93.6064 58.6438 93.4103C63.2712 92.0932 63.3513 96.5163 63.3513 96.5163C63.3513 96.5163 65.5581 97.0858 68.6283 97.8154C68.8864 97.8779 69.1533 97.9396 69.4202 98.0021C69.9631 100.503 70.4437 104.561 69.5715 109.535L69.5448 109.518Z" fill="#F7981D" stroke="#240E32" stroke-width="0.445915" stroke-miterlimit="10"/>
<path d="M83.4902 100.805C84.6378 100.957 85.59 101.028 86.2571 101.001C90.8669 100.796 94.4713 103.902 94.4713 103.902" stroke="#2E054E" stroke-width="0.445915" stroke-miterlimit="10"/>
<path d="M67.605 110.568C67.5871 110.621 67.5782 110.665 67.5604 110.719C65.1845 112.16 62.844 113.531 60.8418 114.634L62.0165 107.186C63.8586 108.325 65.7807 109.49 67.605 110.568Z" fill="#F7981D" stroke="#240E32" stroke-width="0.445915" stroke-miterlimit="10"/>
<path d="M90.6966 97.2458C90.3223 97.406 89.5302 97.7528 88.4717 98.2512C87.1367 98.8832 85.3657 99.755 83.4886 100.805C79.6974 100.316 73.8242 99.0253 69.3926 97.9754C69.1256 97.9129 68.8587 97.8504 68.6006 97.7888C68.6273 97.7888 68.6362 97.7793 68.6362 97.7793C68.6362 97.7793 68.6006 96.9966 68.912 96.1685C69.3392 95.0295 70.4249 93.8015 73.139 94.3975C73.8509 94.5577 74.4738 94.7007 75.0256 94.8429C76.921 95.3327 78.9055 95.8037 80.8276 95.581C81.1657 95.5374 81.5039 95.4749 81.8332 95.3858C82.8746 95.11 84.0041 94.8874 84.9744 94.8874C85.4993 94.8874 85.9797 94.9499 86.372 95.0921C86.3985 95.0921 86.4251 95.11 86.4516 95.128C86.7813 95.2608 87.0476 95.4654 87.2172 95.742C87.2172 95.742 90.0646 94.8874 90.67 97.2364L90.6966 97.2458Z" fill="#F7981D" stroke="#240E32" stroke-width="0.445915" stroke-miterlimit="10"/>
<path d="M69.1443 111.466C68.646 113.575 67.9074 115.818 66.8306 118.158C66.5103 117.046 66.4747 114.892 67.5692 110.718C67.6227 110.692 67.6671 110.665 67.7116 110.63C68.2011 110.914 68.6727 111.199 69.1443 111.466Z" fill="#372856" stroke="#2E054E" stroke-width="0.445915" stroke-miterlimit="10"/>
<path d="M51.2842 84.7606C52.708 81.5926 53.5267 77.8105 53.9272 75.4523C53.9806 75.132 54.0339 74.8383 54.0696 74.5802" stroke="#2E054E" stroke-width="0.445915" stroke-miterlimit="10"/>
<path d="M55.894 75.7726C53.9719 75.0429 52.6104 73.183 52.6104 71.0117C52.6104 69.7569 53.0641 68.6001 53.8206 67.7102L53.5447 64.8269" stroke="#2E054E" stroke-width="0.445915" stroke-miterlimit="10"/>
<path d="M79.7338 87.1722C79.6358 87.2257 79.5469 87.279 79.449 87.3324C75.3378 86.487 67.0352 83.933 53.1441 87.3324C53.0462 87.279 52.9484 87.2257 52.8594 87.1722L53.3933 83.7551C57.0418 82.5092 61.0729 81.9219 64.7393 81.6727C64.7393 81.6727 64.766 81.6727 64.8193 81.6727C64.8371 81.6727 64.8461 81.6727 64.8639 81.6727C65.3533 81.6371 65.825 81.6194 66.3055 81.5927C70.3722 81.7706 75.0352 82.3402 79.2088 83.7551L79.7426 87.1722H79.7338Z" fill="#F7981D" stroke="#240E32" stroke-width="0.445915" stroke-miterlimit="10"/>
<path d="M76.1828 35.8522C76.1205 35.5051 76.0404 35.158 75.9336 34.8199" stroke="#2E054E" stroke-width="0.445915" stroke-miterlimit="10"/>
<path d="M56.1619 35.4518C55.9483 35.2737 55.7703 35.0513 55.6279 34.8199" stroke="#2E054E" stroke-width="0.445915" stroke-miterlimit="10"/>
<path d="M59.4897 55.2517C59.4186 55.3051 59.3384 55.3496 59.2673 55.403C58.0303 56.2039 56.3574 57.0582 54.0615 57.8947C52.2016 58.5799 50.5642 59.6923 49.2561 61.1339L48.9803 61.036C48.1349 60.5466 47.5742 59.6388 47.5742 58.5888C47.5742 57.0315 48.8379 55.7678 50.3951 55.7678H50.2527C51.8101 55.7678 53.0737 54.5042 53.0737 52.9469C53.0737 52.3774 52.9491 51.8434 52.691 51.3985C52.5131 51.087 51.0626 49.3339 50.9913 47.5987C50.9202 45.8633 51.8635 44.3238 53.1894 43.4162C52.255 42.4906 51.6766 41.2092 51.6766 39.7854C51.6766 37.3649 53.3674 35.3449 55.6277 34.8287C55.3695 34.4105 55.2272 33.9299 55.2272 33.4137C55.2272 31.9099 56.4463 30.6907 57.9414 30.6907C58.2261 30.6907 58.5019 30.7352 58.76 30.8153C59.0359 32.3459 59.8724 33.6986 61.047 34.6863C60.9313 35.5228 60.3796 36.2258 59.6232 36.5462C58.5376 37.0178 57.8702 38.148 58.146 39.296C58.1638 39.3849 58.1905 39.4739 58.2261 39.5541C59.0003 41.85 57.9235 42.2059 57.9235 42.2059L57.1582 41.138C56.9091 40.7999 56.4909 40.6219 56.0815 40.7287C55.6009 40.8622 55.0759 41.2982 55.1472 42.5619C55.1472 42.5619 55.1472 42.5797 55.1472 42.5885C55.2717 44.6887 56.7578 45.1603 56.7578 45.1603H57.176C57.176 45.1603 57.8168 48.7733 60.8424 50.4374C60.9135 50.7755 60.9848 51.1671 61.0559 51.5942C61.2784 53.0181 60.6644 54.433 59.4719 55.2517H59.4897Z" fill="#795CA6" stroke="#2E054E" stroke-width="0.445915" stroke-miterlimit="10"/>
<path d="M59.4181 39.6698L59.4358 39.0468C59.4358 39.0468 60.4325 37.0624 62.9242 38.415L63.0399 39.4829C63.0399 39.4829 60.9397 38.4328 59.4092 39.6698H59.4181Z" fill="#2E054E" stroke="#2E054E" stroke-width="0.445915" stroke-miterlimit="10"/>
<path d="M69.6159 39.6698L69.5981 39.0468C69.5981 39.0468 68.6015 37.0624 66.1098 38.415L65.9941 39.4829C65.9941 39.4829 68.0942 38.4328 69.6248 39.6698H69.6159Z" fill="#2E054E" stroke="#2E054E" stroke-width="0.445915" stroke-miterlimit="10"/>
<path d="M66.3955 41.9657C66.3955 41.9657 67.4723 42.5084 68.5846 41.8232" stroke="#2E054E" stroke-width="0.445915" stroke-miterlimit="10"/>
<path d="M60.3252 41.8501C60.3252 41.8501 61.3396 42.4996 62.5143 41.9391" stroke="#2E054E" stroke-width="0.445915" stroke-miterlimit="10"/>
<path d="M64.1068 41.6809C64.1068 41.6809 64.0179 43.1315 63.5996 44.1815C63.5996 44.1815 63.7597 44.4752 64.3381 44.7154" stroke="#2E054E" stroke-width="0.445915" stroke-miterlimit="10"/>
<path d="M61.4111 45.899C61.4111 45.899 63.9473 47.7144 67.0708 45.73" stroke="#2E054E" stroke-width="0.445915" stroke-miterlimit="10"/>
<path d="M87.28 58.669C87.28 60.2263 86.3449 61.5611 85.0013 62.1484C84.9841 62.1218 84.9747 62.095 84.9567 62.0683C83.4084 59.0338 80.5076 56.9159 77.1528 56.3107C74.67 55.8658 71.7423 55.2696 70.63 54.7445L70.5943 54.7267C69.0638 54.0148 68.2362 52.324 68.5655 50.6777C68.6366 50.3395 68.6989 50.037 68.7701 49.7701C71.2084 47.8657 71.8313 44.7956 71.8313 44.7956L72.5254 44.9468C72.5254 44.9468 74.3052 44.7511 74.3052 42.4552C74.3052 41.3072 73.8513 40.8979 73.3975 40.7732C72.9348 40.6486 72.4542 40.88 72.1962 41.2805L71.3597 42.5887C70.9859 42.4641 70.8346 42.1081 70.7723 41.7788C70.71 41.4585 70.7724 41.1381 70.888 40.8355C71.1994 40.1058 71.8224 38.3083 70.7457 37.5786C70.4608 37.3916 70.2651 37.1959 70.1317 37.0179C69.8202 36.7065 69.6244 36.2704 69.6244 35.7899C69.6244 35.5852 69.66 35.3894 69.7223 35.2114C68.5921 35.9322 67.2306 36.3505 65.7624 36.3505C63.9648 36.3505 62.3184 35.7187 61.0638 34.6686C59.8891 33.6808 59.0526 32.3282 58.7767 30.7976C58.7055 30.4238 58.6699 30.0412 58.6699 29.6497C58.6699 29.1958 58.7234 28.7508 58.8123 28.3237C60.5565 27.3359 62.5943 26.7664 64.7656 26.7664C70.096 26.7664 74.5899 30.1747 75.9425 34.811C76.3875 34.633 76.868 34.544 77.3841 34.553C79.2529 34.5885 80.8547 36.0213 81.0683 37.8722C81.2018 38.9757 80.8547 39.9902 80.2229 40.7554C81.7802 41.7254 82.8124 43.4518 82.8124 45.4185C82.8124 46.255 82.6256 47.0559 82.2874 47.7678C84.2982 47.9013 86.0691 49.3429 86.5144 51.4163C86.8347 52.8936 86.4074 54.3708 85.4817 55.4298C86.5675 56.0971 87.2886 57.2896 87.2886 58.6601L87.28 58.669Z" fill="#795CA6" stroke="#2E054E" stroke-width="0.445915" stroke-miterlimit="10"/>
<path d="M82.279 47.7856C82.0121 48.364 81.6383 48.8803 81.1934 49.3251" stroke="#2E054E" stroke-width="0.445915" stroke-miterlimit="10"/>
<path d="M72.7926 46.0682C73.348 46.0682 73.7982 45.6179 73.7982 45.0626C73.7982 44.5072 73.348 44.057 72.7926 44.057C72.2373 44.057 71.7871 44.5072 71.7871 45.0626C71.7871 45.6179 72.2373 46.0682 72.7926 46.0682Z" fill="white" stroke="#2E054E" stroke-width="0.445915" stroke-miterlimit="10"/>
<path d="M56.2419 46.0682C56.7973 46.0682 57.2475 45.6179 57.2475 45.0626C57.2475 44.5072 56.7973 44.057 56.2419 44.057C55.6866 44.057 55.2363 44.5072 55.2363 45.0626C55.2363 45.6179 55.6866 46.0682 56.2419 46.0682Z" fill="white" stroke="#2E054E" stroke-width="0.445915" stroke-miterlimit="10"/>
<path d="M50.1088 92.9564C49.9753 93.4017 49.5927 93.7399 49.1388 93.8282C48.6583 93.9266 47.9375 93.9797 46.9854 93.7751C47.7061 92.529 48.4715 91.1409 49.2812 89.5837C50.0999 90.6253 50.447 91.8354 50.1177 92.9564H50.1088Z" fill="#795CA6" stroke="#2E054E" stroke-width="0.445915" stroke-miterlimit="10"/>
<path d="M53.3848 83.755L52.8508 87.1722C52.6907 87.0832 52.5216 86.9853 52.3614 86.8874C52.1033 86.7361 51.8541 86.5849 51.6139 86.4335C51.3647 86.2822 51.2046 86.0598 51.1244 85.8195C51.0444 85.597 51.0444 85.3657 51.0978 85.1343C51.1601 85.0098 51.2135 84.8852 51.2668 84.7606C51.3914 84.5826 51.5694 84.4313 51.7919 84.3334H51.8097C52.308 84.1287 52.8241 83.9419 53.3403 83.7639C53.3403 83.7639 53.3492 83.7639 53.3581 83.7639L53.3848 83.755Z" fill="#795CA6" stroke="#2E054E" stroke-width="0.445915" stroke-miterlimit="10"/>
<path d="M81.3003 84.7427C79.8853 81.5836 79.0667 77.8016 78.6573 75.4522C78.5951 75.0785 78.5416 74.7492 78.4883 74.4556" stroke="#2E054E" stroke-width="0.445915" stroke-miterlimit="10"/>
<path d="M76.6904 75.6213C78.6125 74.8916 79.974 73.0317 79.974 70.8604C79.974 69.5879 79.5024 68.4132 78.7282 67.5233L78.7816 67.4966L79.0397 64.8269" stroke="#2E054E" stroke-width="0.445915" stroke-miterlimit="10"/>
<path d="M105.131 100.556C105.131 100.707 105.087 100.868 104.988 101.01L104.197 102.193C103.734 102.888 102.933 103.271 102.106 103.208C101.75 103.181 101.411 103.074 101.109 102.888C101.002 102.442 100.673 101.971 100.175 101.633C100.076 101.562 99.97 101.508 99.863 101.455C99.7739 101.535 99.6849 101.597 99.5873 101.642C99.124 101.873 98.5374 101.784 98.1726 101.419C98.0655 101.49 97.9679 101.579 97.896 101.686C97.4866 102.292 97.8514 103.253 98.7061 103.822L97.2468 103.795L98.6881 104.926L98.8662 104.809C99.0084 104.712 99.1779 104.667 99.356 104.667C99.4091 104.667 99.4622 104.667 99.5247 104.685C99.97 104.765 100.254 105.157 100.254 105.557C100.254 105.745 100.201 105.931 100.076 106.091C100.041 106.144 99.9966 106.189 99.9521 106.242C99.2045 107.07 97.896 107.079 97.0687 106.331L94.5056 104.053C94.5056 104.053 91.356 103.617 85.6338 93.7837C84.9127 92.5385 84.148 91.1504 83.3379 89.5926C84.1746 88.5247 85.5182 87.6171 87.1555 87.1366C89.2647 86.5226 91.338 86.7628 92.7081 87.6349C95.1111 92.5205 98.3498 97.6108 102.435 100.85L103.12 100.218C103.449 99.9153 103.885 99.7466 104.339 99.7466C104.82 99.7466 105.158 100.138 105.158 100.565L105.131 100.556Z" fill="#F7981D" stroke="#240E32" stroke-width="0.445915" stroke-miterlimit="10"/>
<path d="M102.407 100.841L101.864 101.339" stroke="#2E054E" stroke-width="0.445915" stroke-miterlimit="10"/>
<path d="M95.3691 98.0106C95.7879 100.405 97.9588 99.5238 97.9588 99.5238C97.6205 100.156 97.719 100.707 97.9588 101.135C98.0213 101.242 98.0924 101.339 98.1729 101.41" stroke="#2E054E" stroke-width="0.445915" stroke-miterlimit="10"/>
<path d="M97.959 96.9523C97.959 96.9523 101.955 99.5505 99.8635 101.446" stroke="#2E054E" stroke-width="0.445915" stroke-miterlimit="10"/>
<path d="M100.984 103.769C100.575 104.374 99.5516 104.4 98.6978 103.831C97.8432 103.253 97.4784 102.3 97.8877 101.695C97.9682 101.589 98.0564 101.49 98.1635 101.428C98.5377 101.793 99.1158 101.882 99.5782 101.651C99.6767 101.607 99.7743 101.544 99.8548 101.464C99.961 101.508 100.059 101.571 100.166 101.642C100.664 101.98 100.994 102.442 101.1 102.896C101.18 103.217 101.144 103.528 100.976 103.786L100.984 103.769Z" fill="#F7981D" stroke="#240E32" stroke-width="0.445915" stroke-miterlimit="10"/>
<path d="M98.6967 104.944L98.6787 104.926" stroke="#2E054E" stroke-width="0.445915" stroke-miterlimit="10"/>
<path d="M98.6796 104.926L98.1016 105.308" stroke="#2E054E" stroke-width="0.445915" stroke-miterlimit="10"/>
<path d="M80.8446 95.5906C78.9224 95.8218 76.9379 95.3414 75.0426 94.8516C74.4908 94.7094 73.8679 94.5587 73.156 94.4071C70.433 93.8111 69.3562 95.0297 68.929 96.1781C68.6176 97.0053 68.6532 97.7889 68.6532 97.7889C68.6532 97.7889 68.6443 97.7889 68.6176 97.7975C65.5475 97.0679 63.3406 96.4984 63.3406 96.4984C63.3406 96.4984 63.2605 92.0847 58.6332 93.3923C57.9301 93.5884 57.3161 93.7751 56.7733 93.9533C55.1626 94.4696 53.4807 94.6743 51.7988 94.5587L52.8222 87.4036L52.8578 87.1722C52.9557 87.2256 53.0536 87.279 53.1425 87.3324C67.0336 83.933 75.3451 86.487 79.4474 87.3324C79.5453 87.279 79.6344 87.2256 79.7322 87.1722L79.7678 87.4036L80.8446 95.5906Z" fill="#6B3192" stroke="#2E054E" stroke-width="0.445915" stroke-miterlimit="10"/>
<path d="M85.6064 93.7836C84.6541 93.9883 83.9331 93.9352 83.4526 93.8376C82.9988 93.7485 82.6073 93.4102 82.4827 92.9649C82.1535 91.8439 82.5005 90.6425 83.319 89.5927C84.1197 91.1503 84.8947 92.547 85.6149 93.7836H85.6064Z" fill="#795CA6" stroke="#2E054E" stroke-width="0.445915" stroke-miterlimit="10"/>
<path d="M81.4516 85.8195C81.3715 86.0598 81.2114 86.2822 80.9622 86.4335C80.7219 86.5849 80.4816 86.7361 80.2235 86.8874C80.0634 86.9764 79.9032 87.0743 79.7341 87.1722L79.2002 83.755H79.218C79.7341 83.933 80.2503 84.1198 80.7486 84.3245H80.7664C80.9889 84.4135 81.1668 84.5559 81.2914 84.7338C81.3448 84.8673 81.4071 84.9919 81.4694 85.1165C81.5317 85.3478 81.5228 85.5881 81.4426 85.8106L81.4516 85.8195Z" fill="#795CA6" stroke="#2E054E" stroke-width="0.445915" stroke-miterlimit="10"/>
<path d="M49.274 89.5837C48.473 91.1408 47.6989 92.5384 46.9781 93.775C41.2561 103.609 38.1059 104.045 38.1059 104.045L35.543 106.322C34.7066 107.07 33.4074 107.062 32.6599 106.233C32.6153 106.189 32.5709 106.136 32.5353 106.083C32.4107 105.922 32.3573 105.735 32.3573 105.548C32.3573 105.139 32.6331 104.756 33.087 104.677C33.1404 104.667 33.1938 104.659 33.2561 104.659C33.4251 104.659 33.5942 104.712 33.7455 104.801L33.9146 104.916L35.3562 103.787L33.8968 103.813C34.7511 103.234 35.1159 102.282 34.7066 101.678C34.6354 101.57 34.5375 101.473 34.4307 101.41C34.0569 101.775 33.4785 101.864 33.0069 101.633C32.909 101.588 32.82 101.526 32.731 101.446C32.6242 101.491 32.5174 101.553 32.4196 101.624C31.9213 101.953 31.592 102.425 31.4852 102.87C31.1826 103.048 30.8356 103.163 30.4797 103.19C29.6521 103.252 28.86 102.87 28.3973 102.176L27.6053 100.992C27.5074 100.849 27.4629 100.689 27.4629 100.539C27.4629 100.111 27.8011 99.7199 28.2817 99.7199C28.7354 99.7199 29.1715 99.8886 29.5008 100.191L30.1859 100.823C34.2705 97.5927 37.5097 92.4939 39.9123 87.6081C41.2828 86.7361 43.3651 86.4958 45.4652 87.1098C47.0937 87.5903 48.4375 88.4892 49.2829 89.5659L49.274 89.5837Z" fill="#F7981D" stroke="#240E32" stroke-width="0.445915" stroke-miterlimit="10"/>
<path d="M33.1476 101.517L33.0049 101.642" stroke="#2E054E" stroke-width="0.445915" stroke-miterlimit="10"/>
<path d="M30.7196 101.339L30.1768 100.841" stroke="#2E054E" stroke-width="0.445915" stroke-miterlimit="10"/>
<path d="M34.4209 101.419C34.5011 101.339 34.5722 101.25 34.6345 101.143C34.8659 100.716 34.9637 100.164 34.6345 99.5325C34.6345 99.5325 36.8059 100.414 37.2241 98.0201" stroke="#2E054E" stroke-width="0.445915" stroke-miterlimit="10"/>
<path d="M32.7209 101.455C30.6296 99.5599 34.6252 96.9608 34.6252 96.9608" stroke="#2E054E" stroke-width="0.445915" stroke-miterlimit="10"/>
<path d="M33.8871 103.83C33.0328 104.409 32.0094 104.383 31.6001 103.769C31.431 103.51 31.3953 103.199 31.4755 102.878C31.5823 102.434 31.9115 101.962 32.4099 101.633C32.5077 101.562 32.6145 101.508 32.7213 101.455C32.8103 101.535 32.8993 101.597 32.9971 101.642C33.4599 101.873 34.0472 101.784 34.4209 101.419C34.5277 101.49 34.6257 101.579 34.6968 101.686C35.1062 102.292 34.7413 103.252 33.8871 103.822V103.83Z" fill="#F7981D" stroke="#240E32" stroke-width="0.445915" stroke-miterlimit="10"/>
<path d="M33.9058 104.926L33.8877 104.944" stroke="#2E054E" stroke-width="0.445915" stroke-miterlimit="10"/>
<path d="M34.4827 105.308L33.9043 104.926" stroke="#2E054E" stroke-width="0.445915" stroke-miterlimit="10"/>
<path d="M47.9833 96.2047C47.6452 96.9608 46.5061 97.246 44.9934 97.0944C45.1713 96.8632 45.376 96.2406 45.6607 95.9469C45.6607 95.9469 46.9778 96.1242 46.7197 95.3329C45.8832 94.3266 44.4327 93.2682 42.644 92.4675C40.8554 91.6573 39.1023 91.266 37.7942 91.3105C37.4917 91.8355 37.1713 92.369 36.8331 92.9213C36.2725 92.1823 36.0589 91.4792 36.3081 90.9363C36.5839 90.3137 37.4115 90.011 38.5506 90.011C39.8409 90.011 41.5139 90.4028 43.2314 91.1769C45.2247 92.0753 46.7998 93.2862 47.5651 94.3806C48.0368 95.0563 48.2058 95.6977 47.9833 96.2047Z" fill="#EC1C24" stroke="#231F20" stroke-width="0.445915" stroke-miterlimit="10"/>
<path d="M47.2615 96.1336C47.128 95.8749 46.95 95.6086 46.7275 95.3414" stroke="#2E054E" stroke-width="0.445915" stroke-miterlimit="10"/>
<path d="M37.8031 91.3104C37.4739 91.319 37.1713 91.355 36.9043 91.4166" stroke="#2E054E" stroke-width="0.445915" stroke-miterlimit="10"/>
<path d="M84.6994 96.5514C85.0377 97.3084 86.3899 97.6013 87.9031 97.4412C87.725 97.2099 87.4672 96.7295 87.1204 96.2491C87.1204 96.2491 85.7142 96.4717 85.9634 95.6796C86.7992 94.6742 88.2499 93.6149 90.0388 92.8142C91.8278 92.0041 93.5542 91.6127 94.8533 91.6573C95.1556 92.1822 95.5024 92.7166 95.8407 93.2681C96.4016 92.529 96.6148 91.826 96.3656 91.283C96.0898 90.6605 95.2626 90.3582 94.1237 90.3582C92.8331 90.3582 91.1598 90.7495 89.4428 91.5237C87.4492 92.4229 85.8744 93.6329 85.1088 94.7273C84.6369 95.4039 84.4682 96.0444 84.6909 96.5514H84.6994Z" fill="#EC1C24" stroke="#231F20" stroke-width="0.445915" stroke-miterlimit="10"/>
<path d="M85.4287 96.4803C85.5623 96.2225 85.7404 95.9553 85.9631 95.6881" stroke="#2E054E" stroke-width="0.445915" stroke-miterlimit="10"/>
<path d="M94.8809 91.6572C95.2097 91.6658 95.5129 91.7018 95.7792 91.7643" stroke="#2E054E" stroke-width="0.445915" stroke-miterlimit="10"/>
<path d="M60.8496 50.4464C61.3746 50.7312 61.9708 50.9626 62.6561 51.105C63.2523 51.2296 63.9108 51.2918 64.6405 51.2563C64.6672 51.2563 64.7028 51.2563 64.7295 51.2563C66.4469 51.1673 67.764 50.571 68.7695 49.788" stroke="#2E054E" stroke-width="0.445915" stroke-miterlimit="10"/>
<mask id="mask1_3720_7630" style="mask-type:luminance" maskUnits="userSpaceOnUse" x="39" y="54" width="54" height="39">
<path d="M92.6807 87.635C91.3105 86.7628 89.2278 86.5225 87.1281 87.1366C85.4907 87.6172 84.1471 88.5159 83.3104 89.5927C82.4916 90.6425 82.1446 91.844 82.4738 92.965C82.4738 92.965 82.0733 92.494 80.4449 87.5637C80.3737 87.3501 80.3025 87.1277 80.2224 86.9053C80.4805 86.7539 80.7296 86.6026 80.961 86.4514C81.2102 86.3001 81.3703 86.0777 81.4504 85.8374C81.5306 85.6149 81.5395 85.3746 81.4771 85.1521C81.4415 85.0098 81.3882 84.8852 81.2992 84.7695C81.1746 84.5915 81.0055 84.4491 80.7742 84.3601H80.7563C80.258 84.1555 79.7419 83.9686 79.2258 83.7906C79.2169 83.7461 79.208 83.7906 79.208 83.7906C75.0344 82.3668 70.3714 81.7972 66.3046 81.6282C65.664 81.646 65.0322 81.6905 64.8186 81.7082C64.7652 81.7082 64.7384 81.7082 64.7384 81.7082C61.0722 81.9574 57.041 82.5447 53.3925 83.7906C53.3925 83.7906 53.3925 83.755 53.3747 83.7906C52.8586 83.9686 52.3424 84.1555 51.8441 84.3601H51.8263C51.5949 84.4491 51.417 84.6004 51.3013 84.7873C51.2212 84.903 51.1678 85.0276 51.1322 85.161C51.0788 85.3924 51.0788 85.6238 51.1589 85.8463C51.239 86.0865 51.3991 86.309 51.6483 86.4603C51.8886 86.6115 52.1378 86.7628 52.3959 86.9141C52.3157 87.1455 52.2445 87.368 52.1734 87.5815C50.5448 92.5111 50.1444 92.983 50.1444 92.983C50.4737 91.862 50.1266 90.6605 49.3079 89.6105C48.4714 88.5426 47.1277 87.635 45.4904 87.1544C43.3813 86.5404 41.3079 86.7807 39.9375 87.6527C41.388 84.6983 42.5359 81.815 43.3724 79.4747C44.2356 77.4101 45.4191 69.0629 46.8252 65.2275C47.3858 63.7058 48.2223 62.3264 49.2901 61.1607C50.5894 59.728 52.2356 58.6067 54.0955 57.9215C56.3825 57.085 58.0643 56.2307 59.3013 55.4298C59.8619 55.9904 60.5827 56.6134 61.437 57.1117C62.3981 57.6724 63.5282 58.0728 64.7652 58.0639C65.8063 58.0639 66.9276 57.7613 68.0933 57.0316C68.9209 56.5155 69.7841 55.7769 70.6562 54.7712C71.7685 55.2874 74.6962 55.8837 77.179 56.3374C80.5339 56.9426 83.4346 59.0516 84.9829 62.0951C85.0009 62.1218 85.0103 62.1485 85.0274 62.1751C86.7984 65.6724 87.2257 75.3366 89.2724 79.4747C90.109 81.8239 91.2566 84.6983 92.7166 87.6616L92.6807 87.635Z" fill="white"/>
</mask>
<g mask="url(#mask1_3720_7630)">
<path d="M48.3089 63.3217L51.7015 63.9132C52.1276 63.9874 52.5332 63.7023 52.6075 63.2762L53.199 59.8836C53.2733 59.4574 52.9881 59.0518 52.5621 58.9775L49.1694 58.386C48.7433 58.3118 48.3377 58.5969 48.2634 59.023L47.6719 62.4157C47.5977 62.8418 47.8828 63.2474 48.3089 63.3217Z" stroke="#EC1B53" stroke-width="0.445915" stroke-miterlimit="10"/>
<path d="M81.7352 77.1621L86.9576 80.6384C87.5219 81.0143 88.2849 80.8612 88.66 80.2966L92.1368 75.0742C92.5127 74.5096 92.3595 73.7472 91.7951 73.3714L86.5722 69.895C86.0079 69.5192 85.2457 69.6722 84.8698 70.2368L81.3934 75.4593C81.0176 76.0239 81.1706 76.7862 81.7352 77.1621Z" stroke="#EC1B53" stroke-width="0.445915" stroke-miterlimit="10"/>
<path d="M75.727 79.8307L76.7754 80.2985C77.1165 80.4508 77.5164 80.2977 77.6686 79.9566L78.1364 78.9082C78.2886 78.5671 78.1355 78.1673 77.7944 78.015L76.7461 77.5472C76.405 77.3949 76.0051 77.548 75.8529 77.8891L75.3851 78.9375C75.2328 79.2786 75.3859 79.6785 75.727 79.8307Z" stroke="#EC1B53" stroke-width="0.445915" stroke-miterlimit="10"/>
<path d="M45.319 80.4378L45.7975 82.0781C45.8263 82.1772 45.9301 82.2341 46.0292 82.2051L47.6694 81.7268C47.7685 81.6979 47.8254 81.5941 47.7965 81.495L47.3181 79.8548C47.2892 79.7558 47.1855 79.6988 47.0864 79.7278L45.4461 80.2061C45.347 80.235 45.2902 80.3388 45.319 80.4378Z" stroke="#EC1B53" stroke-width="0.445915" stroke-miterlimit="10"/>
<path d="M76.0202 60.9071L76.2669 61.7528C76.2958 61.8519 76.3996 61.9088 76.4987 61.8799L77.3444 61.6332C77.4435 61.6044 77.5003 61.5006 77.4715 61.4015L77.2248 60.5557C77.1959 60.4567 77.0921 60.3998 76.993 60.4287L76.1473 60.6754C76.0482 60.7042 75.9913 60.808 76.0202 60.9071Z" stroke="#EC1B53" stroke-width="0.445915" stroke-miterlimit="10"/>
<path d="M62.4627 66.3304L63.8049 69.608C63.9465 69.9537 64.3414 70.1191 64.6871 69.9776L67.9647 68.6354C68.3103 68.4938 68.4757 68.0988 68.3342 67.7531L66.992 64.4756C66.8505 64.1299 66.4555 63.9645 66.1098 64.106L62.8323 65.4482C62.4866 65.5898 62.3212 65.9847 62.4627 66.3304Z" stroke="#EC1B53" stroke-width="0.445915" stroke-miterlimit="10"/>
<path d="M59.9487 76.8354L60.6438 77.749C60.87 78.0462 61.2943 78.1038 61.5916 77.8776L62.5051 77.1824C62.8024 76.9562 62.86 76.5319 62.6338 76.2347L61.9387 75.3211C61.7124 75.0238 61.2881 74.9663 60.9908 75.1925L60.0774 75.8877C59.7801 76.1138 59.7225 76.5382 59.9487 76.8354Z" stroke="#EC1B53" stroke-width="0.445915" stroke-miterlimit="10"/>
</g>
<path d="M68.0593 44.1102C68.3542 44.1102 68.5933 43.8712 68.5933 43.5763C68.5933 43.2815 68.3542 43.0424 68.0593 43.0424C67.7645 43.0424 67.5254 43.2815 67.5254 43.5763C67.5254 43.8712 67.7645 44.1102 68.0593 44.1102Z" fill="#E25E26"/>
<path d="M60.9304 44.1104C61.2253 44.1104 61.4644 43.8714 61.4644 43.5764C61.4644 43.2816 61.2253 43.0425 60.9304 43.0425C60.6356 43.0425 60.3965 43.2816 60.3965 43.5764C60.3965 43.8714 60.6356 44.1104 60.9304 44.1104Z" fill="#E25E26"/>
<path d="M56.5357 41.8233C56.5357 41.8233 55.9395 41.7254 56.162 43.0425" stroke="#2E054E" stroke-width="0.445915" stroke-miterlimit="10"/>
<path d="M72.668 42.1704C72.668 42.1704 73.4956 41.85 73.2019 43.0425" stroke="#2E054E" stroke-width="0.445915" stroke-miterlimit="10"/>
<path d="M93.7676 62.6735L103.102 58.8915" stroke="#FF9900" stroke-width="0.445915" stroke-miterlimit="10"/>
<path d="M41.7271 64.3998L32.499 61.7747" stroke="#FF9900" stroke-width="0.445915" stroke-miterlimit="10"/>
<path d="M84.2988 35.2382L86.6667 29.3204" stroke="#FF9900" stroke-width="0.445915" stroke-miterlimit="10"/>
<path d="M48.8191 35.2382L45.5088 29.3204" stroke="#FF9900" stroke-width="0.445915" stroke-miterlimit="10"/>
<path d="M29.7588 86.9763L37.1181 84.3066" stroke="#FF9900" stroke-width="0.445915" stroke-miterlimit="10"/>
<path d="M96.3125 84.3066L104.045 86.9763" stroke="#FF9900" stroke-width="0.445915" stroke-miterlimit="10"/>
</g>
<path d="M13.4205 42.0099L64.4908 17.5646C65.6565 17.0128 67.0002 17.0128 68.166 17.5646L119.236 42.0099C120.713 42.7129 121.657 44.2079 121.657 45.8453V58.4195C121.657 89.5568 103.788 117.917 75.7032 131.364L68.166 134.968C67.0002 135.52 65.6565 135.52 64.4908 134.968L56.9535 131.364C28.8688 117.927 11 89.5568 11 58.4195V45.8453C11 44.2079 11.9433 42.7129 13.4205 42.0099Z" stroke="#30CE95" stroke-width="0.891832"/>
<path d="M112.686 49.8142L115.124 49.4316L112.686 49.0489C111.031 48.7908 109.732 47.4559 109.483 45.7652L108.834 41.3781L108.184 45.7652C107.934 47.4648 106.635 48.7908 104.98 49.0489L102.542 49.4316L104.98 49.8142C106.635 50.0722 107.934 51.4071 108.184 53.0978L108.834 57.485L109.483 53.0978C109.732 51.3982 111.031 50.0722 112.686 49.8142Z" fill="#F7CD47" stroke="#FF9900" stroke-width="0.445915" stroke-linecap="round" stroke-linejoin="round"/>
<path d="M26.8582 125.695L28.9138 125.375L26.8582 125.054C25.4611 124.841 24.3754 123.711 24.1618 122.287L23.6191 118.585L23.0762 122.287C22.8627 123.719 21.7681 124.832 20.3799 125.054L18.3242 125.375L20.3799 125.695C21.777 125.909 22.8627 127.039 23.0762 128.463L23.6191 132.165L24.1618 128.463C24.3754 127.03 25.47 125.918 26.8582 125.695Z" fill="#F7CD47" stroke="#FF9900" stroke-width="0.445915" stroke-linecap="round" stroke-linejoin="round"/>
<path d="M114.788 14.0405L116.691 13.7468L114.788 13.4532C113.497 13.2574 112.482 12.2163 112.286 10.8903L111.779 7.46423L111.272 10.8903C111.076 12.2163 110.062 13.2485 108.772 13.4532L106.867 13.7468L108.772 14.0405C110.062 14.2363 111.076 15.2775 111.272 16.6034L111.779 20.0295L112.286 16.6034C112.482 15.2775 113.497 14.2452 114.788 14.0405Z" fill="#F7CD47" stroke="#FF9900" stroke-width="0.445915" stroke-linecap="round" stroke-linejoin="round"/>
<path d="M30.711 56.3724L34.2171 55.8295L30.711 55.2867C28.335 54.9219 26.4752 52.9997 26.1103 50.5703L25.1759 44.261L24.2416 50.5703C23.8856 53.0086 22.0168 54.913 19.6409 55.2867L16.1348 55.8295L19.6409 56.3724C22.0168 56.7372 23.8767 58.6594 24.2416 61.0888L25.1759 67.3981L26.1103 61.0888C26.4663 58.6505 28.335 56.7461 30.711 56.3724Z" fill="#F7CD47" stroke="#FF9900" stroke-width="0.445915" stroke-linecap="round" stroke-linejoin="round"/>
</svg>
