<svg width="400" height="400" fill="none" xmlns="http://www.w3.org/2000/svg">
<g clip-path="url(#clip0_1961_250)">
<mask id="mask0_1961_250" style="mask-type:luminance" maskUnits="userSpaceOnUse" x="77" y="107" width="82" height="126">
<path d="M158.61 112.25V227.56C158.61 230.32 156.37 232.55 153.62 232.55H89.0501C79.8201 227.42 78.6701 218.23 77.3701 204.91V112.25C77.3701 109.49 79.6101 107.26 82.3601 107.26H153.62C156.38 107.26 158.61 109.5 158.61 112.25Z" fill="white"/>
</mask>
<g mask="url(#mask0_1961_250)">
<path d="M118.53 165.89C114.77 168.41 109.65 168.69 107.56 168.51L77.2599 167.15L75.1699 150.15H83.5299C87.3599 149.98 96.6899 150.99 103.38 156.44C110.07 161.89 116.26 165.01 118.53 165.88V165.89Z" fill="white"/>
<path d="M144.65 181.1V172.71C147.09 173.58 151.96 177.12 151.96 184.25C145.69 184.25 144.47 182.15 144.65 181.1Z" fill="white"/>
<path d="M77.27 167.16L78.32 174.81V193.69H110.87C110.76 193.01 110.7 192.31 110.7 191.59C110.7 186.61 113.58 182.31 117.76 180.26C119.42 179.45 121.28 179 123.24 179C130.16 179 135.78 184.63 135.78 191.59C135.78 192.49 135.69 193.37 135.5 194.21H149.35C150.22 193.86 151.97 191.38 151.97 184.24C145.7 184.24 144.48 182.14 144.65 181.09V172.69L118.54 165.88C118.22 166.09 117.9 166.28 117.57 166.46C113.94 168.44 109.48 168.66 107.57 168.5L77.27 167.14V167.16Z" fill="#B5B9DD" stroke="#341E54" stroke-miterlimit="10"/>
<path fill-rule="evenodd" clip-rule="evenodd" d="M135.5 194.22C135.68 193.37 135.77 192.5 135.77 191.6C135.77 184.65 130.16 179.01 123.23 179.01C116.31 179.01 110.69 184.65 110.69 191.6C110.69 192.31 110.75 193.02 110.86 193.7C111.85 199.65 117.01 204.19 123.22 204.19C129.43 204.19 134.28 199.92 135.48 194.22H135.5ZM123.24 197.89C126.7 197.89 129.51 195.07 129.51 191.6C129.51 188.13 126.7 185.31 123.24 185.31C119.78 185.31 116.97 188.13 116.97 191.6C116.97 195.07 119.78 197.89 123.24 197.89Z" fill="#8C8DC5" stroke="#231F20" stroke-miterlimit="10"/>
<path d="M123.24 185.3C119.78 185.3 116.97 188.12 116.97 191.59C116.97 195.06 119.78 197.88 123.24 197.88C126.7 197.88 129.51 195.06 129.51 191.59C129.51 188.12 126.7 185.3 123.24 185.3Z" fill="white"/>
<path d="M30.43 193.69H21.38C18.42 193.34 12.5 190.44 12.5 181.63H17.72C18.87 181.63 19.81 180.69 19.81 179.53V172.19C19.81 171.03 18.87 170.09 17.72 170.09H12.5V167.47C12.67 166.07 14.17 163.27 18.77 163.27C24.52 163.27 28.69 161.17 33.4 159.07C34.68 158.5 36.77 157.55 39.15 156.45L43.87 160.95C47.22 164.14 51.61 166.01 56.23 166.22L77.27 167.16L78.31 174.81V193.69H55.15C55.26 193.01 55.32 192.31 55.32 191.59C55.32 184.64 49.71 179 42.78 179C35.86 179 30.24 184.64 30.24 191.59C30.24 192.3 30.3 193.01 30.41 193.69H30.43Z" fill="#B5B9DD" stroke="#341E54" stroke-miterlimit="10"/>
<path d="M72.57 177.43H64.74M97.12 177.43H89.29M78.32 193.69V191.26V174.81L77.27 167.16M77.27 167.16L75.18 150.16M77.27 167.16L56.23 166.22C51.61 166.01 47.22 164.14 43.87 160.95L39.14 156.46C40.38 155.89 41.7 155.28 43.02 154.66C49.41 151.7 56.36 150.16 63.4 150.16H75.17M55.14 193.69H78.3H79.57M79.36 193.69H110.85M110.85 193.69C111.27 196.17 112.4 198.41 114.05 200.17C116.33 202.63 119.6 204.18 123.22 204.18C129.25 204.18 134.28 199.91 135.48 194.21M110.85 193.69C110.74 193.01 110.68 192.31 110.68 191.59C110.68 186.61 113.56 182.31 117.74 180.26C119.4 179.45 121.26 179 123.22 179C130.14 179 135.76 184.63 135.76 191.59C135.76 192.49 135.67 193.37 135.48 194.21M135.48 194.21H149.33C150.2 193.86 151.95 191.38 151.95 184.24C145.68 184.24 144.46 182.14 144.63 181.09V172.69M144.63 172.69C147.07 173.57 151.95 177.1 151.95 184.23M144.63 172.69L118.52 165.88C118.21 166.09 117.88 166.28 117.55 166.46C113.92 168.44 109.46 168.66 107.55 168.5L77.25 167.14M75.17 150.14H77.86H83.26H83.52C84.19 150.11 85.02 150.11 85.98 150.17C89.82 150.41 95.66 151.5 100.71 154.56C101.63 155.11 102.53 155.74 103.38 156.43C109.22 161.2 114.69 164.17 117.49 165.43C117.9 165.61 118.25 165.76 118.53 165.87M12.5 170.08V167.46C12.68 166.06 14.17 163.27 18.77 163.27C24.52 163.27 28.7 161.17 33.4 159.07C34.68 158.5 36.77 157.54 39.15 156.45M12.5 181.63V170.09H17.73C18.88 170.09 19.82 171.03 19.82 172.19V179.53C19.82 180.69 18.89 181.63 17.73 181.63H12.5ZM12.5 181.63C12.5 187.06 14.74 190.25 17.16 191.97C18.67 193.05 20.24 193.56 21.38 193.69H30.43M55.16 193.69C55.27 193.01 55.33 192.31 55.33 191.59C55.33 186.04 51.76 181.34 46.81 179.66C45.55 179.23 44.2 179 42.8 179C41.24 179 39.76 179.28 38.38 179.81C36.99 180.33 35.71 181.1 34.6 182.07C33.45 183.06 32.49 184.26 31.76 185.61C30.8 187.39 30.25 189.42 30.25 191.59C30.25 192.31 30.31 193.01 30.42 193.69C31.42 199.65 36.58 204.18 42.79 204.18C49 204.18 54.15 199.65 55.15 193.69M116.97 191.59C116.97 195.07 119.77 197.89 123.24 197.89C126.71 197.89 129.51 195.07 129.51 191.59C129.51 188.12 126.71 185.3 123.24 185.3C119.77 185.3 116.97 188.12 116.97 191.59Z" stroke="#341E54"/>
</g>
<path d="M158.61 231.98V117.34C158.61 114.58 156.37 112.34 153.61 112.34H82.3501C79.5901 112.34 77.3601 114.57 77.3601 117.33V232.65C77.3601 235.41 79.5901 237.64 82.3501 237.64H152.95C156.08 237.64 158.61 235.11 158.61 231.98Z" stroke="#231F20" stroke-miterlimit="10"/>
<path d="M105.82 120.91H136.74" stroke="#231F20" stroke-miterlimit="10"/>
<path d="M100.59 122.26C101.336 122.26 101.94 121.656 101.94 120.91C101.94 120.164 101.336 119.56 100.59 119.56C99.8444 119.56 99.24 120.164 99.24 120.91C99.24 121.656 99.8444 122.26 100.59 122.26Z" fill="white" stroke="#231F20" stroke-miterlimit="10"/>
<path d="M152.66 118.02V231.96H93.17C92.65 231.26 92.01 230.64 91.23 230.13C89.68 229.1 87.99 228.69 86.49 228.33C86.04 228.22 85.43 228.07 85 227.94C83.12 222.37 82.77 217.31 82.77 209.59V118.02H152.66ZM153.34 113.02H82.08C79.7 113.02 77.76 114.96 77.76 117.34V209.59C77.76 217.68 78.11 223.58 80.54 230.34C81.99 234.4 90.21 232.02 89.55 236.97H153.34C155.72 236.97 157.66 235.03 157.66 232.65V117.34C157.66 114.96 155.72 113.02 153.34 113.02Z" fill="white"/>
<path d="M94.3301 137.2L95.2181 135.52C95.6621 135.94 96.3341 136.336 97.0541 136.336C97.4741 136.336 97.7261 136.204 97.8581 136.06C97.9781 135.94 98.0621 135.76 98.0621 135.556C98.0621 135.4 98.0021 135.22 97.8341 135.076C97.6301 134.896 97.3181 134.812 96.8021 134.656L96.2621 134.488C95.9261 134.38 95.4341 134.2 95.1101 133.84C94.7021 133.396 94.6541 132.832 94.6541 132.424C94.6541 131.44 95.0381 130.84 95.3861 130.492C95.7941 130.084 96.4661 129.736 97.4381 129.736C98.2301 129.736 99.1541 129.988 99.9101 130.384L99.0821 132.004C98.4581 131.512 97.9901 131.464 97.7141 131.464C97.5101 131.464 97.2341 131.512 97.0301 131.704C96.9101 131.824 96.8261 131.956 96.8261 132.136C96.8261 132.28 96.8501 132.388 96.9341 132.496C96.9941 132.568 97.1381 132.712 97.6301 132.856L98.2661 133.048C98.7701 133.204 99.2981 133.384 99.7181 133.84C100.126 134.272 100.234 134.716 100.234 135.268C100.234 136 100.054 136.708 99.4781 137.284C98.7941 137.968 97.9661 138.1 97.1141 138.1C96.6101 138.1 96.1301 138.052 95.5421 137.836C95.4101 137.788 94.9061 137.596 94.3301 137.2ZM106.094 129.916V131.68H103.622V133.012H105.962V134.776H103.622V136.156H106.094V137.92H101.546V129.916H106.094ZM107.417 129.916H109.493V136.156H111.989V137.92H107.417V129.916ZM113.053 129.916H115.129V136.156H117.625V137.92H113.053V129.916ZM127.239 135.244V137.704C126.411 138.004 125.955 138.1 125.439 138.1C124.047 138.1 123.003 137.548 122.343 136.9C121.563 136.12 121.131 135.028 121.131 133.984C121.131 132.844 121.623 131.764 122.343 131.032C123.051 130.312 124.119 129.784 125.367 129.784C125.751 129.784 126.375 129.844 127.239 130.192V132.676C126.567 131.848 125.775 131.8 125.427 131.8C124.827 131.8 124.371 131.98 123.987 132.328C123.495 132.784 123.291 133.408 123.291 133.972C123.291 134.524 123.519 135.136 123.939 135.532C124.287 135.856 124.839 136.084 125.427 136.084C125.739 136.084 126.507 136.048 127.239 135.244ZM133.933 137.92L133.441 136.576H130.537L129.997 137.92H127.801L130.873 129.916H133.141L136.153 137.92H133.933ZM131.113 134.992H132.889L131.989 132.4L131.113 134.992ZM137.077 129.916H140.317C140.917 129.916 141.685 130.012 142.273 130.624C142.729 131.092 142.957 131.788 142.957 132.424C142.957 133.108 142.717 133.708 142.321 134.092C142.009 134.392 141.589 134.572 141.217 134.644L143.725 137.92H141.145L139.153 134.848V137.92H137.077V129.916ZM139.153 131.524V133.504H139.549C139.861 133.504 140.305 133.42 140.557 133.18C140.713 133.024 140.821 132.76 140.821 132.508C140.821 132.268 140.725 132.004 140.545 131.836C140.353 131.644 140.005 131.524 139.549 131.524H139.153Z" fill="#6B3293"/>
<path d="M129.61 217.32H106.36C105.228 217.32 104.31 218.238 104.31 219.37V222.89C104.31 224.022 105.228 224.94 106.36 224.94H129.61C130.742 224.94 131.66 224.022 131.66 222.89V219.37C131.66 218.238 130.742 217.32 129.61 217.32Z" fill="#58C0A0" stroke="#09B088"/>
<path d="M217.76 263.24L215.2 242.83" stroke="#231F20" stroke-miterlimit="10"/>
<path d="M327.52 270.21C325.6 270.94 323.21 271.83 320.43 272.86C299.2 280.71 255.53 296.12 228.33 300.68H228.28C227.36 300.84 226.45 300.98 225.57 301.11C225.29 301.15 225.01 301.19 224.74 301.23C220.78 301.81 216.74 302.1 212.63 302.1C207.66 302.1 202.79 301.67 198.06 300.83C198.96 300.36 200.29 298.34 201.82 295.25C203.81 291.23 206.13 285.37 208.27 278.73C209.87 273.76 211.14 269.1 211.99 265.21C212.12 264.64 212.23 264.07 212.34 263.53C212.43 263.53 212.54 263.53 212.63 263.53C214.46 263.53 216.26 263.42 218.04 263.2L215.39 242.77L215.34 242.41L214.56 242.04C214.56 242.04 211.31 250.69 209.38 255.22C209.35 255.29 209.32 255.35 209.29 255.42C208.06 258.46 206.95 261.12 206.13 263.06C206.06 263.06 205.98 263.04 205.91 263.03C205.91 263.03 205.89 263.03 205.88 263.03C194.68 261.36 184.83 255.55 177.94 247.21C177.35 246.5 176.78 245.76 176.24 245.02C175.59 243.8 175.22 242.39 175.22 241C175.22 239.43 175.7 237.98 176.51 236.77C176.62 236.61 176.73 236.45 176.85 236.31C176.97 236.16 177.09 236.01 177.23 235.87C177.35 235.74 177.48 235.61 177.61 235.49C177.72 235.38 177.84 235.28 177.95 235.19C177.98 235.16 178.02 235.13 178.06 235.1C178.73 234.56 179.14 233.75 179.14 232.89V232.87C179.14 231.86 178.78 230.93 178.18 230.2C181.98 221.87 190.81 203.11 199.68 188.96C202.12 185.07 204.63 182.33 207.07 180.45C211.03 177.38 214.8 176.53 217.85 176.59C217.98 176.59 218.12 176.59 218.25 176.59C222.6 184.8 229.78 184.47 235.74 182.2C236.44 183.49 237.69 186.39 237.56 190.36C241.7 190.36 246.9 188.66 252.97 183.18C254.13 182.14 255.31 181.17 256.51 180.28C257.88 183.44 261.04 185.66 264.71 185.66C269.48 185.66 273.39 181.91 273.63 177.2C275.22 177.91 276.98 178.31 278.82 178.31C282.82 178.31 286.39 176.46 288.71 173.57C288.73 173.57 288.75 173.58 288.77 173.59C292.24 174.62 295.21 176.93 297.19 179.97C301.11 186.01 304.71 193.49 307.99 201.59C308.25 202.25 308.51 202.92 308.78 203.58C318.57 228.57 325.16 258.63 327.5 270.18L327.52 270.21Z" fill="white" stroke="#231F20" stroke-miterlimit="10"/>
<path d="M215.33 242.54C209 239.86 204.56 233.59 204.56 226.29C204.56 220.63 207.22 215.6 211.37 212.37" stroke="#231F20" stroke-miterlimit="10"/>
<path d="M209.1 255.47C208.02 258.01 206.88 260.57 205.72 263.08C205.67 263.19 205.62 263.3 205.57 263.41" stroke="#231F20" stroke-miterlimit="10"/>
<path d="M290.23 170.89C290.18 171.01 290.12 171.14 290.06 171.26" stroke="#231F20" stroke-miterlimit="10"/>
<path d="M218.06 175.57C218.18 176.06 218.28 176.5 218.27 176.6C215.23 176.55 210.86 177.42 206.91 180.49C206.74 180.12 206.7 179.68 206.47 179.33C204.14 175.61 208.66 171.69 208.94 171.36C209.1 171.18 209.24 170.99 209.38 170.8C211.38 167.95 210.27 164.1 207.17 162.52C204.29 161.06 202.31 158.07 202.31 154.61C202.31 152.81 202.84 151.14 203.76 149.74C200 148.01 197.38 144.2 197.38 139.79C197.38 134.31 201.4 129.77 206.65 128.96C208.6 130.64 210.79 132.06 213.16 133.13C211.63 135.22 209.36 139.44 210.39 145.06C210.44 145.3 210.48 145.54 210.52 145.77C210.84 147.4 211.17 148.89 211.52 150.27C212.83 155.41 214.13 159.06 215.49 162.33C217.1 166.2 217.52 170.44 217.62 172.62C217.67 173.61 217.8 174.6 218.04 175.57H218.06Z" fill="#6B3293" stroke="#231F20" stroke-miterlimit="10"/>
<path d="M308 178.31C307.58 179.01 307.12 179.69 306.63 180.35" stroke="#231F20" stroke-miterlimit="10"/>
<path d="M214.41 131.66C214.41 131.66 213.86 132.17 213.16 133.13" stroke="#231F20" stroke-miterlimit="10"/>
<path d="M311.05 199.69C310.3 200.32 309.49 200.85 308.65 201.26C308.39 201.4 308.11 201.52 307.84 201.64C304.57 193.54 300.96 186.06 297.04 180.02C295.06 176.98 292.09 174.67 288.62 173.64C288.6 173.64 288.58 173.63 288.56 173.62C286.23 176.51 282.66 178.36 278.67 178.36C276.83 178.36 275.07 177.96 273.48 177.25C273.23 181.96 269.33 185.71 264.56 185.71C260.89 185.71 257.74 183.49 256.36 180.33C255.89 179.24 255.63 178.04 255.63 176.78C255.63 175.12 256.08 173.58 256.86 172.25C254.71 170.9 253.29 168.52 253.29 165.8C253.29 162.45 255.46 159.6 258.46 158.58C258.94 155.61 261.14 153.2 264.01 152.44C264.41 151.69 264.95 151.01 265.56 150.44C266.5 150.13 267.34 149.61 268.02 148.93C269.29 147.64 270.02 145.83 269.83 143.85C269.55 140.92 267.17 138.51 264.24 138.2C260.46 137.8 257.26 140.76 257.26 144.47C257.26 144.63 257.26 144.8 257.27 144.96C257.36 146.08 256.55 147.13 255.43 147.31C255.4 147.31 255.38 147.31 255.36 147.32C254.03 147.52 252.87 146.47 252.79 145.13C252.64 142.5 251.12 140.06 248.7 138.81C248.46 138.68 248.22 138.57 247.95 138.47C245.06 136.99 243.09 133.99 243.09 130.52C243.09 129.69 243.2 128.89 243.41 128.13C238.5 132.78 231.86 135.63 224.56 135.63C222.34 135.63 220.18 135.37 218.11 134.86C216.39 134.45 214.73 133.88 213.16 133.15C210.79 132.07 208.6 130.66 206.65 128.98C204.34 126.99 202.37 124.63 200.83 121.99C205.39 109.46 217.41 100.53 231.51 100.53C238.2 100.53 244.43 102.54 249.6 106C252.18 104.55 255.16 103.72 258.34 103.72C266.46 103.72 273.32 109.14 275.48 116.56C284.4 117.56 291.34 125.13 291.34 134.31C291.34 135.71 291.18 137.07 290.87 138.38C302.86 141.03 311.84 151.72 311.84 164.51C311.84 169.57 310.44 174.31 308 178.34C309.76 179.1 311.37 180.28 312.68 181.85C317.16 187.24 316.43 195.24 311.04 199.72L311.05 199.69Z" fill="#795CA7" stroke="#231F20" stroke-miterlimit="10"/>
<path d="M210.13 202.57L211.37 212.37" stroke="#231F20" stroke-miterlimit="10"/>
<path d="M189.95 293.05C186.38 297.99 180.87 301.3 174.75 301.87C167.13 302.59 156.75 299.91 144.77 287.18C144.69 287.1 144.75 286.95 144.87 286.96C146.58 287.13 148.47 287.21 150.48 287.13C155.14 286.93 160.42 285.83 165.44 282.84C173 287.33 181.23 290.8 189.95 293.05Z" fill="white" stroke="#231F20" stroke-miterlimit="10"/>
<path d="M255.4 205.22C256.71 209.45 257.43 213.94 257.43 218.6C257.43 241.62 240.15 260.6 217.85 263.26" stroke="#231F20" stroke-miterlimit="10"/>
<path d="M201.61 295.3C200.09 298.39 198.76 300.41 197.85 300.88C197.58 300.83 197.3 300.79 197.04 300.73C196.53 300.01 196.56 297.8 197.06 294.61C198.57 294.88 200.08 295.11 201.62 295.31L201.61 295.3Z" fill="#795CA7" stroke="#231F20" stroke-miterlimit="10"/>
<path d="M197.2 293.73C197.15 294.03 197.1 294.32 197.06 294.6" stroke="#231F20" stroke-miterlimit="10"/>
<path d="M197.04 300.72C197.13 300.84 197.22 300.92 197.34 300.96C197.49 301.01 197.66 300.98 197.86 300.88" stroke="#231F20" stroke-miterlimit="10"/>
<path d="M212.14 263.59C212.03 264.13 211.92 264.69 211.8 265.26C210.95 269.15 209.68 273.82 208.08 278.78C205.93 285.42 203.61 291.27 201.62 295.3C200.09 295.1 198.57 294.87 197.07 294.6C194.67 294.18 192.3 293.66 189.96 293.05C185.02 291.78 180.25 290.11 175.66 288.09C174.41 287.54 173.16 286.96 171.93 286.36C170.16 285.49 168.4 284.56 166.7 283.57C166.28 283.34 165.86 283.09 165.45 282.85C165.28 282.75 165.12 282.65 164.95 282.55C164.37 282.21 163.8 281.85 163.24 281.5C155.08 276.36 147.77 270 141.53 262.68C139 259.72 136.66 256.6 134.53 253.34C132.74 250.64 132.71 247.07 134.65 244.47C134.73 244.36 134.82 244.25 134.89 244.16C133.88 239.88 135.81 237.34 137.2 236.13C137.2 236.11 137.17 236.08 137.16 236.06C136.08 233.96 135.28 231.49 135.2 228.72C135.1 225.46 136.78 223.53 138.96 222.41C140.51 221.61 142.29 221.2 143.9 221.01L144.25 229.86C147.81 233.11 154.71 237.41 167.78 240.6C167.87 237.52 168.9 234.67 170.6 232.33C170.82 232.04 171.04 231.75 171.28 231.48C171.94 230.71 172.67 230 173.47 229.37C173.47 229.37 173.477 229.37 173.49 229.37C174.08 228.91 174.82 228.68 175.56 228.8C175.6 228.8 175.63 228.8 175.66 228.82C176.62 229.02 177.43 229.53 178.03 230.26C178.63 230.98 178.98 231.91 178.98 232.92V232.94C178.98 233.84 178.49 234.66 177.8 235.24C177.68 235.34 177.57 235.44 177.46 235.54C177.32 235.67 177.2 235.79 177.08 235.92C176.94 236.07 176.82 236.21 176.7 236.36C176.58 236.51 176.46 236.66 176.36 236.83C175.55 238.03 175.07 239.49 175.07 241.06C175.07 242.45 175.43 243.86 176.09 245.08C176.53 245.91 177.11 246.66 177.79 247.27C178.83 248.52 179.93 249.73 181.1 250.84C181.69 251.42 182.29 251.99 182.93 252.52C184.6 254 186.38 255.33 188.26 256.52C189.54 257.35 190.87 258.11 192.25 258.79C196.41 260.89 200.95 262.35 205.73 263.07C205.73 263.07 205.75 263.07 205.76 263.07C205.83 263.07 205.91 263.09 205.98 263.1C208.01 263.4 210.08 263.56 212.18 263.57L212.14 263.59Z" fill="#F8991D" stroke="#240F32" stroke-miterlimit="10"/>
<path d="M183.55 204.38C183.39 204.55 183.25 204.7 183.09 204.87C178.75 209.61 176.42 215.16 175.23 219.05L175.09 215.7C174.98 213.2 173.21 211.09 170.77 210.53L152.23 206.34C151.24 206.12 150.19 206.32 149.36 206.9L145.44 209.59C144.58 209.96 143.91 210.72 143.66 211.66C143.56 211.97 143.52 212.3 143.54 212.65L143.87 221C142.26 221.19 140.48 221.6 138.93 222.4C139.4 215.85 140.29 208.83 141.7 201.32C141.7 201.32 144.28 185.8 149.43 185.26C151.92 185 153.44 185.95 154.37 187V186.28C154.37 180.95 158.69 176.63 164.02 176.63C165.5 176.63 166.83 177.23 167.8 178.19C168.06 178.45 168.29 178.74 168.5 179.05C169.17 175.03 171.17 167.97 177.03 168.9C180.26 169.41 182.56 172.34 182.56 175.61V181.07C182.56 183.41 180.72 185.35 178.38 185.47C178.29 185.47 178.21 185.47 178.14 185.47C176.83 185.47 175.63 184.91 174.79 184.03C173.91 188.11 172.41 196.42 172.87 203.42C173.54 202.27 174.79 200.5 176.81 198.94C177.3 198.55 177.85 198.18 178.45 197.82C178.86 197.58 179.33 197.41 179.8 197.37H179.87C182.09 197.21 184.14 198.84 184.46 201.05C184.64 202.31 184.27 203.49 183.56 204.38H183.55Z" fill="#F8991D" stroke="#240F32" stroke-miterlimit="10"/>
<path d="M139.16 239.25C138.97 238.99 137.97 237.53 137.15 236.04" stroke="#231F20" stroke-miterlimit="10"/>
<path d="M137.59 250C136.1 247.76 135.26 245.81 134.88 244.14" stroke="#231F20" stroke-miterlimit="10"/>
<path d="M169.21 240.93C168.72 240.82 168.23 240.7 167.76 240.59" stroke="#231F20" stroke-miterlimit="10"/>
<path d="M144.24 229.85C141.27 227.14 140.61 225.17 140.61 225.17" stroke="#231F20" stroke-miterlimit="10"/>
<path d="M154.38 187L154.48 187.12C155.27 188.08 155.64 189.33 155.64 190.57V192.55C155.64 194.99 153.67 196.96 151.23 196.96C150.23 196.96 149.33 196.56 148.68 195.9C148.03 195.24 147.62 194.35 147.62 193.35V190.77" stroke="#231F20" stroke-miterlimit="10"/>
<path d="M165.44 282.84C160.42 285.84 155.14 286.93 150.48 287.13C149.45 285.29 148.27 282.96 147.07 280.14C145.13 275.6 143.11 269.78 141.52 262.66C148.31 270.64 156.39 277.47 165.44 282.83V282.84Z" fill="#F8991D" stroke="#240F32" stroke-miterlimit="10"/>
<path d="M168.5 179.04C169.05 179.87 169.37 180.88 169.37 181.95V187.95C169.37 190.48 167.32 192.53 164.79 192.53C163.52 192.53 162.38 192.02 161.55 191.19C160.72 190.36 160.21 189.21 160.21 187.95V183.62" stroke="#231F20" stroke-miterlimit="10"/>
<path d="M173.51 176.62V180.83C173.51 182.08 173.99 183.2 174.8 184.03" stroke="#231F20" stroke-miterlimit="10"/>
<path d="M166.98 205.58C166.98 205.58 169.28 203.84 172.25 204.64C172.25 204.64 172.44 204.16 172.88 203.42" stroke="#231F20" stroke-miterlimit="10"/>
<path d="M171.27 231.46C171.04 231.73 170.81 232.02 170.59 232.31C168.89 234.65 167.86 237.5 167.77 240.58C154.7 237.39 147.8 233.09 144.24 229.84L143.89 220.99L143.56 212.64C143.54 212.29 143.58 211.96 143.68 211.65C143.93 210.71 144.6 209.96 145.46 209.58C146.07 209.31 146.76 209.22 147.48 209.38L168.21 214.06C169.59 214.37 170.6 215.58 170.66 217L171.24 230.6L171.28 231.45L171.27 231.46Z" fill="#6B3293" stroke="#231F20" stroke-miterlimit="10"/>
<path d="M175.64 228.8C175.46 228.76 174.58 228.71 173.48 229.35C173.48 229.35 173.473 229.35 173.46 229.35C172.77 229.74 172.01 230.39 171.27 231.46L171.23 230.61L170.65 217.01C170.59 215.59 169.58 214.39 168.2 214.07L147.47 209.39C146.76 209.22 146.06 209.31 145.45 209.59L149.37 206.9C150.2 206.32 151.25 206.13 152.24 206.34L170.78 210.53C173.22 211.09 174.99 213.2 175.1 215.7L175.24 219.05L175.61 227.95L175.65 228.8H175.64Z" fill="#795CA7" stroke="#231F20" stroke-miterlimit="10"/>
<path d="M150.48 287.13C148.39 287.22 146.42 287.13 144.66 286.94C144.46 286.92 144.34 286.72 144.4 286.53C145.13 284.07 146.03 281.95 147.07 280.14C148.27 282.95 149.45 285.28 150.48 287.13Z" fill="#795CA7" stroke="#231F20" stroke-miterlimit="10"/>
<path d="M228.14 300.72C255.34 296.16 299.01 280.74 320.24 272.9C320.91 279.21 321.87 287.82 321.87 287.82" stroke="#240F32" stroke-miterlimit="10"/>
<path d="M192.21 258.8C191.34 263.32 189.37 268.65 186.43 274.02C183.17 279.98 179.31 284.9 175.65 288.09C172.45 290.89 169.4 292.36 167.07 292.05C166.57 291.98 166.1 291.83 165.67 291.6C165.23 291.36 164.86 291.04 164.53 290.65C165.16 290.55 165.82 290.35 166.5 290.05C168.18 289.33 170.03 288.07 171.92 286.36C175.45 283.17 179.14 278.4 182.27 272.67C185.41 266.93 187.44 261.23 188.22 256.53C188.64 254.03 188.7 251.82 188.4 250.03C188.16 248.64 187.71 247.49 187.02 246.67C188.14 246.47 189.17 246.6 190.03 247.07C190.89 247.54 191.54 248.33 191.99 249.38C192.93 251.56 192.98 254.87 192.21 258.8Z" fill="#ED1C24" stroke="#231F20" stroke-miterlimit="10"/>
<path d="M188.41 250.02C186.92 250.66 185.29 251.72 183.63 253.15C182.52 252.23 181.46 251.25 180.46 250.23C182.82 248.24 185.08 246.99 187.02 246.66C187.71 247.48 188.16 248.63 188.4 250.02H188.41Z" fill="#8E1A1C" stroke="#231F20" stroke-miterlimit="10"/>
<path d="M166.51 290.04C165.82 290.34 165.16 290.54 164.54 290.64C163.05 288.86 162.64 285.59 163.23 281.47C164.37 282.19 165.53 282.89 166.7 283.56C166.28 286.04 166.22 288.25 166.52 290.04H166.51Z" fill="#8E1A1C" stroke="#231F20" stroke-miterlimit="10"/>
<path d="M217.84 263.26C216.06 263.48 214.26 263.59 212.43 263.59C212.34 263.59 212.23 263.59 212.14 263.59C210.04 263.59 207.97 263.43 205.94 263.12C206.75 261.18 207.86 258.52 209.1 255.48C209.13 255.41 209.16 255.35 209.19 255.28C211.12 250.75 214.37 242.1 214.37 242.1L215.15 242.47L215.2 242.83L217.85 263.26H217.84Z" stroke="#231F20" stroke-miterlimit="10"/>
<path d="M214.37 242.09C212.9 246.24 211.12 250.74 209.19 255.27C210.83 251.23 212.69 246.55 214.37 242.09Z" stroke="#231F20" stroke-miterlimit="10"/>
<path d="M225.38 301.15C245.55 298.01 263.34 287.65 276.01 272.8C288.46 258.21 295.97 239.28 295.97 218.6C295.97 214.17 295.63 209.82 294.96 205.58" stroke="#231F20" stroke-miterlimit="10"/>
<mask id="mask1_1961_250" style="mask-type:luminance" maskUnits="userSpaceOnUse" x="175" y="173" width="153" height="130">
<path d="M327.52 270.21C325.6 270.94 323.21 271.83 320.43 272.86C299.2 280.71 255.53 296.12 228.33 300.68H228.28C227.36 300.84 226.45 300.98 225.57 301.11C225.29 301.15 225.01 301.19 224.74 301.23C220.78 301.81 216.74 302.1 212.63 302.1C207.66 302.1 202.79 301.67 198.06 300.83C198.96 300.36 200.29 298.34 201.82 295.25C203.81 291.23 206.13 285.37 208.27 278.73C209.87 273.76 211.14 269.1 211.99 265.21C212.12 264.64 212.23 264.07 212.34 263.53C212.43 263.53 212.54 263.53 212.63 263.53C214.46 263.53 216.26 263.42 218.04 263.2L215.39 242.77L215.34 242.41L214.56 242.04C214.56 242.04 211.31 250.69 209.38 255.22C209.35 255.29 209.32 255.35 209.29 255.42C208.06 258.46 206.95 261.12 206.13 263.06C206.06 263.06 205.98 263.04 205.91 263.03C205.91 263.03 205.89 263.03 205.88 263.03C194.68 261.36 184.83 255.55 177.94 247.21C177.35 246.5 176.78 245.76 176.24 245.02C175.59 243.8 175.22 242.39 175.22 241C175.22 239.43 175.7 237.98 176.51 236.77C176.62 236.61 176.73 236.45 176.85 236.31C176.97 236.16 177.09 236.01 177.23 235.87C177.35 235.74 177.48 235.61 177.61 235.49C177.72 235.38 177.84 235.28 177.95 235.19C177.98 235.16 178.02 235.13 178.06 235.1C178.73 234.56 179.14 233.75 179.14 232.89V232.87C179.14 231.86 178.78 230.93 178.18 230.2C181.98 221.87 190.81 203.11 199.68 188.96C202.12 185.07 204.63 182.33 207.07 180.45C211.03 177.38 214.8 176.53 217.85 176.59C217.98 176.59 218.12 176.59 218.25 176.59C222.6 184.8 229.78 184.47 235.74 182.2C236.44 183.49 237.69 186.39 237.56 190.36C241.7 190.36 246.9 188.66 252.97 183.18C254.13 182.14 255.31 181.17 256.51 180.28C257.88 183.44 261.04 185.66 264.71 185.66C269.48 185.66 273.39 181.91 273.63 177.2C275.22 177.91 276.98 178.31 278.82 178.31C282.82 178.31 286.39 176.46 288.71 173.57C288.73 173.57 288.75 173.58 288.77 173.59C292.24 174.62 295.21 176.93 297.19 179.97C301.11 186.01 304.71 193.49 307.99 201.59C308.25 202.25 308.51 202.92 308.78 203.58C318.57 228.57 325.16 258.63 327.5 270.18L327.52 270.21Z" fill="white"/>
</mask>
<g mask="url(#mask1_1961_250)">
<path d="M185.851 217.519L197.724 212.657C199.227 212.042 199.946 210.325 199.331 208.822L194.468 196.949C193.853 195.446 192.136 194.727 190.634 195.343L178.761 200.205C177.258 200.82 176.539 202.537 177.154 204.04L182.016 215.913C182.632 217.415 184.349 218.134 185.851 217.519Z" stroke="#ED1C53" stroke-miterlimit="10"/>
<path d="M282.991 190.453L293.6 189.135C295.798 188.862 297.358 186.859 297.085 184.662L295.767 174.053C295.495 171.855 293.492 170.295 291.294 170.568L280.685 171.886C278.488 172.159 276.927 174.162 277.2 176.359L278.518 186.968C278.791 189.166 280.794 190.726 282.991 190.453Z" stroke="#ED1C53" stroke-miterlimit="10"/>
<path d="M303.908 258.872L307.816 260.617C309.097 261.188 310.599 260.613 311.171 259.332L312.915 255.424C313.487 254.143 312.912 252.641 311.631 252.069L307.722 250.325C306.441 249.753 304.939 250.328 304.367 251.609L302.623 255.518C302.051 256.799 302.627 258.301 303.908 258.872Z" stroke="#ED1C53" stroke-miterlimit="10"/>
<path d="M272.817 229.515L274.59 235.592C274.701 235.973 275.101 236.193 275.482 236.081L281.559 234.309C281.941 234.198 282.16 233.798 282.049 233.416L280.276 227.339C280.165 226.958 279.765 226.738 279.384 226.85L273.307 228.622C272.925 228.734 272.706 229.133 272.817 229.515Z" stroke="#ED1C53" stroke-miterlimit="10"/>
<path d="M193.959 279.189L194.866 282.3C194.978 282.681 195.377 282.9 195.759 282.789L198.869 281.882C199.251 281.771 199.47 281.371 199.359 280.989L198.452 277.879C198.341 277.497 197.941 277.278 197.559 277.389L194.449 278.296C194.067 278.408 193.848 278.807 193.959 279.189Z" stroke="#ED1C53" stroke-miterlimit="10"/>
<path d="M235.404 267.111L240.414 279.345C240.945 280.643 242.429 281.264 243.727 280.732L255.961 275.722C257.259 275.191 257.88 273.708 257.349 272.409L252.339 260.175C251.807 258.877 250.324 258.256 249.025 258.788L236.792 263.798C235.493 264.329 234.872 265.812 235.404 267.111Z" stroke="#ED1C53" stroke-miterlimit="10"/>
<path d="M219.071 218.19L221.663 221.596C222.513 222.712 224.106 222.928 225.222 222.079L228.628 219.487C229.745 218.637 229.961 217.044 229.112 215.927L226.52 212.521C225.67 211.405 224.077 211.189 222.96 212.038L219.554 214.63C218.438 215.48 218.222 217.073 219.071 218.19Z" stroke="#ED1C53" stroke-miterlimit="10"/>
</g>
<path d="M235.21 190.21C236.01 190.33 236.88 190.41 237.58 190.37Z" fill="#F8991D"/>
<path d="M235.21 190.21C236.01 190.33 236.88 190.41 237.58 190.37" stroke="#240F32" stroke-miterlimit="10"/>
<path d="M268.01 148.9C267.09 149.25 266.26 149.77 265.55 150.42C264.93 150.99 264.4 151.67 264 152.42C261.13 153.19 258.93 155.59 258.45 158.56C255.45 159.58 253.28 162.43 253.28 165.78C253.28 168.51 254.71 170.89 256.85 172.23C256.07 173.56 255.62 175.1 255.62 176.76C255.62 178.03 255.88 179.22 256.35 180.31C255.15 181.2 253.97 182.17 252.81 183.21C246.74 188.69 241.54 190.39 237.4 190.39C237.53 186.42 236.28 183.52 235.58 182.23C226.66 185.79 221.67 181.71 219.35 178.64C218.29 177.23 217.78 175.49 217.76 173.73C217.71 169.14 216.77 165.86 215.51 162.32C214.32 158.98 212.84 155.4 211.54 150.26C211.19 148.88 210.85 147.39 210.54 145.76C210.49 145.52 210.45 145.29 210.41 145.05C209.37 139.42 211.65 135.21 213.18 133.12C214.75 133.85 216.41 134.42 218.13 134.83C220.2 135.33 222.36 135.6 224.58 135.6C231.88 135.6 238.52 132.75 243.43 128.1C243.22 128.86 243.11 129.66 243.11 130.49C243.11 133.96 245.08 136.96 247.97 138.44C248.21 138.57 248.46 138.68 248.72 138.78C251.14 140.03 252.65 142.47 252.81 145.1C252.89 146.44 254.06 147.49 255.38 147.29C255.49 147.26 255.49 147.35 256.4 146.53C256.96 146.03 257.28 145.31 257.28 144.56C257.28 144.52 257.28 144.48 257.28 144.44C257.28 140.53 260.85 137.44 264.92 138.28C267.27 138.76 269.18 140.64 269.71 142.98C270.23 145.28 269.48 147.44 268.04 148.9H268.01Z" fill="#F8991D" stroke="#240F32" stroke-miterlimit="10"/>
<path d="M245.8 176.19C245.8 176.19 241.24 180.09 235.58 182.25" stroke="#231F20" stroke-miterlimit="10"/>
<path d="M238.379 156.222C239.263 155.891 239.419 154.126 238.728 152.279C238.037 150.433 236.759 149.204 235.875 149.536C234.99 149.867 234.834 151.632 235.525 153.479C236.217 155.325 237.494 156.553 238.379 156.222Z" fill="#231F20"/>
<path d="M236.48 149.55C236.48 149.55 239.26 150.82 240.57 148.02C240.57 148.02 240.73 152.16 236.96 150.83L236.48 149.55Z" fill="#231F20"/>
<path d="M221.039 161.178C221.924 160.847 222.08 159.082 221.389 157.235C220.697 155.389 219.42 154.161 218.535 154.492C217.651 154.823 217.495 156.588 218.186 158.435C218.878 160.281 220.155 161.51 221.039 161.178Z" fill="#231F20"/>
<path d="M218 154.94C218 154.94 215.98 157.23 213.65 155.2C213.65 155.2 215.19 159.05 218.09 156.3L218.01 154.93L218 154.94Z" fill="#231F20"/>
<path d="M228.81 145.9C228.81 145.9 233.92 138.82 241.44 140.59C240.89 139.09 239.64 137.93 238.08 137.58C235.73 137.04 232.11 137.22 228.45 141.28L228.81 145.9Z" fill="#231F20"/>
<path d="M210.99 146.6C213.24 143.34 218.37 144.9 218.37 144.9L220.65 149.43C220.65 149.43 214.41 145.9 211.66 149.9L210.98 146.6H210.99Z" fill="#231F20"/>
<path d="M225.32 155.53C225.32 155.53 227.81 160.69 226.52 163.42C225.23 166.15 229.53 166.15 229.53 166.15" stroke="#231F20" stroke-miterlimit="10"/>
<path d="M235.35 172.41C236.736 172.41 237.86 171.286 237.86 169.9C237.86 168.514 236.736 167.39 235.35 167.39C233.964 167.39 232.84 168.514 232.84 169.9C232.84 171.286 233.964 172.41 235.35 172.41Z" fill="#231F20"/>
<path d="M243.56 159.26C244.797 159.26 245.8 158.257 245.8 157.02C245.8 155.783 244.797 154.78 243.56 154.78C242.323 154.78 241.32 155.783 241.32 157.02C241.32 158.257 242.323 159.26 243.56 159.26Z" fill="#E15E26"/>
<path d="M219.79 167.1C221.027 167.1 222.03 166.097 222.03 164.86C222.03 163.623 221.027 162.62 219.79 162.62C218.553 162.62 217.55 163.623 217.55 164.86C217.55 166.097 218.553 167.1 219.79 167.1Z" fill="#E15E26"/>
<path d="M267.75 152.16C267.75 153.26 267.28 154.25 266.53 154.93C265.86 155.55 264.97 155.92 263.99 155.92C263.57 155.92 263.16 155.85 262.78 155.72C261.28 155.22 260.22 153.81 260.22 152.16C260.22 150.97 260.77 149.9 261.64 149.21C262.04 148.89 262.51 148.65 263.03 148.51C263.34 148.43 263.66 148.38 264 148.38C264.89 148.38 265.7 148.69 266.35 149.21C267.22 149.89 267.77 150.96 267.77 152.16H267.75Z" fill="white" stroke="#231F20" stroke-miterlimit="10"/>
<path d="M260.64 142.74C261.18 142.01 262.03 141.5 263.08 141.44C264.28 141.37 265.45 142.03 266.02 143.09C266.44 143.86 266.51 144.7 266.32 145.45" stroke="#231F20" stroke-miterlimit="10"/>
</g>
<defs>
<clipPath id="clip0_1961_250">
<rect width="316.09" height="202.61" fill="white" transform="translate(12 100)"/>
</clipPath>
</defs>
</svg>
