<svg width="400" height="400" xmlns="http://www.w3.org/2000/svg">
<path d="M202.26 104.61L198.42 135.88L237.13 134.14C245.63 133.76 253.71 130.32 259.87 124.45L268.56 116.18C266.28 115.13 263.86 114.01 261.42 112.88C249.67 107.44 236.88 104.6 223.93 104.6H202.27L202.26 104.61Z" fill="white"/>
<path d="M122.51 133.56C129.43 138.19 138.85 138.71 142.69 138.38L198.42 135.88L202.26 104.61H186.88C179.83 104.29 162.66 106.15 150.36 116.19C138.06 126.23 126.66 131.95 122.49 133.56H122.51Z" fill="white"/>
<path d="M74.46 161.54V146.1C69.98 147.71 61.01 154.21 61.01 167.33C72.54 167.33 74.78 163.47 74.46 161.54Z" fill="white"/>
<path d="M198.42 135.88L196.5 149.96V184.7H136.61C136.82 183.45 136.92 182.16 136.92 180.84C136.92 171.68 131.62 163.76 123.93 160C120.88 158.52 117.46 157.68 113.85 157.68C101.12 157.68 90.79 168.05 90.79 180.84C90.79 182.5 90.96 184.11 91.3 185.66H65.81C64.21 185.02 61 180.45 61 167.33C72.54 167.33 74.78 163.47 74.46 161.54V146.09L122.5 133.56C123.08 133.94 123.67 134.3 124.29 134.63C130.97 138.27 139.17 138.68 142.68 138.39L198.42 135.89V135.88Z" fill="#B5B9DD" stroke="#341E54" stroke-miterlimit="10"/>
<path d="M307.97 141.28C305.85 141.28 304.13 143.01 304.13 145.14V158.65C304.13 160.78 305.85 162.51 307.97 162.51H317.58V141.28H307.97Z" fill="white"/>
<path fill-rule="evenodd" clip-rule="evenodd" d="M113.86 204C125.29 204 134.77 195.65 136.6 184.7C136.81 183.45 136.92 182.16 136.92 180.84C136.92 168.05 126.59 157.68 113.86 157.68C101.12 157.68 90.7998 168.05 90.7998 180.84C90.7998 182.49 90.9698 184.11 91.2998 185.66C93.5098 196.13 102.77 203.99 113.86 203.99V204ZM125.39 180.84C125.39 174.44 120.23 169.26 113.86 169.26C107.49 169.26 102.33 174.44 102.33 180.84C102.33 187.24 107.49 192.42 113.86 192.42C120.23 192.42 125.39 187.24 125.39 180.84Z" fill="#8C8DC5" stroke="#231F20" stroke-miterlimit="10"/>
<path d="M113.86 169.26C120.23 169.26 125.39 174.44 125.39 180.84C125.39 187.24 120.23 192.42 113.86 192.42C107.49 192.42 102.33 187.24 102.33 180.84C102.33 174.44 107.49 169.26 113.86 169.26Z" fill="white"/>
<path d="M284.59 184.7H301.24C306.69 184.06 317.58 178.72 317.58 162.51H307.97C305.85 162.51 304.13 160.78 304.13 158.65V145.14C304.13 143.01 305.85 141.28 307.97 141.28H317.58V136.45C317.26 133.88 314.5 128.73 306.05 128.73C295.48 128.73 287.79 124.87 279.14 121.01C276.78 119.96 272.95 118.21 268.56 116.19L259.87 124.46C253.71 130.33 245.63 133.77 237.13 134.15L198.42 135.89L196.5 149.97V184.71H239.1C238.89 183.45 238.78 182.17 238.78 180.85C238.78 168.06 249.11 157.69 261.84 157.69C274.58 157.69 284.9 168.06 284.9 180.85C284.9 182.17 284.79 183.45 284.58 184.71L284.59 184.7Z" fill="#B5B9DD" stroke="#341E54" stroke-miterlimit="10"/>
<path d="M221.48 154.78H207.07M176.32 154.78H161.91M198.42 135.88L196.5 149.96V184.7M198.42 135.88L202.26 104.61M198.42 135.88L237.13 134.15C245.63 133.77 253.71 130.32 259.87 124.46L268.57 116.19C266.3 115.14 263.87 114.03 261.43 112.89C249.67 107.45 236.88 104.61 223.93 104.61H202.27M239.11 184.7H196.51H194.17M194.55 184.7H136.62C136.83 183.45 136.93 182.16 136.93 180.84C136.93 171.68 131.63 163.76 123.94 160C120.89 158.51 117.47 157.68 113.86 157.68C101.13 157.68 90.8 168.05 90.8 180.84C90.8 182.49 90.97 184.11 91.31 185.66C93.51 196.14 102.78 203.99 113.86 203.99C120.53 203.99 126.53 201.15 130.73 196.62C133.76 193.38 135.84 189.27 136.61 184.7M61.02 167.33C61.02 180.46 64.23 185.02 65.83 185.66H91.32M74.48 146.1V161.55C74.79 163.47 72.56 167.34 61.02 167.34C61.02 154.21 70 147.72 74.48 146.11M122.52 133.58C123.1 133.96 123.69 134.32 124.31 134.65C130.99 138.29 139.19 138.7 142.7 138.41L198.44 135.91M74.48 146.12L122.52 133.59C123.04 133.39 123.68 133.11 124.43 132.78C129.58 130.46 139.64 124.99 150.38 116.22C151.95 114.94 153.59 113.8 155.28 112.78C164.57 107.14 175.31 105.14 182.38 104.7C184.14 104.6 185.67 104.58 186.9 104.64H187.38H197.32H202.27M317.59 141.31V136.49M268.58 116.23C272.96 118.25 276.8 120 279.16 121.05C287.81 124.91 295.5 128.77 306.07 128.77C314.52 128.77 317.27 133.91 317.6 136.48M284.61 184.72H301.26C303.35 184.48 306.25 183.54 309.02 181.55C313.47 178.37 317.6 172.51 317.6 162.52M284.61 184.71C284.82 183.46 284.92 182.17 284.92 180.85C284.92 176.86 283.92 173.12 282.15 169.85C280.82 167.37 279.04 165.15 276.93 163.33C274.9 161.56 272.55 160.14 269.98 159.18C267.45 158.22 264.72 157.7 261.85 157.7C259.28 157.7 256.79 158.13 254.48 158.92C245.37 162 238.8 170.65 238.8 180.86C238.8 182.18 238.9 183.47 239.11 184.72C240.94 195.68 250.43 204.02 261.85 204.02C273.28 204.02 282.77 195.68 284.6 184.72M113.85 169.26C107.48 169.26 102.32 174.44 102.32 180.83C102.32 187.23 107.48 192.41 113.85 192.41C120.23 192.41 125.39 187.23 125.39 180.83C125.39 174.43 120.23 169.26 113.85 169.26ZM317.6 141.3V162.53H307.99C305.87 162.53 304.15 160.8 304.15 158.67V145.16C304.15 143.03 305.87 141.3 307.99 141.3H317.6Z" stroke="#341E54" stroke-miterlimit="10"/>
<path fill-rule="evenodd" clip-rule="evenodd" d="M261.84 203.99C273.27 203.99 282.75 195.64 284.58 184.69C284.79 183.43 284.9 182.15 284.9 180.83C284.9 168.04 274.57 157.67 261.84 157.67C249.1 157.67 238.78 168.04 238.78 180.83C238.78 182.15 238.89 183.43 239.1 184.69C240.93 195.64 250.42 203.99 261.84 203.99ZM273.37 180.83C273.37 174.43 268.21 169.25 261.84 169.25C255.47 169.25 250.31 174.43 250.31 180.83C250.31 187.23 255.47 192.41 261.84 192.41C268.21 192.41 273.37 187.23 273.37 180.83Z" fill="#8C8DC5" stroke="#231F20" stroke-miterlimit="10"/>
<path d="M334.73 302.31H221.69C221.41 297.37 220.38 282.65 217.47 269.53C217.72 268.44 217.95 267.38 218.15 266.34C218.78 263.23 219.21 260.42 219.51 258.22C218.76 258.84 217.85 259.26 216.82 259.43C216.17 259.53 215.49 259.64 214.77 259.7C202.06 261.39 190.36 257.85 183.21 254.86C182.18 254.43 181.3 253.8 180.6 253.03C178.65 250.91 178.05 247.76 179.32 244.95C179.45 244.67 179.57 244.38 179.71 244.08C180.84 241.48 182.02 238.3 182.9 234.76C184.55 228.13 191.31 190.96 227.76 173.5C228.36 173.22 228.97 172.93 229.58 172.66C229.9 172.51 230.23 172.36 230.56 172.23C230.58 172.22 230.59 172.22 230.62 172.21C231.16 171.97 231.69 171.74 232.24 171.53C232.87 171.28 233.49 171.03 234.13 170.78C234.2 170.76 234.26 170.73 234.32 170.71C234.78 170.54 235.24 170.37 235.71 170.21C236.22 170.02 236.75 169.83 237.28 169.65C237.91 169.44 238.54 169.24 239.18 169.03C239.68 168.87 240.19 168.72 240.71 168.59C241.27 168.42 241.84 168.26 242.41 168.11C242.48 168.09 242.56 168.06 242.63 168.05C242.7 168.03 242.77 168.02 242.84 167.99C243.43 167.82 244.04 167.67 244.64 167.52C245.41 167.34 246.2 167.14 247 166.97C247.07 166.96 247.15 166.94 247.22 166.92C247.38 166.89 247.56 166.84 247.73 166.81C248.46 166.65 249.2 166.5 249.95 166.37C250.21 166.32 250.49 166.28 250.77 166.23C250.86 166.21 250.94 166.2 251.03 166.18C251.54 166.08 252.07 165.99 252.59 165.91H252.61C252.99 165.84 253.36 165.78 253.75 165.74C254.35 165.64 254.97 165.56 255.58 165.48C255.85 165.43 256.13 165.4 256.4 165.37C256.5 165.36 256.59 165.35 256.7 165.34C257.24 165.27 257.77 165.21 258.31 165.16C258.72 165.11 259.13 165.07 259.55 165.03C259.97 164.98 260.39 164.95 260.81 164.92C261.77 164.83 262.74 164.76 263.72 164.7C263.8 164.69 263.88 164.69 263.96 164.69C264.46 164.66 264.96 164.63 265.48 164.6C265.99 164.58 266.51 164.57 267.02 164.54C268.07 164.49 269.12 164.47 270.19 164.46H270.25C271.87 164.43 273.52 164.44 275.21 164.47C275.48 164.63 275.77 164.79 276.05 164.96C294.81 176.04 325.27 205.55 333.51 282.06C334.24 288.78 334.63 295.54 334.73 302.3V302.31Z" fill="#6C3593" stroke="#231F20" stroke-miterlimit="10"/>
<path d="M130.22 170.04C120.45 168.92 111.25 156.77 108.74 140.79C106.24 124.82 111.28 110.44 120.22 106.38C129.97 107.5 139.18 119.66 141.68 135.63C144.18 151.59 139.15 165.96 130.22 170.04Z" stroke="#231F20" stroke-miterlimit="10"/>
<path d="M132.27 175.82L126.47 176.72C113.65 178.73 100.61 163.45 97.3399 142.58C94.0699 121.71 101.81 103.16 114.63 101.15L122.67 99.8901C121.3 100.1 120 100.5 118.75 101.09C115.17 102.72 112.13 105.79 109.79 109.85C105.33 117.62 103.45 129.07 105.37 141.32C107.29 153.55 112.57 163.87 119.19 169.91C122.65 173.07 126.47 175.06 130.37 175.54C130.98 175.62 131.61 175.66 132.23 175.66L132.28 175.83L132.27 175.82Z" fill="#F8991D" stroke="#231F20" stroke-miterlimit="10"/>
<path d="M130.22 170.04C120.45 168.92 111.25 156.77 108.74 140.79C106.24 124.82 111.28 110.44 120.22 106.38C129.97 107.5 139.18 119.66 141.68 135.63C144.18 151.59 139.15 165.96 130.22 170.04Z" stroke="#231F20" stroke-miterlimit="10"/>
<path d="M130.22 170.04C120.45 168.92 111.25 156.77 108.74 140.79C106.24 124.82 111.28 110.44 120.22 106.38C129.97 107.5 139.18 119.66 141.68 135.63C144.18 151.59 139.15 165.96 130.22 170.04Z" stroke="#231F20" stroke-miterlimit="10"/>
<path d="M151.8 134.04C148.53 113.17 135.49 97.8802 122.67 99.8902C121.3 100.1 120 100.5 118.75 101.09C115.17 102.72 112.13 105.79 109.79 109.85C105.33 117.62 103.45 129.07 105.37 141.32C107.29 153.55 112.57 163.87 119.19 169.91C122.65 173.07 126.47 175.06 130.37 175.54C130.98 175.62 131.61 175.66 132.23 175.66C132.99 175.66 133.75 175.6 134.52 175.48C137.09 175.07 139.46 174.01 141.57 172.39C150 165.94 154.42 150.74 151.81 134.06L151.8 134.04ZM138.47 168.17C136.98 169.1 135.37 169.72 133.65 169.99C132.5 170.17 131.35 170.19 130.21 170.04C120.44 168.92 111.24 156.77 108.73 140.79C106.23 124.82 111.27 110.44 120.21 106.38C121.25 105.9 122.37 105.55 123.52 105.37C125.25 105.09 126.99 105.2 128.69 105.63C137.79 107.89 146.08 119.54 148.44 134.57C150.8 149.61 146.46 163.25 138.48 168.17H138.47Z" fill="#FFCE06" stroke="#231F20" stroke-miterlimit="10"/>
<path d="M138.47 168.17C136.98 169.1 135.37 169.72 133.65 169.99C132.5 170.17 131.35 170.19 130.21 170.04C139.15 165.96 144.18 151.59 141.67 135.63C139.17 119.66 129.96 107.51 120.21 106.38C121.25 105.9 122.37 105.55 123.52 105.37C125.25 105.09 126.99 105.2 128.69 105.63C137.79 107.89 146.08 119.54 148.44 134.57C150.8 149.61 146.46 163.25 138.48 168.17H138.47Z" fill="#F8991D" stroke="#231F20" stroke-miterlimit="10"/>
<path opacity="0.5" d="M130.22 170.04C120.45 168.92 111.25 156.77 108.74 140.79C106.24 124.82 111.28 110.44 120.22 106.38C129.97 107.5 139.18 119.66 141.68 135.63C144.18 151.59 139.15 165.96 130.22 170.04Z" fill="white" stroke="#231F20" stroke-miterlimit="10"/>
<path d="M144.41 181.3C141.47 184.93 137.51 185.02 134.5 184.33L132.27 175.81L134.51 175.46C137.08 175.05 139.45 173.99 141.56 172.37L144.41 181.3Z" fill="#F8991D" stroke="#231F20" stroke-miterlimit="10"/>
<path d="M161.54 235.07C160.97 238.83 157.6 241.59 153.74 241.35C151.78 241.22 150.05 240.35 148.81 239.03L147.01 232.16L134.5 184.34C137.52 185.02 141.47 184.94 144.41 181.31L159.53 228.78L161.53 235.08L161.54 235.07Z" fill="#6C3593" stroke="#231F20" stroke-miterlimit="10"/>
<path d="M218.16 266.35C217.96 267.39 217.73 268.45 217.48 269.54C214.27 283.54 207.27 301.34 192.61 300.35C169.8 298.79 150.82 270.17 146.54 242.98C143.9 240.11 140.99 238.64 137.97 236.74C133.63 233.99 135.24 227.6 135.24 227.6C132.53 225.18 132.39 219.28 132.62 215.56C130.16 213.38 128.42 210.55 129.3 207.07C130.54 202.21 134.94 200.68 138.66 200.29L140.45 207.11C143.31 207.74 147.59 208.17 152.61 207.06L150.83 201.47C157.64 199.4 162.02 203.26 165.45 208.58C168.47 213.27 170.42 218.56 171.44 224.05C172.49 229.61 175.06 237.23 179.72 244.09C179.58 244.39 179.46 244.67 179.33 244.96C178.05 247.76 178.66 250.92 180.61 253.04L179.54 261.24C185.73 264.95 199.5 271.19 216.82 266.72C217.26 266.61 217.71 266.49 218.16 266.36V266.35Z" fill="#F89921" stroke="#251132" stroke-miterlimit="10"/>
<path d="M219.52 258.22C220.89 257.13 221.74 255.42 221.78 253.55V253.49C221.91 245.71 225.25 226.25 225.25 226.25" stroke="#231F20" stroke-miterlimit="10"/>
<path d="M179.54 261.23L178.24 271.26" stroke="#231F20" stroke-miterlimit="10"/>
<path d="M146.53 242.97C146.31 241.56 146.12 240.14 145.98 238.74" stroke="#231F20" stroke-miterlimit="10"/>
<path d="M136.7 218.37C135.32 217.61 133.87 216.67 132.61 215.54" stroke="#231F20" stroke-miterlimit="10"/>
<path d="M156.43 205.93C155.12 206.41 153.83 206.78 152.6 207.06" stroke="#231F20" stroke-miterlimit="10"/>
<path d="M140.45 207.11C138.08 206.59 136.7 205.94 136.7 205.94" stroke="#231F20" stroke-miterlimit="10"/>
<path d="M219.52 258.22C219.22 260.42 218.79 263.23 218.16 266.34C217.7 266.48 217.26 266.59 216.82 266.7C199.5 271.17 185.73 264.93 179.54 261.22L180.61 253.02C181.3 253.79 182.19 254.42 183.22 254.85C190.36 257.85 202.06 261.38 214.78 259.69C215.5 259.62 216.18 259.52 216.83 259.42C217.86 259.25 218.77 258.83 219.52 258.21V258.22Z" fill="#6C3593" stroke="#231F20" stroke-miterlimit="10"/>
<path d="M268.26 151.47C268.21 151.73 268.17 151.98 268.13 152.21C267.71 152.21 267.29 152.21 266.87 152.22C260.21 152.3 254.52 153.47 249.69 155.3C247.14 152.9 242.67 147.7 241.46 139.91C244.02 139.23 245.97 136.22 245.97 132.61C245.97 128.5 243.45 125.17 240.36 125.17C239.52 125.17 238.71 125.42 237.99 125.88C236.14 127.01 234.85 129.45 234.77 132.29C235.02 133.66 231.18 136.23 230.58 135.35C229.57 133.89 229.54 127.16 230.58 125.15C217.8 124.9 213.01 118.06 211 113.72L207.07 117.15C205.28 114.42 204.05 112.01 203.27 109.88C202.93 108.94 202.67 108.06 202.49 107.23C202.24 106.09 202.15 105.04 202.17 104.08C202.44 94.0602 216.28 93.7901 216.28 93.7901C234.75 87.2501 265.54 89.6301 269.77 106.38C273.19 119.88 269.72 143.01 268.24 151.47H268.26Z" fill="#7A5DA6" stroke="#231F20" stroke-miterlimit="10"/>
<path d="M275.86 164.5C275.63 164.49 275.42 164.48 275.2 164.48C273.51 164.45 271.86 164.43 270.24 164.47H270.18C269.11 164.48 268.06 164.5 267.01 164.55C266.5 164.57 265.98 164.58 265.47 164.61C264.96 164.63 264.46 164.66 263.95 164.7C263.87 164.7 263.79 164.7 263.71 164.71C262.73 164.77 261.76 164.84 260.8 164.93C260.38 164.96 259.96 165 259.54 165.04C259.12 165.07 258.71 165.12 258.3 165.17C257.76 165.23 257.23 165.28 256.69 165.35C256.59 165.36 256.5 165.37 256.39 165.38C256.12 165.41 255.84 165.45 255.57 165.49C254.97 165.59 254.37 165.68 253.76 165.75C253.36 165.8 252.98 165.85 252.59 165.92H252.57C252.05 166 251.52 166.09 251.01 166.19C250.92 166.2 250.84 166.21 250.75 166.24C250.47 166.29 250.19 166.33 249.93 166.38C249.18 166.52 248.44 166.66 247.71 166.82C247.54 166.85 247.36 166.9 247.2 166.93C247.13 166.94 247.05 166.96 246.98 166.98C246.18 167.15 245.4 167.34 244.62 167.53C244 167.68 243.41 167.83 242.82 168C242.75 168.02 242.68 168.03 242.61 168.06C242.54 168.07 242.46 168.09 242.39 168.12C241.82 168.27 241.25 168.43 240.69 168.6C240.18 168.74 239.66 168.88 239.16 169.04C238.52 169.25 237.88 169.45 237.26 169.66C236.66 169.86 236.08 170.07 235.5 170.29L234.23 170.74C234.23 170.74 234.15 170.77 234.1 170.79C233.46 171.04 232.82 171.29 232.21 171.54C231.66 171.76 231.13 171.98 230.59 172.22C230.57 172.23 230.56 172.23 230.53 172.24C230.2 172.38 229.87 172.52 229.55 172.67C228.93 172.94 228.33 173.23 227.73 173.51C228.46 172.29 229.38 170.91 230.49 169.47C234.28 164.54 240.39 158.75 249.65 155.3C254.48 153.48 260.17 152.3 266.83 152.22C266.83 152.22 266.84 152.22 266.85 152.22C268.14 152.19 269.35 152.83 270.11 153.87C272.87 157.67 274.68 161.52 275.82 164.5H275.86Z" fill="#6C3593" stroke="#231F20" stroke-miterlimit="10"/>
<path d="M230.59 125.14C231.4 125.17 232.24 125.15 233.11 125.11" stroke="#231F20" stroke-miterlimit="10"/>
<path d="M245.98 132.6C245.98 136.21 244.03 139.22 241.47 139.9C241.12 139.99 240.75 140.04 240.38 140.04C239.54 140.04 238.73 139.79 238.01 139.33C239.91 138.15 241.23 135.58 241.23 132.6C241.23 129.62 239.91 127.05 238.01 125.87C238.73 125.41 239.54 125.16 240.38 125.16C243.47 125.16 245.99 128.49 245.99 132.6H245.98Z" fill="#F89921" stroke="#251132" stroke-miterlimit="10"/>
<path d="M249.69 155.29C240.43 158.74 234.32 164.53 230.53 169.46L227.82 162.39C225.33 163.04 221.92 163.42 217.49 162.86C214 162.42 211.42 159.4 211.45 155.88C211.5 149.03 211.18 143.85 211.18 143.85C208.92 143.44 208.1 141.39 208.1 141.39C208.1 141.39 211.01 137.45 209.95 129.91C208.78 121.53 209.6 115.59 210.34 112.38C212.35 116.72 217.81 124.9 230.6 125.15C230.03 129.62 232.11 132.61 232.11 132.61C232.11 132.61 233.12 132.61 234.8 132.29C234.88 129.44 236.18 127 238.02 125.88C239.92 127.06 241.24 129.63 241.24 132.61C241.24 135.59 239.92 138.16 238.02 139.34C238.74 139.8 239.55 140.05 240.39 140.05C240.77 140.05 241.13 140 241.48 139.91C242.69 147.7 247.15 152.9 249.71 155.3L249.69 155.29Z" fill="#F89921" stroke="#251132" stroke-miterlimit="10"/>
<path d="M233.19 159.85C233.19 159.85 231.52 161.42 227.82 162.39" stroke="#231F20" stroke-miterlimit="10"/>
<path d="M230.75 170.04L230.53 169.47" stroke="#231F20" stroke-miterlimit="10"/>
<path d="M213.76 138.08C213.843 138.08 213.91 136.853 213.91 135.34C213.91 133.827 213.843 132.6 213.76 132.6C213.677 132.6 213.61 133.827 213.61 135.34C213.61 136.853 213.677 138.08 213.76 138.08Z" stroke="#231F20" stroke-miterlimit="10"/>
<path d="M211.32 147.73C211.32 147.73 213.09 147.73 216.7 145.76" stroke="#231F20" stroke-miterlimit="10"/>
<path d="M211.45 127.81C211.45 127.81 214.82 128.39 216.62 129.87C216.66 129.9 216.7 129.87 216.68 129.83C216.19 129.11 215.34 126.7 210.93 125.16L211.45 127.81Z" fill="#231F20" stroke="#231F20" stroke-miterlimit="10"/>
<path d="M205.4 105.24C205.4 105.24 209.34 109.73 211.01 113.71Z" fill="#7A5DA6"/>
<path d="M205.4 105.24C205.4 105.24 209.34 109.73 211.01 113.71" stroke="#231F20" stroke-miterlimit="10"/>
</svg>
