<svg width="123" height="33" viewBox="0 0 123 33" fill="none" xmlns="http://www.w3.org/2000/svg">
<path d="M46.7083 11.8474C45.1783 10.2725 43.4009 10.0925 42.4559 10.0925C39.126 10.0925 37.641 12.2974 37.641 14.5024C37.641 16.0323 38.3385 16.8648 38.8335 17.2923C39.5985 17.9673 40.5434 18.3273 41.3309 18.5973C42.1859 18.8898 43.0859 19.1823 43.6484 19.6997C44.0533 20.0822 44.2333 20.5097 44.2333 21.0497C44.2333 22.3097 43.2434 23.1197 41.9159 23.1197C40.8584 23.1197 39.486 22.5797 38.766 21.1172L36.8535 22.9397C37.641 24.0871 39.261 25.7746 42.0284 25.7746C45.1333 25.7746 47.2483 23.7722 47.2483 20.8472C47.2483 19.3173 46.6408 18.3048 45.9658 17.6973C45.2008 16.9998 44.0983 16.5948 42.9284 16.1898C41.9834 15.8523 41.4884 15.6723 41.1284 15.3349C40.7684 15.0199 40.6559 14.6824 40.6559 14.3224C40.6559 13.5574 41.1509 12.5674 42.7259 12.5674C43.2659 12.5674 44.3008 12.6799 45.1783 13.8499L46.7083 11.8474Z" fill="white"/>
<path d="M56.4546 22.3097C56.0046 23.0972 55.2171 23.5922 54.1822 23.5922C53.1247 23.5922 52.5172 23.0747 52.2247 22.6697C51.9097 22.2422 51.7522 21.6122 51.7522 21.0272H59.042V20.8022C59.042 19.7447 58.907 18.2148 57.8721 16.9773C57.1971 16.1673 56.0496 15.3799 54.0697 15.3799C52.8997 15.3799 51.5497 15.6273 50.4022 16.7523C49.7048 17.4498 48.9173 18.6423 48.9173 20.5772C48.9173 22.1072 49.3673 23.3672 50.4472 24.3796C51.4147 25.3021 52.6072 25.7521 54.1822 25.7521C57.5796 25.7521 58.6821 23.4347 58.9745 22.7147L56.4546 22.3097ZM51.8422 19.2723C52.0672 17.9673 53.1247 17.3148 54.1372 17.3148C55.1496 17.3148 56.2296 17.9448 56.4546 19.2723H51.8422Z" fill="white"/>
<path d="M61.1674 9.0242V25.4371H63.9123V9.0242H61.1674Z" fill="white"/>
<path d="M66.5286 9.0242V25.4371H69.2735V9.0242H66.5286Z" fill="white"/>
<path d="M85.1973 15.6948V25.437H87.9423V15.6948H85.1973ZM84.9273 11.5774C84.9273 12.4773 85.6698 13.2198 86.5698 13.2198C87.4698 13.2198 88.2123 12.4773 88.2123 11.5774C88.2123 10.6774 87.4698 9.93489 86.5698 9.93489C85.6698 9.93489 84.9273 10.6774 84.9273 11.5774Z" fill="#00E2AE"/>
<path d="M97.9834 16.9547C97.6009 16.3697 96.7459 15.3798 94.9234 15.3798C93.6185 15.3798 92.426 15.8523 91.571 16.6847C90.626 17.6072 90.0636 19.0247 90.0636 20.5546C90.0636 22.4446 90.896 23.7046 91.616 24.4246C92.561 25.347 93.686 25.752 94.9909 25.752C95.7334 25.752 97.0384 25.572 97.9834 24.1321V25.5045C97.9834 26.292 97.9159 27.057 97.2859 27.6645C96.9259 28.002 96.4084 28.272 95.6209 28.272C95.2384 28.272 94.4959 28.2495 93.956 27.7545C93.641 27.4845 93.3935 27.0345 93.281 26.5845H90.3111C90.536 27.687 91.121 28.8345 91.886 29.4869C92.516 30.0494 93.641 30.6119 95.5309 30.6119C97.5334 30.6119 98.7034 29.9144 99.3783 29.2394C100.593 28.0245 100.728 26.472 100.728 24.987V15.6948H97.9834V16.9547ZM95.5984 17.8097C96.3409 17.8097 96.9709 18.0347 97.5109 18.5972C97.8934 19.0022 98.2984 19.6322 98.2984 20.5546C98.2984 21.3421 97.9834 22.1296 97.4209 22.6471C96.9484 23.0746 96.2734 23.3221 95.5984 23.3221C94.9459 23.3221 94.2035 23.0971 93.6185 22.4671C93.2135 22.0396 92.8985 21.4096 92.8985 20.5546C92.8985 19.5422 93.326 18.8897 93.776 18.4847C94.1135 18.1697 94.7209 17.8097 95.5984 17.8097Z" fill="#00E2AE"/>
<path d="M103.346 25.437H106.091V20.4646C106.091 19.9022 106.114 19.2047 106.519 18.5747C106.924 17.9672 107.486 17.7197 108.206 17.7197C108.476 17.7197 109.061 17.7647 109.489 18.2147C109.984 18.7322 110.006 19.5872 110.006 20.1272V25.437H112.751V19.3172C112.751 18.3722 112.661 17.4047 111.986 16.5722C111.221 15.6273 109.961 15.3798 109.106 15.3798C107.531 15.3798 106.609 16.2347 106.091 16.9547V9.03491H103.346V25.437Z" fill="#00E2AE"/>
<path d="M120 18.0347V15.6948H118.11V12.3648H115.365V15.6948H114.285V18.0347H115.365V25.437H118.11V18.0347H120Z" fill="#00E2AE"/>
<path d="M71.8675 9.0242V25.4561H75.0701V18.8538H75.4643L79.8494 25.4561H83.8403L78.7161 18.5335C79.5045 18.3857 80.0957 18.1147 80.5145 17.8191C81.7956 16.9568 82.4361 15.5526 82.4361 13.9513C82.4361 12.7195 82.0666 11.3153 80.8102 10.256C80.0465 9.61545 78.8886 9.0242 76.6221 9.0242H71.8675ZM75.0701 11.6356H76.0309C76.6221 11.6356 79.1349 11.6602 79.1349 14.0991C79.1349 16.5134 76.5975 16.5873 75.9816 16.5873H75.0701V11.6356Z" fill="#00E2AE"/>
<path d="M85.1973 15.6948V25.437H87.9423V15.6948H85.1973ZM84.9273 11.5774C84.9273 12.4773 85.6698 13.2198 86.5698 13.2198C87.4698 13.2198 88.2123 12.4773 88.2123 11.5774C88.2123 10.6774 87.4698 9.93489 86.5698 9.93489C85.6698 9.93489 84.9273 10.6774 84.9273 11.5774Z" fill="#00E2AE"/>
<path d="M97.9834 16.9547C97.6009 16.3697 96.7459 15.3798 94.9234 15.3798C93.6185 15.3798 92.426 15.8523 91.571 16.6847C90.626 17.6072 90.0636 19.0247 90.0636 20.5546C90.0636 22.4446 90.896 23.7046 91.616 24.4246C92.561 25.347 93.686 25.752 94.9909 25.752C95.7334 25.752 97.0384 25.572 97.9834 24.1321V25.5045C97.9834 26.292 97.9159 27.057 97.2859 27.6645C96.9259 28.002 96.4084 28.272 95.6209 28.272C95.2384 28.272 94.4959 28.2495 93.956 27.7545C93.641 27.4845 93.3935 27.0345 93.281 26.5845H90.3111C90.536 27.687 91.121 28.8345 91.886 29.4869C92.516 30.0494 93.641 30.6119 95.5309 30.6119C97.5334 30.6119 98.7034 29.9144 99.3783 29.2394C100.593 28.0245 100.728 26.472 100.728 24.987V15.6948H97.9834V16.9547ZM95.5984 17.8097C96.3409 17.8097 96.9709 18.0347 97.5109 18.5972C97.8934 19.0022 98.2984 19.6322 98.2984 20.5546C98.2984 21.3421 97.9834 22.1296 97.4209 22.6471C96.9484 23.0746 96.2734 23.3221 95.5984 23.3221C94.9459 23.3221 94.2035 23.0971 93.6185 22.4671C93.2135 22.0396 92.8985 21.4096 92.8985 20.5546C92.8985 19.5422 93.326 18.8897 93.776 18.4847C94.1135 18.1697 94.7209 17.8097 95.5984 17.8097Z" fill="#00E2AE"/>
<path d="M103.346 25.437H106.091V20.4646C106.091 19.9022 106.114 19.2047 106.519 18.5747C106.924 17.9672 107.486 17.7197 108.206 17.7197C108.476 17.7197 109.061 17.7647 109.489 18.2147C109.984 18.7322 110.006 19.5872 110.006 20.1272V25.437H112.751V19.3172C112.751 18.3722 112.661 17.4047 111.986 16.5722C111.221 15.6273 109.961 15.3798 109.106 15.3798C107.531 15.3798 106.609 16.2347 106.091 16.9547V9.03491H103.346V25.437Z" fill="#00E2AE"/>
<path d="M120 18.0347V15.6948H118.11V12.3648H115.365V15.6948H114.285V18.0347H115.365V25.437H118.11V18.0347H120Z" fill="#00E2AE"/>
<path d="M26.2024 15.7481C26.0201 15.7481 25.8419 15.8021 25.6903 15.9033C25.5387 16.0045 25.4205 16.1484 25.3507 16.3168C25.2809 16.4852 25.2626 16.6705 25.2981 16.8493C25.3336 17.0281 25.4214 17.1924 25.5502 17.3213C25.6791 17.4502 25.8433 17.538 26.0221 17.5736C26.2009 17.6092 26.3862 17.591 26.5546 17.5212C26.7231 17.4515 26.867 17.3334 26.9683 17.1818C27.0696 17.0302 27.1237 16.852 27.1237 16.6698C27.1237 16.5487 27.0999 16.4289 27.0536 16.3171C27.0074 16.2053 26.9395 16.1037 26.8539 16.0181C26.7684 15.9325 26.6668 15.8646 26.555 15.8183C26.4432 15.772 26.3234 15.7481 26.2024 15.7481Z" fill="white"/>
<path d="M3.75271 15.7481C3.57042 15.7481 3.3922 15.8021 3.2406 15.9033C3.08899 16.0045 2.97081 16.1484 2.901 16.3168C2.8312 16.4852 2.81289 16.6705 2.84842 16.8493C2.88394 17.0281 2.97168 17.1924 3.10056 17.3213C3.22944 17.4502 3.39365 17.538 3.57244 17.5736C3.75122 17.6092 3.93655 17.591 4.10497 17.5212C4.27339 17.4515 4.41735 17.3334 4.51863 17.1818C4.61992 17.0302 4.67398 16.852 4.67398 16.6698C4.67416 16.5487 4.65046 16.4288 4.60423 16.3169C4.558 16.2051 4.49016 16.1034 4.40458 16.0178C4.319 15.9322 4.21737 15.8643 4.10551 15.818C3.99365 15.7717 3.87376 15.748 3.75271 15.7481Z" fill="white"/>
<path d="M16.4074 15.2483C15.007 14.9028 14.113 14.6036 13.7255 14.3509C13.5469 14.2467 13.3992 14.0971 13.2974 13.9172C13.1955 13.7374 13.1431 13.5338 13.1456 13.3271C13.139 13.1296 13.1785 12.9332 13.2609 12.7536C13.3433 12.5739 13.4663 12.4158 13.6202 12.2918C13.9941 12.0146 14.4533 11.877 14.9181 11.9029C16.2829 11.9029 17.6057 12.3887 18.8865 13.3603L20.7507 12.9609L20.5559 10.9565C19.7956 10.3196 18.9222 9.8316 17.9813 9.51789C17.031 9.1867 16.0322 9.01556 15.0259 9.01144C13.5191 9.01144 12.2635 9.39128 11.259 10.151C10.2544 10.9106 9.75079 11.9908 9.748 13.3915C9.748 14.7905 10.146 15.8179 10.9421 16.4735C11.7381 17.1292 12.9939 17.6609 14.7093 18.0684C15.7936 18.3364 16.5189 18.6001 16.8852 18.8596C17.0581 18.9751 17.199 19.1325 17.2947 19.3171C17.3904 19.5018 17.4379 19.7076 17.4325 19.9155C17.4394 20.1202 17.3959 20.3235 17.3059 20.5075C17.2159 20.6914 17.0821 20.8505 16.9163 20.9707C16.4964 21.2527 15.996 21.3898 15.491 21.3611C14.141 21.3611 12.672 20.6664 11.0841 19.2772L11.0946 21.2838L9.13382 21.694C11.0004 23.4137 13.0989 24.2735 15.4295 24.2735C17.0468 24.2735 18.3525 23.8618 19.3468 23.0385C19.8264 22.6535 20.2104 22.1626 20.4685 21.6043C20.7267 21.046 20.852 20.4356 20.8346 19.8207C20.8346 18.497 20.4475 17.4906 19.6731 16.8016C18.8987 16.1126 17.8102 15.5948 16.4074 15.2483Z" fill="white"/>
<path d="M29.0469 14.3539L17.3146 2.62094C16.6998 2.00973 15.8681 1.66666 15.0011 1.66666C14.1342 1.66666 13.3025 2.00973 12.6876 2.62094L0.954283 14.3539C0.343073 14.9688 0 15.8005 0 16.6674C0 17.5344 0.343073 18.3661 0.954283 18.9809L12.6866 30.7118C13.3012 31.3234 14.133 31.6667 15.0001 31.6667C15.8671 31.6667 16.6989 31.3234 17.3135 30.7118L29.0448 18.9809C29.6562 18.3663 29.9996 17.5348 30 16.6679C30.0004 15.8009 29.6577 14.9691 29.0469 14.3539ZM11.0843 19.2754C12.6718 20.6642 14.1408 21.3588 15.4913 21.3593C15.9961 21.3879 16.4965 21.2508 16.9162 20.9689C17.082 20.8487 17.2159 20.6896 17.3059 20.5056C17.396 20.3217 17.4396 20.1184 17.4328 19.9137C17.4381 19.7058 17.3906 19.4999 17.2948 19.3153C17.199 19.1306 17.0581 18.9733 16.8851 18.8578C16.5183 18.5987 15.793 18.335 14.7092 18.0666C12.9917 17.6586 11.7361 17.1269 10.9423 16.4717C10.1486 15.8165 9.75048 14.7892 9.74791 13.3897C9.74791 11.9906 10.2516 10.9105 11.2589 10.1491C12.2662 9.38784 13.5219 9.008 15.0261 9.00963C16.033 9.0134 17.0322 9.18455 17.983 9.51608C18.9241 9.82911 19.7979 10.3163 20.559 10.9522L20.7506 12.9588L18.8864 13.3582C17.6084 12.3865 16.286 11.9007 14.9191 11.9007C14.4543 11.8747 13.995 12.0123 13.6211 12.2897C13.4673 12.4137 13.3443 12.5718 13.262 12.7514C13.1797 12.9311 13.1403 13.1274 13.1469 13.325C13.1443 13.5317 13.1966 13.7354 13.2985 13.9153C13.4004 14.0952 13.5482 14.2449 13.7268 14.349C14.1136 14.602 15.0076 14.9012 16.4087 15.2465C17.8099 15.5919 18.897 16.1088 19.6702 16.7974C20.4444 17.4875 20.8315 18.4939 20.8318 19.8165C20.8491 20.4313 20.7238 21.0419 20.4656 21.6001C20.2073 22.1584 19.8233 22.6493 19.3435 23.0343C18.3505 23.8585 17.0447 24.2702 15.4262 24.2692C13.0962 24.2692 10.9976 23.4094 9.13059 21.6898L11.0973 21.2795L11.0843 19.2754Z" fill="#ED264F"/>
</svg>
