<svg width="22" height="22" viewBox="0 0 22 22" fill="none" xmlns="http://www.w3.org/2000/svg">
<g id="Group 22284">
<g id="Group 6155">
<pLinksth id="PLinksth 10003" d="M11.5131 9.5315C10.5304 9.28902 9.90309 9.07909 9.63116 8.90173C9.50589 8.82864 9.40224 8.72365 9.33076 8.59746C9.25928 8.47127 9.22252 8.32839 9.22424 8.18337C9.21968 8.04475 9.24739 7.90697 9.30518 7.7809C9.36298 7.65482 9.44928 7.54391 9.55729 7.4569C9.81971 7.26238 10.1419 7.16583 10.4681 7.18398C11.4257 7.18398 12.3539 7.52488 13.2527 8.20668L14.5608 7.9264L14.4241 6.51985C13.8906 6.07298 13.2777 5.73054 12.6175 5.51041C11.9507 5.27801 11.2499 5.15792 10.5437 5.15503C9.48636 5.15503 8.60527 5.42156 7.9004 5.95463C7.19553 6.4877 6.84211 7.24567 6.84015 8.22852C6.84015 9.21024 7.11945 9.93114 7.67804 10.3912C8.23664 10.8513 9.11781 11.2244 10.3215 11.5104C11.0824 11.6984 11.5913 11.8834 11.8484 12.0655C11.9697 12.1466 12.0686 12.257 12.1357 12.3866C12.2029 12.5162 12.2362 12.6606 12.2325 12.8065C12.2373 12.9501 12.2068 13.0928 12.1436 13.2219C12.0804 13.351 11.9866 13.4626 11.8702 13.5469C11.5756 13.7448 11.2244 13.841 10.8701 13.8208C9.92273 13.8208 8.89193 13.3334 7.77769 12.3586L7.78505 13.7666L6.40918 14.0545C7.71895 15.2612 9.19151 15.8645 10.8269 15.8645C11.9617 15.8645 12.878 15.5757 13.5757 14.9979C13.9123 14.7277 14.1817 14.3833 14.3628 13.9915C14.544 13.5998 14.6319 13.1714 14.6197 12.74C14.6197 11.8111 14.348 11.1049 13.8047 10.6214C13.2613 10.138 12.4974 9.77464 11.5131 9.5315Z" fill="white"/>
</g>
<pLinksth id="PLinksth 10004" d="M20.3824 8.90276L12.1498 0.669627C11.7183 0.240736 11.1347 0 10.5264 0C9.91805 0 9.33442 0.240736 8.903 0.669627L0.669627 8.90276C0.240736 9.33418 0 9.9178 0 10.5261C0 11.1345 0.240736 11.7181 0.669627 12.1495L8.90226 20.3812C9.33356 20.8103 9.91723 21.0512 10.5256 21.0512C11.1341 21.0512 11.7177 20.8103 12.149 20.3812L20.3809 12.1495C20.81 11.7183 21.0509 11.1348 21.0512 10.5264C21.0515 9.91812 20.811 9.33441 20.3824 8.90276ZM7.77796 12.3562C8.89187 13.3307 9.92267 13.8181 10.8704 13.8184C11.2246 13.8385 11.5757 13.7424 11.8702 13.5445C11.9866 13.4602 12.0805 13.3485 12.1437 13.2194C12.2069 13.0904 12.2375 12.9477 12.2327 12.8041C12.2364 12.6582 12.2031 12.5137 12.1359 12.3842C12.0687 12.2546 11.9698 12.1442 11.8484 12.0631C11.591 11.8814 11.0821 11.6963 10.3216 11.508C9.11636 11.2216 8.23527 10.8486 7.67831 10.3888C7.12136 9.92905 6.84198 9.20815 6.84018 8.22611C6.84018 7.2444 7.19359 6.48643 7.90043 5.95222C8.60726 5.418 9.48843 5.15147 10.5439 5.15262C11.2505 5.15526 11.9516 5.27536 12.6188 5.508C13.2791 5.72765 13.8923 6.0695 14.4264 6.51572L14.5609 7.92374L13.2527 8.20402C12.3559 7.52222 11.428 7.18132 10.4688 7.18132C10.1427 7.16303 9.8204 7.25959 9.55805 7.45424C9.45008 7.54126 9.36381 7.65219 9.30606 7.77826C9.2483 7.90434 9.22063 8.04211 9.22525 8.18071C9.22344 8.32578 9.26015 8.46873 9.33164 8.59498C9.40312 8.72123 9.50683 8.82625 9.63217 8.89932C9.90361 9.07685 10.5309 9.28677 11.5141 9.52909C12.4973 9.77141 13.2602 10.1341 13.8027 10.6173C14.3459 11.1016 14.6176 11.8078 14.6178 12.7359C14.63 13.1673 14.542 13.5957 14.3608 13.9875C14.1796 14.3792 13.9101 14.7237 13.5735 14.9938C12.8766 15.5722 11.9604 15.861 10.8247 15.8604C9.18966 15.8604 7.71709 15.2571 6.407 14.0504L7.78704 13.7625L7.77796 12.3562Z" fill="#ED264F"/>
</g>
</svg>
